<?xml version="1.0" encoding="UTF-8"?>
<svg xmlns="http://www.w3.org/2000/svg" xmlns:xlink="http://www.w3.org/1999/xlink" version="1.2" >
<font id="Tele2SlabWebHeavy">
<font-face  font-family="Tele2 Slab Web" units-per-em="1000" ascent="750" descent="-250" font-style="normal" font-weight="900" font-stretch="normal" cap-height="709" x-height="709" underline-position="0" underline-thickness="0" />
<missing-glyph  horiz-adv-x="694" d="M100 -150 L100 850 L594 850 L594 -150 L100 -150 Z M133 -116 L561 -116 L561 818 L133 818 L133 -116 Z " />
<glyph glyph-name=".null" d="" />
<glyph glyph-name="space" unicode="&#x20;" horiz-adv-x="200" d="" />
<glyph glyph-name="A" unicode="A" horiz-adv-x="629" d="M345 0 L345 160 L386 160 L377 206 L243 206 L233 160 L271 160 L271 0 L14 0 L14 160 L47 160 L149 549 L107 549 L107 709 L523 709 L523 549 L483 549 L583 160 L615 160 L615 0 L345 0 Z M271 346 L349 346 L310 537 L271 346 Z " />
<glyph glyph-name="B" unicode="B" horiz-adv-x="574" d="M568 212 Q568 108 510 54 Q452 0 336 0 L20 0 L20 160 L65 160 L65 549 L20 549 L20 709 L323 709 Q428 709 486.5 662 Q545 615 545 529 Q545 423 454 381 Q509 360 538.5 317 Q568 274 568 212 Z M292 435 Q324 435 342 448 Q360 461 360 494 Q360 549 292 549 L259 549 L259 435 L292 435 Z M373 233 Q373 304 293 304 L259 304 L259 160 L293 160 Q331 160 352 178 Q373 196 373 233 Z " />
<glyph glyph-name="C" unicode="C" horiz-adv-x="569" d="M304 -15 Q158 -15 88 82 Q18 179 18 354 Q18 533 83.5 628 Q149 723 269 723 Q354 723 398 674 L399 711 L549 711 L549 460 L389 460 Q378 559 312 559 Q266 559 245 508.5 Q224 458 224 354 Q224 255 245 206 Q266 157 313 157 Q353 157 371 190.5 Q389 224 393 286 L559 286 Q559 -15 304 -15 Z " />
<glyph glyph-name="D" unicode="D" horiz-adv-x="614" d="M596 355 Q596 246 561.5 166 Q527 86 464 43 Q401 0 316 0 L20 0 L20 160 L65 160 L65 549 L20 549 L20 709 L316 709 Q401 709 464.5 666.5 Q528 624 562 544 Q596 464 596 355 Z M390 354 Q390 549 291 549 L259 549 L259 160 L291 160 Q390 160 390 354 Z " />
<glyph glyph-name="E" unicode="E" horiz-adv-x="551" d="M379 442 L370 549 L259 549 L259 431 L366 431 L366 286 L259 286 L259 160 L369 160 L379 277 L531 277 L531 0 L20 0 L20 160 L65 160 L65 549 L20 549 L20 709 L531 709 L531 442 L379 442 Z " />
<glyph glyph-name="F" unicode="F" horiz-adv-x="532" d="M364 442 L355 549 L259 549 L259 407 L420 407 L420 262 L259 262 L259 160 L304 160 L304 0 L20 0 L20 160 L65 160 L65 549 L20 549 L20 709 L516 709 L516 442 L364 442 Z " />
<glyph glyph-name="G" unicode="G" horiz-adv-x="594" d="M224 354 Q224 247 249 199.5 Q274 152 331 152 Q365 152 388 168 L388 253 L311 253 L311 413 L572 413 L572 0 L405 0 L405 44 Q357 -12 267 -12 Q144 -12 81 85 Q18 182 18 353 Q18 470 50 553 Q82 636 142 679.5 Q202 723 284 723 Q376 723 420 672 L422 711 L572 711 L572 470 L411 470 Q403 517 381.5 538 Q360 559 324 559 Q277 559 250.5 511.5 Q224 464 224 354 Z " />
<glyph glyph-name="H" unicode="H" horiz-adv-x="664" d="M644 160 L644 0 L360 0 L360 160 L405 160 L405 291 L259 291 L259 160 L304 160 L304 0 L20 0 L20 160 L65 160 L65 549 L20 549 L20 709 L304 709 L304 549 L259 549 L259 436 L405 436 L405 549 L360 549 L360 709 L644 709 L644 549 L599 549 L599 160 L644 160 Z " />
<glyph glyph-name="I" unicode="I" horiz-adv-x="324" d="M304 160 L304 0 L20 0 L20 160 L65 160 L65 549 L20 549 L20 709 L304 709 L304 549 L259 549 L259 160 L304 160 Z " />
<glyph glyph-name="J" unicode="J" horiz-adv-x="416" d="M354 549 L354 206 Q354 97 301.5 44.5 Q249 -8 156 -8 Q106 -8 69.5 0 Q33 8 17 18 L17 165 Q49 157 83 157 Q122 157 141.5 177 Q161 197 161 245 L161 549 L110 549 L110 709 L399 709 L399 549 L354 549 Z " />
<glyph glyph-name="K" unicode="K" horiz-adv-x="611" d="M414 0 L259 302 L259 160 L294 160 L294 0 L20 0 L20 160 L65 160 L65 549 L20 549 L20 709 L294 709 L294 549 L259 549 L259 409 L365 549 L345 549 L345 709 L593 709 L593 549 L557 549 L429 388 L554 160 L595 160 L595 0 L414 0 Z " />
<glyph glyph-name="L" unicode="L" horiz-adv-x="515" d="M20 0 L20 160 L65 160 L65 549 L20 549 L20 709 L304 709 L304 549 L259 549 L259 160 L335 160 L345 277 L497 277 L497 0 L20 0 Z " />
<glyph glyph-name="M" unicode="M" horiz-adv-x="813" d="M793 160 L793 0 L529 0 L529 160 L569 160 L569 505 L451 0 L337 0 L224 507 L224 160 L264 160 L264 0 L20 0 L20 160 L60 160 L60 549 L20 549 L20 709 L346 709 L409 391 L477 709 L793 709 L793 549 L753 549 L753 160 L793 160 Z " />
<glyph glyph-name="N" unicode="N" horiz-adv-x="679" d="M617 549 L617 0 L422 0 L239 408 L239 160 L284 160 L284 0 L20 0 L20 160 L65 160 L65 549 L20 549 L20 709 L285 709 L443 349 L443 549 L398 549 L398 709 L662 709 L662 549 L617 549 Z " />
<glyph glyph-name="O" unicode="O" horiz-adv-x="624" d="M606 354 Q606 179 532 82 Q458 -15 312 -15 Q166 -15 92 82 Q18 179 18 354 Q18 529 92 626.5 Q166 724 312 724 Q458 724 532 626.5 Q606 529 606 354 Z M224 354 Q224 251 244.5 200.5 Q265 150 312 150 Q359 150 379.5 200.5 Q400 251 400 354 Q400 458 379.5 508.5 Q359 559 312 559 Q265 559 244.5 508.5 Q224 458 224 354 Z " />
<glyph glyph-name="P" unicode="P" horiz-adv-x="571" d="M566 482 Q566 414 537.5 362.5 Q509 311 457.5 283 Q406 255 340 255 L259 255 L259 160 L309 160 L309 0 L20 0 L20 160 L65 160 L65 549 L20 549 L20 709 L340 709 Q406 709 457.5 681 Q509 653 537.5 601.5 Q566 550 566 482 Z M374 482 Q374 516 354.5 532.5 Q335 549 309 549 L259 549 L259 415 L309 415 Q335 415 354.5 431.5 Q374 448 374 482 Z " />
<glyph glyph-name="Q" unicode="Q" horiz-adv-x="624" d="M523 27 Q556 27 585 35 L585 -91 Q569 -99 543.5 -104 Q518 -109 489 -109 Q355 -109 306 -15 Q163 -13 90.5 84 Q18 181 18 354 Q18 529 92 626.5 Q166 724 312 724 Q458 724 532 626.5 Q606 529 606 354 Q606 240 574.5 158 Q543 76 480 32 Q502 27 523 27 Z M312 150 Q359 150 379.5 200.5 Q400 251 400 354 Q400 458 379.5 508.5 Q359 559 312 559 Q265 559 244.5 508.5 Q224 458 224 354 Q224 251 244.5 200.5 Q265 150 312 150 Z " />
<glyph glyph-name="R" unicode="R" horiz-adv-x="587" d="M397 0 L259 295 L259 160 L299 160 L299 0 L20 0 L20 160 L65 160 L65 549 L20 549 L20 709 L338 709 Q441 709 502.5 654.5 Q564 600 564 498 Q564 429 533 383 Q502 337 448 314 L532 160 L571 160 L571 0 L397 0 Z M307 415 Q333 415 353 431 Q373 447 373 481 Q373 515 353 532 Q333 549 307 549 L259 549 L259 415 L307 415 Z " />
<glyph glyph-name="S" unicode="S" horiz-adv-x="539" d="M529 202 Q529 101 471.5 44 Q414 -13 320 -13 Q225 -13 172 37 L170 -2 L20 -2 L20 256 L183 256 Q188 211 213 179 Q238 147 279 147 Q305 147 319 159 Q333 171 333 195 Q333 215 321 229 Q309 243 282 257.5 Q255 272 198 295 Q99 336 61.5 386 Q24 436 24 511 Q24 572 48.5 619.5 Q73 667 119.5 694 Q166 721 229 721 Q315 721 366 675 L367 711 L517 711 L517 468 L357 468 Q353 515 328 540 Q303 565 269 565 Q243 565 229.5 552 Q216 539 216 520 Q216 499 235 483 Q254 467 315 444 Q398 412 444 379 Q490 346 509.5 304 Q529 262 529 202 Z " />
<glyph glyph-name="T" unicode="T" horiz-adv-x="642" d="M479 400 L467 549 L418 549 L418 160 L473 160 L473 0 L169 0 L169 160 L224 160 L224 549 L175 549 L163 400 L17 400 L17 709 L625 709 L625 400 L479 400 Z " />
<glyph glyph-name="U" unicode="U" horiz-adv-x="624" d="M562 549 L562 228 Q562 105 501.5 45.5 Q441 -14 308 -14 Q176 -14 119 44 Q62 102 62 228 L62 549 L17 549 L17 709 L291 709 L291 549 L256 549 L256 225 Q256 195 269.5 177.5 Q283 160 312 160 Q341 160 354.5 177.5 Q368 195 368 225 L368 549 L333 549 L333 709 L607 709 L607 549 L562 549 Z " />
<glyph glyph-name="V" unicode="V" horiz-adv-x="622" d="M432 0 L189 0 L46 549 L14 549 L14 709 L289 709 L289 549 L249 549 L320 215 L391 549 L353 549 L353 709 L608 709 L608 549 L577 549 L432 0 Z " />
<glyph glyph-name="W" unicode="W" horiz-adv-x="919" d="M743 0 L521 0 L457 347 L388 0 L161 0 L46 549 L14 549 L14 709 L290 709 L290 549 L242 549 L293 252 L376 709 L549 709 L635 268 L685 549 L640 549 L640 709 L905 709 L905 549 L860 549 L743 0 Z " />
<glyph glyph-name="X" unicode="X" horiz-adv-x="605" d="M559 160 L589 160 L589 0 L319 0 L319 160 L350 160 L297 265 L243 160 L273 160 L273 0 L16 0 L16 160 L44 160 L175 359 L46 549 L16 549 L16 709 L288 709 L288 549 L259 549 L308 461 L359 549 L331 549 L331 709 L589 709 L589 549 L560 549 L431 366 L559 160 Z " />
<glyph glyph-name="Y" unicode="Y" horiz-adv-x="580" d="M435 160 L435 0 L141 0 L141 160 L186 160 L186 288 L46 549 L14 549 L14 709 L279 709 L279 549 L254 549 L299 454 L345 549 L324 549 L324 709 L566 709 L566 549 L532 549 L390 295 L390 160 L435 160 Z " />
<glyph glyph-name="Z" unicode="Z" horiz-adv-x="553" d="M381 277 L533 277 L533 0 L20 0 L20 162 L302 549 L192 549 L182 442 L30 442 L30 709 L533 709 L533 547 L251 160 L370 160 L381 277 Z " />
<glyph glyph-name="Agrave" unicode="&#xc0;" horiz-adv-x="622" d="M608 0 L338 0 L338 160 L379 160 L370 207 L236 207 L226 160 L264 160 L264 0 L14 0 L14 160 L45 160 L136 509 L94 509 L94 669 L224 669 L151 773 L323 773 L375 669 L530 669 L530 509 L492 509 L577 160 L608 160 L608 0 Z M304 526 L266 347 L341 347 L304 526 Z " />
<glyph glyph-name="Aacute" unicode="&#xc1;" horiz-adv-x="622" d="M608 0 L338 0 L338 160 L379 160 L370 207 L236 207 L226 160 L264 160 L264 0 L14 0 L14 160 L45 160 L136 509 L94 509 L94 669 L246 669 L298 773 L470 773 L397 669 L530 669 L530 509 L492 509 L577 160 L608 160 L608 0 Z M304 526 L266 347 L341 347 L304 526 Z " />
<glyph glyph-name="Acircumflex" unicode="&#xc2;" horiz-adv-x="622" d="M608 0 L338 0 L338 160 L379 160 L370 207 L236 207 L226 160 L264 160 L264 0 L14 0 L14 160 L45 160 L136 509 L94 509 L94 669 L133 669 L196 773 L428 773 L491 669 L530 669 L530 509 L492 509 L577 160 L608 160 L608 0 Z M347 669 L312 720 L277 669 L347 669 Z M304 526 L266 347 L341 347 L304 526 Z " />
<glyph glyph-name="Atilde" unicode="&#xc3;" horiz-adv-x="622" d="M608 0 L338 0 L338 160 L379 160 L370 207 L236 207 L226 160 L264 160 L264 0 L14 0 L14 160 L45 160 L136 509 L94 509 L94 669 L130 669 Q134 729 164.5 763.5 Q195 798 239 798 Q269 798 288.5 790.5 Q308 783 330 770 Q345 761 355 756.5 Q365 752 377 752 Q408 752 410 792 L506 792 Q503 702 459 669 L530 669 L530 509 L492 509 L577 160 L608 160 L608 0 Z M262 697 Q234 697 228 669 L331 669 Q322 674 309 681.5 Q296 689 285 693 Q274 697 262 697 Z M304 526 L266 347 L341 347 L304 526 Z " />
<glyph glyph-name="Adieresis" unicode="&#xc4;" horiz-adv-x="622" d="M608 0 L338 0 L338 160 L379 160 L370 207 L236 207 L226 160 L264 160 L264 0 L14 0 L14 160 L45 160 L136 509 L94 509 L94 669 L133 669 L133 766 L281 766 L281 669 L342 669 L342 766 L490 766 L490 669 L530 669 L530 509 L492 509 L577 160 L608 160 L608 0 Z M304 526 L266 347 L341 347 L304 526 Z " />
<glyph glyph-name="Amacron" unicode="&#x100;" horiz-adv-x="622" d="M608 0 L338 0 L338 160 L379 160 L370 207 L236 207 L226 160 L264 160 L264 0 L14 0 L14 160 L45 160 L136 509 L94 509 L94 669 L183 669 L183 756 L435 756 L435 669 L530 669 L530 509 L492 509 L577 160 L608 160 L608 0 Z M304 526 L266 347 L341 347 L304 526 Z " />
<glyph glyph-name="Abreve" unicode="&#x102;" horiz-adv-x="622" d="M608 0 L338 0 L338 160 L379 160 L370 207 L236 207 L226 160 L264 160 L264 0 L14 0 L14 160 L45 160 L136 509 L94 509 L94 669 L170 669 Q135 707 135 766 L255 766 Q255 736 269.5 719.5 Q284 703 310 703 Q336 703 350.5 719.5 Q365 736 365 766 L485 766 Q485 707 450 669 L530 669 L530 509 L492 509 L577 160 L608 160 L608 0 Z M304 526 L266 347 L341 347 L304 526 Z " />
<glyph glyph-name="Aring" unicode="&#xc5;" horiz-adv-x="622" d="M608 0 L338 0 L338 160 L379 160 L370 207 L236 207 L226 160 L264 160 L264 0 L14 0 L14 160 L45 160 L136 509 L96 509 L96 669 L179 669 Q175 682 175 700 Q175 755 213.5 792 Q252 829 310 829 Q368 829 406.5 792 Q445 755 445 700 Q445 682 441 669 L528 669 L528 509 L492 509 L577 160 L608 160 L608 0 Z M256 700 Q256 678 271 662 Q286 646 310 646 Q334 646 349 662 Q364 678 364 700 Q364 722 349 738 Q334 754 310 754 Q286 754 271 738 Q256 722 256 700 Z M305 526 L266 347 L341 347 L305 526 Z " />
<glyph glyph-name="Aogonek" unicode="&#x104;" horiz-adv-x="629" d="M524 -10 Q524 -19 531 -23.5 Q538 -28 559 -28 Q587 -28 615 -22 L615 -114 Q601 -121 573.5 -127 Q546 -133 516 -133 Q457 -133 426.5 -111 Q396 -89 396 -49 Q396 -23 410 0 L345 0 L345 160 L386 160 L377 206 L243 206 L233 160 L271 160 L271 0 L14 0 L14 160 L47 160 L149 549 L107 549 L107 709 L523 709 L523 549 L483 549 L583 160 L615 160 L615 40 Q568 26 546 15 Q524 4 524 -10 Z M271 346 L349 346 L310 537 L271 346 Z " />
<glyph glyph-name="AE" unicode="&#xc6;" horiz-adv-x="857" d="M687 442 L678 549 L567 549 L567 431 L666 431 L666 286 L567 286 L567 160 L677 160 L687 277 L839 277 L839 0 L328 0 L328 160 L373 160 L373 207 L259 207 L244 160 L264 160 L264 0 L14 0 L14 160 L54 160 L201 549 L149 549 L149 709 L839 709 L839 442 L687 442 Z M304 347 L373 347 L373 560 L304 347 Z " />
<glyph glyph-name="Cacute" unicode="&#x106;" horiz-adv-x="562" d="M297 -15 Q151 -15 81 79 Q11 173 11 336 Q11 491 65.5 580.5 Q120 670 222 684 L267 773 L439 773 L363 664 Q383 650 391 642 L392 676 L542 676 L542 437 L382 437 Q371 526 305 526 Q259 526 238 478.5 Q217 431 217 336 Q217 245 238 199.5 Q259 154 306 154 Q346 154 364 185 Q382 216 386 271 L552 271 Q552 -15 297 -15 Z " />
<glyph glyph-name="Ccaron" unicode="&#x10c;" horiz-adv-x="562" d="M297 -15 Q151 -15 81 79 Q11 173 11 336 Q11 472 53 557.5 Q95 643 175 672 L114 773 L255 773 L310 693 L365 773 L506 773 L448 676 L542 676 L542 437 L382 437 Q371 526 305 526 Q259 526 238 478.5 Q217 431 217 336 Q217 245 238 199.5 Q259 154 306 154 Q346 154 364 185 Q382 216 386 271 L552 271 Q552 -15 297 -15 Z " />
<glyph glyph-name="Cdotaccent" unicode="&#x10a;" horiz-adv-x="562" d="M297 -15 Q151 -15 81 79 Q11 173 11 336 Q11 486 62.5 574.5 Q114 663 210 682 L210 766 L377 766 L377 654 L391 642 L392 676 L542 676 L542 437 L382 437 Q371 526 305 526 Q259 526 238 478.5 Q217 431 217 336 Q217 245 238 199.5 Q259 154 306 154 Q346 154 364 185 Q382 216 386 271 L552 271 Q552 -15 297 -15 Z " />
<glyph glyph-name="Ccedilla" unicode="&#xc7;" horiz-adv-x="569" d="M371 -1 Q380 -26 380 -46 Q380 -87 349.5 -110.5 Q319 -134 261 -134 Q197 -134 145 -108 L179 -40 Q207 -51 232 -51 Q251 -51 262 -43 Q273 -35 273 -18 Q273 -10 272 -6 Q142 5 80 100.5 Q18 196 18 358 Q18 536 83 629.5 Q148 723 269 723 Q354 723 398 674 L399 711 L549 711 L549 460 L389 460 Q378 559 312 559 Q265 559 244.5 510 Q224 461 224 358 Q224 262 245 213.5 Q266 165 313 165 Q353 165 371 198.5 Q389 232 393 294 L559 294 Q559 36 371 -1 Z " />
<glyph glyph-name="Dcaron" unicode="&#x10e;" horiz-adv-x="614" d="M596 335 Q596 173 521.5 86.5 Q447 0 316 0 L20 0 L20 160 L65 160 L65 509 L20 509 L20 669 L153 669 L90 773 L231 773 L286 693 L341 773 L482 773 L411 655 Q499 627 547.5 546 Q596 465 596 335 Z M390 334 Q390 432 365.5 470.5 Q341 509 291 509 L259 509 L259 160 L291 160 Q341 160 365.5 198 Q390 236 390 334 Z " />
<glyph glyph-name="Dcroat" unicode="&#x110;" horiz-adv-x="623" d="M605 355 Q605 246 570.5 166 Q536 86 473 43 Q410 0 325 0 L20 0 L20 160 L65 160 L65 285 L20 285 L20 435 L65 435 L65 549 L20 549 L20 709 L325 709 Q410 709 473.5 666.5 Q537 624 571 544 Q605 464 605 355 Z M399 354 Q399 549 300 549 L259 549 L259 435 L340 435 L340 285 L259 285 L259 160 L300 160 Q399 160 399 354 Z " />
<glyph glyph-name="Egrave" unicode="&#xc8;" horiz-adv-x="551" d="M259 411 L358 411 L358 266 L259 266 L259 160 L369 160 L379 257 L531 257 L531 0 L20 0 L20 160 L65 160 L65 509 L20 509 L20 669 L202 669 L129 773 L301 773 L353 669 L531 669 L531 422 L379 422 L370 509 L259 509 L259 411 Z " />
<glyph glyph-name="Eacute" unicode="&#xc9;" horiz-adv-x="551" d="M259 411 L358 411 L358 266 L259 266 L259 160 L369 160 L379 257 L531 257 L531 0 L20 0 L20 160 L65 160 L65 509 L20 509 L20 669 L215 669 L267 773 L439 773 L366 669 L531 669 L531 422 L379 422 L370 509 L259 509 L259 411 Z " />
<glyph glyph-name="Ecircumflex" unicode="&#xca;" horiz-adv-x="551" d="M259 411 L358 411 L358 266 L259 266 L259 160 L369 160 L379 257 L531 257 L531 0 L20 0 L20 160 L65 160 L65 509 L20 509 L20 669 L116 669 L179 773 L411 773 L474 669 L531 669 L531 422 L379 422 L370 509 L259 509 L259 411 Z M330 669 L295 720 L260 669 L330 669 Z " />
<glyph glyph-name="Ecaron" unicode="&#x11a;" horiz-adv-x="551" d="M259 411 L358 411 L358 266 L259 266 L259 160 L369 160 L379 257 L531 257 L531 0 L20 0 L20 160 L65 160 L65 509 L20 509 L20 669 L158 669 L95 773 L236 773 L291 693 L346 773 L487 773 L424 669 L531 669 L531 422 L379 422 L370 509 L259 509 L259 411 Z " />
<glyph glyph-name="Edieresis" unicode="&#xcb;" horiz-adv-x="551" d="M259 411 L358 411 L358 266 L259 266 L259 160 L369 160 L379 257 L531 257 L531 0 L20 0 L20 160 L65 160 L65 509 L20 509 L20 669 L103 669 L103 766 L251 766 L251 669 L312 669 L312 766 L460 766 L460 669 L531 669 L531 422 L379 422 L370 509 L259 509 L259 411 Z " />
<glyph glyph-name="Emacron" unicode="&#x112;" horiz-adv-x="551" d="M259 411 L358 411 L358 266 L259 266 L259 160 L369 160 L379 257 L531 257 L531 0 L20 0 L20 160 L65 160 L65 509 L20 509 L20 669 L160 669 L160 756 L412 756 L412 669 L531 669 L531 422 L379 422 L370 509 L259 509 L259 411 Z " />
<glyph glyph-name="Edotaccent" unicode="&#x116;" horiz-adv-x="551" d="M259 411 L358 411 L358 266 L259 266 L259 160 L369 160 L379 257 L531 257 L531 0 L20 0 L20 160 L65 160 L65 509 L20 509 L20 669 L201 669 L201 766 L368 766 L368 669 L531 669 L531 422 L379 422 L370 509 L259 509 L259 411 Z " />
<glyph glyph-name="Eogonek" unicode="&#x118;" horiz-adv-x="551" d="M366 431 L366 286 L259 286 L259 160 L369 160 L379 277 L531 277 L531 40 Q484 26 462 15 Q440 4 440 -10 Q440 -19 447 -23.5 Q454 -28 475 -28 Q503 -28 531 -22 L531 -114 Q517 -121 489.5 -127 Q462 -133 432 -133 Q373 -133 342.5 -111 Q312 -89 312 -49 Q312 -23 326 0 L20 0 L20 160 L65 160 L65 549 L20 549 L20 709 L531 709 L531 442 L379 442 L370 549 L259 549 L259 431 L366 431 Z " />
<glyph glyph-name="Gbreve" unicode="&#x11e;" horiz-adv-x="587" d="M217 334 Q217 237 241.5 194.5 Q266 152 323 152 Q357 152 380 166 L381 237 L304 237 L304 394 L565 394 L565 0 L398 0 L398 45 Q352 -11 260 -11 Q137 -11 74 80.5 Q11 172 11 333 Q11 465 57.5 551 Q104 637 189 666 Q151 704 151 766 L271 766 Q271 736 285.5 719.5 Q300 703 326 703 Q352 703 366.5 719.5 Q381 736 381 766 L501 766 Q501 709 467 670 L565 670 L565 443 L404 443 Q396 484 375 503 Q354 522 319 522 Q272 522 244.5 477.5 Q217 433 217 334 Z " />
<glyph glyph-name="Gdotaccent" unicode="&#x120;" horiz-adv-x="587" d="M217 334 Q217 237 241.5 194.5 Q266 152 323 152 Q357 152 380 166 L381 237 L304 237 L304 394 L565 394 L565 0 L398 0 L398 45 Q352 -11 260 -11 Q137 -11 74 80.5 Q11 172 11 333 Q11 479 67 568 Q123 657 226 676 L226 766 L393 766 L393 650 L413 632 L415 670 L565 670 L565 443 L404 443 Q396 484 375 503 Q354 522 319 522 Q272 522 244.5 477.5 Q217 433 217 334 Z " />
<glyph glyph-name="Gcommaaccent" unicode="&#x122;" horiz-adv-x="594" d="M224 354 Q224 247 249 199.5 Q274 152 331 152 Q365 152 388 168 L388 253 L311 253 L311 413 L572 413 L572 0 L423 0 L423 -64 L365 -136 L289 -136 L337 -64 L263 -64 L263 -12 Q142 -11 80 86.5 Q18 184 18 353 Q18 470 50 553 Q82 636 142 679.5 Q202 723 284 723 Q376 723 420 672 L422 711 L572 711 L572 470 L411 470 Q403 517 381.5 538 Q360 559 324 559 Q277 559 250.5 511.5 Q224 464 224 354 Z " />
<glyph glyph-name="Hbar" unicode="&#x126;" horiz-adv-x="664" d="M599 526 L644 526 L644 441 L599 441 L599 160 L644 160 L644 0 L360 0 L360 160 L405 160 L405 271 L259 271 L259 160 L304 160 L304 0 L20 0 L20 160 L65 160 L65 441 L20 441 L20 526 L65 526 L65 549 L20 549 L20 709 L304 709 L304 549 L259 549 L259 526 L405 526 L405 549 L360 549 L360 709 L644 709 L644 549 L599 549 L599 526 Z M259 441 L259 416 L405 416 L405 441 L259 441 Z " />
<glyph glyph-name="Igrave" unicode="&#xcc;" horiz-adv-x="324" d="M259 160 L304 160 L304 0 L20 0 L20 160 L65 160 L65 509 L20 509 L20 669 L83 669 L10 773 L182 773 L234 669 L304 669 L304 509 L259 509 L259 160 Z " />
<glyph glyph-name="Iacute" unicode="&#xcd;" horiz-adv-x="324" d="M304 669 L304 509 L259 509 L259 160 L304 160 L304 0 L20 0 L20 160 L65 160 L65 509 L20 509 L20 669 L90 669 L142 773 L314 773 L241 669 L304 669 Z " />
<glyph glyph-name="Icircumflex" unicode="&#xce;" horiz-adv-x="324" d="M259 160 L304 160 L304 0 L20 0 L20 160 L65 160 L65 509 L20 509 L20 640 L-34 640 L46 773 L278 773 L358 640 L304 640 L304 509 L259 509 L259 160 Z M127 669 L197 669 L162 720 L127 669 Z " />
<glyph glyph-name="Idieresis" unicode="&#xcf;" horiz-adv-x="324" d="M304 615 L304 509 L259 509 L259 160 L304 160 L304 0 L20 0 L20 160 L65 160 L65 509 L20 509 L20 615 L-6 615 L-6 766 L142 766 L142 669 L182 669 L182 766 L330 766 L330 615 L304 615 Z " />
<glyph glyph-name="Imacron" unicode="&#x12a;" horiz-adv-x="324" d="M259 160 L304 160 L304 0 L20 0 L20 160 L65 160 L65 509 L20 509 L20 669 L51 669 L51 756 L273 756 L273 669 L304 669 L304 509 L259 509 L259 160 Z " />
<glyph glyph-name="Iogonek" unicode="&#x12e;" horiz-adv-x="324" d="M304 160 L304 40 Q256 28 234.5 16 Q213 4 213 -10 Q213 -19 220 -23.5 Q227 -28 248 -28 Q276 -28 304 -22 L304 -114 Q290 -121 262.5 -127 Q235 -133 205 -133 Q146 -133 115.5 -111 Q85 -89 85 -49 Q85 -23 99 0 L20 0 L20 160 L65 160 L65 549 L20 549 L20 709 L304 709 L304 549 L259 549 L259 160 L304 160 Z " />
<glyph glyph-name="IJ" unicode="&#x132;" horiz-adv-x="740" d="M304 160 L304 0 L20 0 L20 160 L65 160 L65 549 L20 549 L20 709 L304 709 L304 549 L259 549 L259 160 L304 160 Z M678 549 L678 206 Q678 97 625.5 44.5 Q573 -8 480 -8 Q430 -8 393.5 0 Q357 8 341 18 L341 165 Q373 157 407 157 Q446 157 465.5 177 Q485 197 485 245 L485 549 L434 549 L434 709 L723 709 L723 549 L678 549 Z " />
<glyph glyph-name="Kcommaaccent" unicode="&#x136;" horiz-adv-x="606" d="M595 0 L408 0 L408 -64 L347 -136 L268 -136 L318 -64 L242 -64 L242 0 L20 0 L20 160 L65 160 L65 549 L20 549 L20 709 L294 709 L294 549 L259 549 L259 409 L365 549 L345 549 L345 709 L593 709 L593 549 L557 549 L429 388 L554 160 L595 160 L595 0 Z M259 302 L259 78 L370 78 L259 302 Z " />
<glyph glyph-name="Lacute" unicode="&#x139;" horiz-adv-x="517" d="M497 0 L20 0 L20 160 L65 160 L65 509 L20 509 L20 669 L89 669 L141 773 L313 773 L240 669 L304 669 L304 509 L259 509 L259 160 L335 160 L345 277 L497 277 L497 0 Z " />
<glyph glyph-name="Lcaron" unicode="&#x13d;" horiz-adv-x="515" d="M20 0 L20 160 L65 160 L65 549 L20 549 L20 709 L304 709 L304 549 L259 549 L259 160 L335 160 L345 277 L497 277 L497 0 L20 0 Z M427 443 L346 443 L414 549 L343 549 L343 709 L497 709 L497 549 L427 443 Z " />
<glyph glyph-name="Lcommaaccent" unicode="&#x13b;" horiz-adv-x="515" d="M339 0 L339 -64 L281 -136 L205 -136 L253 -64 L179 -64 L179 0 L20 0 L20 160 L65 160 L65 549 L20 549 L20 709 L304 709 L304 549 L259 549 L259 160 L335 160 L345 277 L497 277 L497 0 L339 0 Z " />
<glyph glyph-name="Lslash" unicode="&#x141;" horiz-adv-x="515" d="M20 0 L20 160 L65 160 L65 225 L20 205 L20 348 L65 368 L65 549 L20 549 L20 709 L304 709 L304 549 L259 549 L259 447 L374 498 L374 355 L259 304 L259 160 L335 160 L345 277 L497 277 L497 0 L20 0 Z " />
<glyph glyph-name="Ldot" unicode="&#x13f;" horiz-adv-x="515" d="M20 0 L20 160 L65 160 L65 549 L20 549 L20 709 L304 709 L304 549 L259 549 L259 160 L335 160 L345 277 L497 277 L497 0 L20 0 Z M326 336 L326 494 L491 494 L491 336 L326 336 Z " />
<glyph glyph-name="Nacute" unicode="&#x143;" horiz-adv-x="679" d="M662 549 L617 549 L617 0 L422 0 L239 408 L239 160 L284 160 L284 0 L20 0 L20 160 L65 160 L65 549 L20 549 L20 709 L280 709 L315 778 L487 778 L439 709 L662 709 L662 549 Z M398 549 L398 651 L394 645 L313 645 L443 349 L443 549 L398 549 Z " />
<glyph glyph-name="Ncaron" unicode="&#x147;" horiz-adv-x="679" d="M662 549 L617 549 L617 0 L422 0 L239 408 L239 160 L284 160 L284 0 L20 0 L20 160 L65 160 L65 549 L20 549 L20 709 L189 709 L147 778 L288 778 L343 698 L398 778 L539 778 L497 709 L662 709 L662 549 Z M398 549 L398 645 L313 645 L443 349 L443 549 L398 549 Z " />
<glyph glyph-name="Ntilde" unicode="&#xd1;" horiz-adv-x="679" d="M662 549 L617 549 L617 0 L422 0 L239 408 L239 160 L284 160 L284 0 L20 0 L20 160 L65 160 L65 549 L20 549 L20 709 L178 709 Q190 749 217 771 Q244 793 279 793 Q309 793 328.5 785.5 Q348 778 370 765 Q385 756 395 751.5 Q405 747 417 747 Q448 747 450 787 L546 787 Q545 740 532 709 L662 709 L662 549 Z M398 549 L398 653 Q375 660 349 674 Q333 683 323 687 Q313 691 302 691 Q296 691 293 690 L443 349 L443 549 L398 549 Z " />
<glyph glyph-name="Ncommaaccent" unicode="&#x145;" horiz-adv-x="679" d="M662 549 L617 549 L617 0 L435 0 L435 -59 L377 -136 L298 -136 L348 -59 L275 -59 L275 0 L20 0 L20 160 L65 160 L65 549 L20 549 L20 709 L285 709 L443 349 L443 549 L398 549 L398 709 L662 709 L662 549 Z M239 408 L239 160 L284 160 L284 83 L385 83 L239 408 Z " />
<glyph glyph-name="Ograve" unicode="&#xd2;" horiz-adv-x="610" d="M599 334 Q599 169 523.5 77 Q448 -15 305 -15 Q162 -15 86.5 77 Q11 169 11 334 Q11 473 65 561.5 Q119 650 223 675 L154 773 L326 773 L374 678 Q484 657 541.5 567.5 Q599 478 599 334 Z M393 334 Q393 426 372.5 472.5 Q352 519 305 519 Q258 519 237.5 472.5 Q217 426 217 334 Q217 243 237.5 196.5 Q258 150 305 150 Q352 150 372.5 196.5 Q393 243 393 334 Z " />
<glyph glyph-name="Oacute" unicode="&#xd3;" horiz-adv-x="610" d="M599 334 Q599 169 523.5 77 Q448 -15 305 -15 Q162 -15 86.5 77 Q11 169 11 334 Q11 478 68.5 567.5 Q126 657 236 678 L284 773 L456 773 L387 675 Q491 650 545 561.5 Q599 473 599 334 Z M393 334 Q393 426 372.5 472.5 Q352 519 305 519 Q258 519 237.5 472.5 Q217 426 217 334 Q217 243 237.5 196.5 Q258 150 305 150 Q352 150 372.5 196.5 Q393 243 393 334 Z " />
<glyph glyph-name="Ocircumflex" unicode="&#xd4;" horiz-adv-x="610" d="M599 334 Q599 169 523.5 77 Q448 -15 305 -15 Q162 -15 86.5 77 Q11 169 11 334 Q11 448 47 528.5 Q83 609 154 648 L104 648 L189 778 L421 778 L506 648 L456 648 Q527 609 563 528.5 Q599 448 599 334 Z M305 684 Q318 684 340 682 L305 727 L270 682 Q292 684 305 684 Z M393 334 Q393 426 372.5 472.5 Q352 519 305 519 Q258 519 237.5 472.5 Q217 426 217 334 Q217 243 237.5 196.5 Q258 150 305 150 Q352 150 372.5 196.5 Q393 243 393 334 Z " />
<glyph glyph-name="Otilde" unicode="&#xd5;" horiz-adv-x="610" d="M599 334 Q599 169 523.5 77 Q448 -15 305 -15 Q162 -15 86.5 77 Q11 169 11 334 Q11 459 54.5 543.5 Q98 628 183 662 L124 662 Q125 727 155.5 764.5 Q186 802 233 802 Q263 802 282.5 795 Q302 788 325 774 Q340 765 350 760.5 Q360 756 372 756 Q402 756 404 796 L500 796 Q497 684 430 661 Q513 626 556 542 Q599 458 599 334 Z M220 674 Q257 684 305 684 L308 684 Q292 694 280 698.5 Q268 703 255 703 Q228 703 220 674 Z M393 334 Q393 426 372.5 472.5 Q352 519 305 519 Q258 519 237.5 472.5 Q217 426 217 334 Q217 243 237.5 196.5 Q258 150 305 150 Q352 150 372.5 196.5 Q393 243 393 334 Z " />
<glyph glyph-name="Odieresis" unicode="&#xd6;" horiz-adv-x="610" d="M599 334 Q599 169 523.5 77 Q448 -15 305 -15 Q162 -15 86.5 77 Q11 169 11 334 Q11 436 40.5 511.5 Q70 587 127 630 L127 766 L275 766 L275 683 Q285 684 305 684 Q325 684 335 683 L335 766 L483 766 L483 630 Q540 587 569.5 511.5 Q599 436 599 334 Z M393 334 Q393 426 372.5 472.5 Q352 519 305 519 Q258 519 237.5 472.5 Q217 426 217 334 Q217 243 237.5 196.5 Q258 150 305 150 Q352 150 372.5 196.5 Q393 243 393 334 Z " />
<glyph glyph-name="Omacron" unicode="&#x14c;" horiz-adv-x="610" d="M599 334 Q599 169 523.5 77 Q448 -15 305 -15 Q162 -15 86.5 77 Q11 169 11 334 Q11 460 55.5 545 Q100 630 186 663 L186 756 L424 756 L424 663 Q510 630 554.5 545 Q599 460 599 334 Z M393 334 Q393 426 372.5 472.5 Q352 519 305 519 Q258 519 237.5 472.5 Q217 426 217 334 Q217 243 237.5 196.5 Q258 150 305 150 Q352 150 372.5 196.5 Q393 243 393 334 Z " />
<glyph glyph-name="Ohungarumlaut" unicode="&#x150;" horiz-adv-x="610" d="M599 334 Q599 169 523.5 77 Q448 -15 305 -15 Q162 -15 86.5 77 Q11 169 11 334 Q11 446 47 526.5 Q83 607 152 647 L201 773 L345 773 L298 684 L305 684 Q332 684 354 681 L398 773 L542 773 L465 643 Q531 601 565 522.5 Q599 444 599 334 Z M393 334 Q393 426 372.5 472.5 Q352 519 305 519 Q258 519 237.5 472.5 Q217 426 217 334 Q217 243 237.5 196.5 Q258 150 305 150 Q352 150 372.5 196.5 Q393 243 393 334 Z " />
<glyph glyph-name="Oslash" unicode="&#xd8;" horiz-adv-x="624" d="M606 354 Q606 179 532 82 Q458 -15 312 -15 Q229 -15 170 17 L140 -34 L57 10 L96 77 Q18 173 18 354 Q18 529 92 626.5 Q166 724 312 724 Q393 724 454 692 L484 744 L568 699 L528 631 Q606 537 606 354 Z M226 300 L363 536 Q343 559 312 559 Q265 559 244.5 508.5 Q224 458 224 354 Q224 316 226 300 Z M400 354 Q400 392 398 409 L261 173 Q281 150 312 150 Q359 150 379.5 200.5 Q400 251 400 354 Z " />
<glyph glyph-name="OE" unicode="&#x152;" horiz-adv-x="898" d="M726 442 L717 549 L606 549 L606 431 L705 431 L705 286 L606 286 L606 160 L716 160 L726 277 L878 277 L878 0 L412 0 L412 43 Q360 -14 272 -14 Q194 -14 136.5 30 Q79 74 48.5 157 Q18 240 18 354 Q18 468 48.5 551 Q79 634 136.5 678.5 Q194 723 272 723 Q360 723 412 666 L412 709 L878 709 L878 442 L726 442 Z M400 354 Q400 459 380.5 508.5 Q361 558 312 558 Q263 558 243.5 508.5 Q224 459 224 354 Q224 250 243.5 200.5 Q263 151 312 151 Q361 151 380.5 200.5 Q400 250 400 354 Z " />
<glyph glyph-name="Racute" unicode="&#x154;" horiz-adv-x="587" d="M571 0 L402 0 L259 271 L259 160 L299 160 L299 0 L20 0 L20 160 L65 160 L65 509 L20 509 L20 669 L221 669 L273 773 L445 773 L371 668 Q461 659 513.5 605 Q566 551 566 458 Q566 390 536 344.5 Q506 299 453 275 L529 160 L571 160 L571 0 Z M374 442 Q374 476 354.5 492.5 Q335 509 309 509 L259 509 L259 377 L309 377 Q335 377 354.5 392.5 Q374 408 374 442 Z " />
<glyph glyph-name="Rcaron" unicode="&#x158;" horiz-adv-x="587" d="M571 0 L402 0 L259 271 L259 160 L299 160 L299 0 L20 0 L20 160 L65 160 L65 509 L20 509 L20 669 L154 669 L91 773 L232 773 L287 693 L342 773 L483 773 L415 660 Q486 642 526 590.5 Q566 539 566 458 Q566 390 536 344.5 Q506 299 453 275 L529 160 L571 160 L571 0 Z M374 442 Q374 476 354.5 492.5 Q335 509 309 509 L259 509 L259 377 L309 377 Q335 377 354.5 392.5 Q374 408 374 442 Z " />
<glyph glyph-name="Rcommaaccent" unicode="&#x156;" horiz-adv-x="587" d="M571 0 L397 0 L397 -64 L339 -136 L263 -136 L311 -64 L237 -64 L237 0 L20 0 L20 160 L65 160 L65 549 L20 549 L20 709 L338 709 Q441 709 502.5 654.5 Q564 600 564 498 Q564 429 533 383 Q502 337 448 314 L532 160 L571 160 L571 0 Z M307 415 Q333 415 353 431 Q373 447 373 481 Q373 515 353 532 Q333 549 307 549 L259 549 L259 415 L307 415 Z M259 295 L259 160 L299 160 L299 78 L361 78 L259 295 Z " />
<glyph glyph-name="Sacute" unicode="&#x15a;" horiz-adv-x="539" d="M529 192 Q529 95 473 41 Q417 -13 321 -13 Q225 -13 172 34 L170 -3 L20 -3 L20 243 L183 243 Q188 202 213.5 173 Q239 144 280 144 Q306 144 319.5 155 Q333 166 333 187 Q333 206 321 219 Q309 232 282.5 245 Q256 258 198 280 Q99 318 61.5 366 Q24 414 24 486 Q24 570 69.5 623 Q115 676 198 684 L243 773 L415 773 L337 661 Q354 652 366 641 L367 676 L517 676 L517 445 L357 445 Q353 488 328.5 511.5 Q304 535 269 535 Q243 535 229.5 523.5 Q216 512 216 494 Q216 474 235 459 Q254 444 315 422 Q398 392 444 360 Q490 328 509.5 288.5 Q529 249 529 192 Z " />
<glyph glyph-name="Scaron" unicode="&#x160;" horiz-adv-x="539" d="M529 192 Q529 95 473 41 Q417 -13 321 -13 Q225 -13 172 34 L170 -3 L20 -3 L20 243 L183 243 Q188 202 213.5 173 Q239 144 280 144 Q306 144 319.5 155 Q333 166 333 187 Q333 206 321 219 Q309 232 282.5 245 Q256 258 198 280 Q99 318 61.5 366 Q24 414 24 486 Q24 556 56 605 Q88 654 148 674 L88 773 L229 773 L284 693 L339 773 L480 773 L422 676 L517 676 L517 445 L357 445 Q353 488 328.5 511.5 Q304 535 269 535 Q243 535 229.5 523.5 Q216 512 216 494 Q216 474 235 459 Q254 444 315 422 Q398 392 444 360 Q490 328 509.5 288.5 Q529 249 529 192 Z " />
<glyph glyph-name="Scedilla" unicode="&#x15e;" horiz-adv-x="539" d="M350 -7 Q357 -25 357 -46 Q357 -87 326.5 -110.5 Q296 -134 238 -134 Q174 -134 122 -108 L156 -40 Q184 -51 209 -51 Q228 -51 239 -43 Q250 -35 250 -18 Q250 -11 248 1 Q203 14 172 42 L170 -2 L20 -2 L20 261 L183 261 Q188 216 213 184 Q238 152 279 152 Q333 152 333 200 Q333 220 321 234 Q309 248 282 262.5 Q255 277 198 300 Q130 328 92.5 358.5 Q55 389 39.5 425 Q24 461 24 511 Q24 607 77 664 Q130 721 226 721 Q315 721 366 675 L367 711 L517 711 L517 468 L357 468 Q353 515 328 540 Q303 565 269 565 Q243 565 229.5 552 Q216 539 216 520 Q216 499 235 483 Q254 467 315 444 Q398 412 444 380 Q490 348 509.5 307.5 Q529 267 529 207 Q529 114 481 58 Q433 2 350 -7 Z " />
<glyph glyph-name="Scommaaccent" unicode="&#x218;" horiz-adv-x="539" d="M349 -11 L349 -64 L291 -136 L215 -136 L263 -64 L189 -64 L189 23 Q171 38 172 37 L170 -2 L20 -2 L20 256 L183 256 Q188 211 213 179 Q238 147 279 147 Q305 147 319 159 Q333 171 333 195 Q333 215 321 229 Q309 243 282 257.5 Q255 272 198 295 Q99 336 61.5 386 Q24 436 24 511 Q24 572 48.5 619.5 Q73 667 119.5 694 Q166 721 229 721 Q315 721 366 675 L367 711 L517 711 L517 468 L357 468 Q353 515 328 540 Q303 565 269 565 Q243 565 229.5 552 Q216 539 216 520 Q216 499 235 483 Q254 467 315 444 Q398 412 444 379 Q490 346 509.5 304 Q529 262 529 202 Q529 109 480 53 Q431 -3 349 -11 Z " />
<glyph glyph-name="Tcaron" unicode="&#x164;" horiz-adv-x="642" d="M625 360 L479 360 L467 509 L418 509 L418 160 L473 160 L473 0 L169 0 L169 160 L224 160 L224 509 L175 509 L163 360 L17 360 L17 669 L186 669 L123 773 L264 773 L319 693 L374 773 L515 773 L452 669 L625 669 L625 360 Z " />
<glyph glyph-name="uni021A" unicode="&#x21a;" horiz-adv-x="642" d="M625 400 L479 400 L467 549 L418 549 L418 160 L473 160 L473 0 L403 0 L403 -64 L345 -136 L269 -136 L317 -64 L243 -64 L243 0 L169 0 L169 160 L224 160 L224 549 L175 549 L163 400 L17 400 L17 709 L625 709 L625 400 Z " />
<glyph glyph-name="Tbar" unicode="&#x166;" horiz-adv-x="642" d="M505 364 L505 231 L418 231 L418 160 L473 160 L473 0 L169 0 L169 160 L224 160 L224 231 L132 231 L132 364 L224 364 L224 549 L175 549 L163 400 L17 400 L17 709 L625 709 L625 400 L479 400 L467 549 L418 549 L418 364 L505 364 Z " />
<glyph glyph-name="Ugrave" unicode="&#xd9;" horiz-adv-x="615" d="M598 509 L553 509 L553 215 Q553 104 494.5 45 Q436 -14 306 -14 Q177 -14 119.5 44 Q62 102 62 215 L62 509 L17 509 L17 669 L225 669 L152 773 L324 773 L376 669 L598 669 L598 509 Z M329 509 L329 640 L291 640 L291 509 L256 509 L256 225 Q256 197 269 179.5 Q282 162 310 162 Q338 162 351 179.5 Q364 197 364 225 L364 509 L329 509 Z " />
<glyph glyph-name="Uacute" unicode="&#xda;" horiz-adv-x="615" d="M598 509 L553 509 L553 215 Q553 104 494.5 45 Q436 -14 306 -14 Q177 -14 119.5 44 Q62 102 62 215 L62 509 L17 509 L17 669 L227 669 L279 773 L451 773 L378 669 L598 669 L598 509 Z M329 509 L329 640 L291 640 L291 509 L256 509 L256 225 Q256 197 269 179.5 Q282 162 310 162 Q338 162 351 179.5 Q364 197 364 225 L364 509 L329 509 Z " />
<glyph glyph-name="Ucircumflex" unicode="&#xdb;" horiz-adv-x="615" d="M598 509 L553 509 L553 215 Q553 104 494.5 45 Q436 -14 306 -14 Q177 -14 119.5 44 Q62 102 62 215 L62 509 L17 509 L17 669 L130 669 L193 773 L425 773 L488 669 L598 669 L598 509 Z M329 509 L329 669 L344 669 L309 720 L274 669 L291 669 L291 509 L256 509 L256 225 Q256 197 269 179.5 Q282 162 310 162 Q338 162 351 179.5 Q364 197 364 225 L364 509 L329 509 Z " />
<glyph glyph-name="Udieresis" unicode="&#xdc;" horiz-adv-x="615" d="M598 509 L553 509 L553 215 Q553 104 494.5 45 Q436 -14 306 -14 Q177 -14 119.5 44 Q62 102 62 215 L62 509 L17 509 L17 669 L122 669 L122 766 L270 766 L270 669 L293 669 L293 509 L256 509 L256 225 Q256 197 269 179.5 Q282 162 310 162 Q338 162 351 179.5 Q364 197 364 225 L364 509 L327 509 L327 669 L349 669 L349 766 L497 766 L497 669 L598 669 L598 509 Z " />
<glyph glyph-name="Umacron" unicode="&#x16a;" horiz-adv-x="615" d="M598 509 L553 509 L553 215 Q553 104 494.5 45 Q436 -14 306 -14 Q177 -14 119.5 44 Q62 102 62 215 L62 509 L17 509 L17 669 L191 669 L191 756 L423 756 L423 669 L598 669 L598 509 Z M329 509 L329 640 L291 640 L291 509 L256 509 L256 225 Q256 197 269 179.5 Q282 162 310 162 Q338 162 351 179.5 Q364 197 364 225 L364 509 L329 509 Z " />
<glyph glyph-name="Uring" unicode="&#x16e;" horiz-adv-x="615" d="M598 509 L553 509 L553 215 Q553 104 494.5 45 Q436 -14 306 -14 Q177 -14 119.5 44 Q62 102 62 215 L62 509 L17 509 L17 669 L178 669 Q175 681 175 695 Q175 750 213.5 787 Q252 824 310 824 Q368 824 406.5 787 Q445 750 445 695 Q445 681 442 669 L598 669 L598 509 Z M256 695 Q256 673 271 657 Q286 641 310 641 Q334 641 349 657 Q364 673 364 695 Q364 717 349 733 Q334 749 310 749 Q286 749 271 733 Q256 717 256 695 Z M329 509 L329 567 Q323 566 310 566 Q297 566 291 567 L291 509 L256 509 L256 225 Q256 197 269 179.5 Q282 162 310 162 Q338 162 351 179.5 Q364 197 364 225 L364 509 L329 509 Z " />
<glyph glyph-name="Uhungarumlaut" unicode="&#x170;" horiz-adv-x="615" d="M598 509 L553 509 L553 215 Q553 104 494.5 45 Q436 -14 306 -14 Q177 -14 119.5 44 Q62 102 62 215 L62 509 L17 509 L17 669 L162 669 L203 773 L347 773 L291 668 L291 509 L256 509 L256 225 Q256 197 269 179.5 Q282 162 310 162 Q338 162 351 179.5 Q364 197 364 225 L364 509 L329 509 L329 669 L351 669 L400 773 L544 773 L483 669 L598 669 L598 509 Z " />
<glyph glyph-name="Uogonek" unicode="&#x172;" horiz-adv-x="619" d="M556 549 L556 232 Q556 163 539 122 Q522 81 483 52 L453 31 Q432 16 423.5 8 Q415 0 415 -9 Q415 -26 454 -26 Q478 -26 506 -20 L506 -112 Q491 -119 465 -125 Q439 -131 407 -131 Q348 -131 317.5 -110 Q287 -89 287 -52 Q287 -30 293 -13 Q180 -5 121.5 54 Q63 113 63 215 L63 549 L18 549 L18 709 L292 709 L292 549 L257 549 L257 225 Q257 197 270.5 179.5 Q284 162 312 162 Q340 162 353.5 179.5 Q367 197 367 225 L367 549 L332 549 L332 709 L601 709 L601 549 L556 549 Z " />
<glyph glyph-name="Wgrave" unicode="&#x1e80;" horiz-adv-x="919" d="M905 509 L859 509 L743 0 L526 0 L457 345 L383 0 L161 0 L47 509 L14 509 L14 669 L290 669 L290 509 L242 509 L293 221 L376 657 L295 773 L467 773 L519 669 L547 669 L634 231 L685 509 L640 509 L640 669 L905 669 L905 509 Z " />
<glyph glyph-name="Wacute" unicode="&#x1e82;" horiz-adv-x="919" d="M905 509 L859 509 L743 0 L526 0 L457 345 L383 0 L161 0 L47 509 L14 509 L14 669 L290 669 L290 509 L242 509 L293 221 L378 669 L406 669 L458 773 L630 773 L549 658 L634 231 L685 509 L640 509 L640 669 L905 669 L905 509 Z " />
<glyph glyph-name="Wcircumflex" unicode="&#x174;" horiz-adv-x="919" d="M905 509 L859 509 L743 0 L526 0 L457 345 L383 0 L161 0 L47 509 L14 509 L14 669 L282 669 L348 773 L580 773 L646 669 L905 669 L905 509 Z M464 720 L426 669 L503 669 L464 720 Z M372 640 L290 640 L290 509 L242 509 L293 221 L372 640 Z M640 509 L640 640 L553 640 L634 231 L685 509 L640 509 Z " />
<glyph glyph-name="Wdieresis" unicode="&#x1e84;" horiz-adv-x="919" d="M905 509 L859 509 L743 0 L526 0 L457 345 L383 0 L161 0 L47 509 L14 509 L14 669 L282 669 L282 766 L430 766 L430 669 L499 669 L499 766 L647 766 L647 669 L905 669 L905 509 Z M368 615 L300 615 L300 509 L242 509 L293 221 L368 615 Z M630 509 L630 615 L558 615 L634 231 L685 509 L630 509 Z " />
<glyph glyph-name="Ygrave" unicode="&#x1ef2;" horiz-adv-x="580" d="M566 509 L532 509 L390 255 L390 160 L435 160 L435 0 L141 0 L141 160 L186 160 L186 248 L46 509 L14 509 L14 669 L215 669 L142 773 L314 773 L366 669 L566 669 L566 509 Z M322 509 L322 640 L281 640 L281 509 L254 509 L299 414 L345 509 L322 509 Z " />
<glyph glyph-name="Yacute" unicode="&#xdd;" horiz-adv-x="580" d="M566 509 L532 509 L390 255 L390 160 L435 160 L435 0 L141 0 L141 160 L186 160 L186 248 L46 509 L14 509 L14 669 L224 669 L276 773 L448 773 L375 669 L566 669 L566 509 Z M322 509 L322 640 L281 640 L281 509 L254 509 L299 414 L345 509 L322 509 Z " />
<glyph glyph-name="Ycircumflex" unicode="&#x176;" horiz-adv-x="580" d="M566 509 L532 509 L390 255 L390 160 L435 160 L435 0 L141 0 L141 160 L186 160 L186 248 L46 509 L14 509 L14 669 L119 669 L185 773 L417 773 L484 669 L566 669 L566 509 Z M322 509 L322 669 L340 669 L301 720 L263 669 L281 669 L281 509 L254 509 L299 414 L345 509 L322 509 Z " />
<glyph glyph-name="Ydieresis" unicode="&#x178;" horiz-adv-x="580" d="M566 509 L532 509 L390 255 L390 160 L435 160 L435 0 L141 0 L141 160 L186 160 L186 248 L46 509 L14 509 L14 669 L122 669 L122 766 L270 766 L270 669 L281 669 L281 509 L254 509 L299 414 L345 509 L322 509 L322 669 L333 669 L333 766 L481 766 L481 669 L566 669 L566 509 Z " />
<glyph glyph-name="Zacute" unicode="&#x179;" horiz-adv-x="546" d="M249 160 L363 160 L374 277 L526 277 L526 0 L20 0 L20 160 L298 509 L192 509 L182 402 L30 402 L30 669 L216 669 L268 773 L440 773 L367 669 L526 669 L526 509 L249 160 Z " />
<glyph glyph-name="Zcaron" unicode="&#x17d;" horiz-adv-x="546" d="M249 160 L363 160 L374 277 L526 277 L526 0 L20 0 L20 160 L298 509 L192 509 L182 402 L30 402 L30 669 L153 669 L90 773 L231 773 L286 693 L341 773 L482 773 L419 669 L526 669 L526 509 L249 160 Z " />
<glyph glyph-name="Zdotaccent" unicode="&#x17b;" horiz-adv-x="546" d="M249 160 L363 160 L374 277 L526 277 L526 0 L20 0 L20 160 L298 509 L192 509 L182 402 L30 402 L30 669 L196 669 L196 766 L363 766 L363 669 L526 669 L526 509 L249 160 Z " />
<glyph glyph-name="Eng" unicode="&#x14a;" horiz-adv-x="679" d="M617 549 L617 58 Q617 -41 563 -89 Q509 -137 402 -137 Q352 -137 314 -127 L314 -8 Q328 -11 347 -11 Q409 -11 409 25 Q409 38 405 49.5 Q401 61 387 91 L239 408 L239 160 L284 160 L284 0 L20 0 L20 160 L65 160 L65 549 L20 549 L20 709 L285 709 L443 349 L443 549 L398 549 L398 709 L662 709 L662 549 L617 549 Z " />
<glyph glyph-name="Eth" unicode="&#xd0;" horiz-adv-x="623" d="M605 355 Q605 246 570.5 166 Q536 86 473 43 Q410 0 325 0 L20 0 L20 160 L65 160 L65 285 L20 285 L20 435 L65 435 L65 549 L20 549 L20 709 L325 709 Q410 709 473.5 666.5 Q537 624 571 544 Q605 464 605 355 Z M399 354 Q399 549 300 549 L259 549 L259 435 L340 435 L340 285 L259 285 L259 160 L300 160 Q399 160 399 354 Z " />
<glyph glyph-name="Thorn" unicode="&#xde;" horiz-adv-x="584" d="M566 413 Q566 350 538.5 302 Q511 254 461 227.5 Q411 201 345 201 L259 201 L259 160 L299 160 L299 0 L20 0 L20 160 L65 160 L65 549 L20 549 L20 709 L259 709 L259 625 L345 625 Q411 625 461 598.5 Q511 572 538.5 524 Q566 476 566 413 Z M374 413 Q374 439 356.5 452 Q339 465 314 465 L259 465 L259 361 L314 361 Q339 361 356.5 374 Q374 387 374 413 Z " />
<glyph glyph-name="a" unicode="a" horiz-adv-x="629" d="M345 0 L345 160 L386 160 L377 206 L243 206 L233 160 L271 160 L271 0 L14 0 L14 160 L47 160 L149 549 L107 549 L107 709 L523 709 L523 549 L483 549 L583 160 L615 160 L615 0 L345 0 Z M271 346 L349 346 L310 537 L271 346 Z " />
<glyph glyph-name="b" unicode="b" horiz-adv-x="574" d="M568 212 Q568 108 510 54 Q452 0 336 0 L20 0 L20 160 L65 160 L65 549 L20 549 L20 709 L323 709 Q428 709 486.5 662 Q545 615 545 529 Q545 423 454 381 Q509 360 538.5 317 Q568 274 568 212 Z M292 435 Q324 435 342 448 Q360 461 360 494 Q360 549 292 549 L259 549 L259 435 L292 435 Z M373 233 Q373 304 293 304 L259 304 L259 160 L293 160 Q331 160 352 178 Q373 196 373 233 Z " />
<glyph glyph-name="c" unicode="c" horiz-adv-x="569" d="M304 -15 Q158 -15 88 82 Q18 179 18 354 Q18 533 83.5 628 Q149 723 269 723 Q354 723 398 674 L399 711 L549 711 L549 460 L389 460 Q378 559 312 559 Q266 559 245 508.5 Q224 458 224 354 Q224 255 245 206 Q266 157 313 157 Q353 157 371 190.5 Q389 224 393 286 L559 286 Q559 -15 304 -15 Z " />
<glyph glyph-name="d" unicode="d" horiz-adv-x="614" d="M596 355 Q596 246 561.5 166 Q527 86 464 43 Q401 0 316 0 L20 0 L20 160 L65 160 L65 549 L20 549 L20 709 L316 709 Q401 709 464.5 666.5 Q528 624 562 544 Q596 464 596 355 Z M390 354 Q390 549 291 549 L259 549 L259 160 L291 160 Q390 160 390 354 Z " />
<glyph glyph-name="e" unicode="e" horiz-adv-x="551" d="M379 442 L370 549 L259 549 L259 431 L366 431 L366 286 L259 286 L259 160 L369 160 L379 277 L531 277 L531 0 L20 0 L20 160 L65 160 L65 549 L20 549 L20 709 L531 709 L531 442 L379 442 Z " />
<glyph glyph-name="f" unicode="f" horiz-adv-x="532" d="M364 442 L355 549 L259 549 L259 407 L420 407 L420 262 L259 262 L259 160 L304 160 L304 0 L20 0 L20 160 L65 160 L65 549 L20 549 L20 709 L516 709 L516 442 L364 442 Z " />
<glyph glyph-name="g" unicode="g" horiz-adv-x="594" d="M224 354 Q224 247 249 199.5 Q274 152 331 152 Q365 152 388 168 L388 253 L311 253 L311 413 L572 413 L572 0 L405 0 L405 44 Q357 -12 267 -12 Q144 -12 81 85 Q18 182 18 353 Q18 470 50 553 Q82 636 142 679.5 Q202 723 284 723 Q376 723 420 672 L422 711 L572 711 L572 470 L411 470 Q403 517 381.5 538 Q360 559 324 559 Q277 559 250.5 511.5 Q224 464 224 354 Z " />
<glyph glyph-name="h" unicode="h" horiz-adv-x="664" d="M644 160 L644 0 L360 0 L360 160 L405 160 L405 291 L259 291 L259 160 L304 160 L304 0 L20 0 L20 160 L65 160 L65 549 L20 549 L20 709 L304 709 L304 549 L259 549 L259 436 L405 436 L405 549 L360 549 L360 709 L644 709 L644 549 L599 549 L599 160 L644 160 Z " />
<glyph glyph-name="i" unicode="i" horiz-adv-x="324" d="M304 160 L304 0 L20 0 L20 160 L65 160 L65 549 L20 549 L20 709 L304 709 L304 549 L259 549 L259 160 L304 160 Z " />
<glyph glyph-name="j" unicode="j" horiz-adv-x="416" d="M354 549 L354 206 Q354 97 301.5 44.5 Q249 -8 156 -8 Q106 -8 69.5 0 Q33 8 17 18 L17 165 Q49 157 83 157 Q122 157 141.5 177 Q161 197 161 245 L161 549 L110 549 L110 709 L399 709 L399 549 L354 549 Z " />
<glyph glyph-name="k" unicode="k" horiz-adv-x="611" d="M414 0 L259 302 L259 160 L294 160 L294 0 L20 0 L20 160 L65 160 L65 549 L20 549 L20 709 L294 709 L294 549 L259 549 L259 409 L365 549 L345 549 L345 709 L593 709 L593 549 L557 549 L429 388 L554 160 L595 160 L595 0 L414 0 Z " />
<glyph glyph-name="l" unicode="l" horiz-adv-x="515" d="M20 0 L20 160 L65 160 L65 549 L20 549 L20 709 L304 709 L304 549 L259 549 L259 160 L335 160 L345 277 L497 277 L497 0 L20 0 Z " />
<glyph glyph-name="m" unicode="m" horiz-adv-x="813" d="M793 160 L793 0 L529 0 L529 160 L569 160 L569 505 L451 0 L337 0 L224 507 L224 160 L264 160 L264 0 L20 0 L20 160 L60 160 L60 549 L20 549 L20 709 L346 709 L409 391 L477 709 L793 709 L793 549 L753 549 L753 160 L793 160 Z " />
<glyph glyph-name="n" unicode="n" horiz-adv-x="679" d="M617 549 L617 0 L422 0 L239 408 L239 160 L284 160 L284 0 L20 0 L20 160 L65 160 L65 549 L20 549 L20 709 L285 709 L443 349 L443 549 L398 549 L398 709 L662 709 L662 549 L617 549 Z " />
<glyph glyph-name="o" unicode="o" horiz-adv-x="624" d="M606 354 Q606 179 532 82 Q458 -15 312 -15 Q166 -15 92 82 Q18 179 18 354 Q18 529 92 626.5 Q166 724 312 724 Q458 724 532 626.5 Q606 529 606 354 Z M224 354 Q224 251 244.5 200.5 Q265 150 312 150 Q359 150 379.5 200.5 Q400 251 400 354 Q400 458 379.5 508.5 Q359 559 312 559 Q265 559 244.5 508.5 Q224 458 224 354 Z " />
<glyph glyph-name="p" unicode="p" horiz-adv-x="571" d="M566 482 Q566 414 537.5 362.5 Q509 311 457.5 283 Q406 255 340 255 L259 255 L259 160 L309 160 L309 0 L20 0 L20 160 L65 160 L65 549 L20 549 L20 709 L340 709 Q406 709 457.5 681 Q509 653 537.5 601.5 Q566 550 566 482 Z M374 482 Q374 516 354.5 532.5 Q335 549 309 549 L259 549 L259 415 L309 415 Q335 415 354.5 431.5 Q374 448 374 482 Z " />
<glyph glyph-name="q" unicode="q" horiz-adv-x="624" d="M523 27 Q556 27 585 35 L585 -91 Q569 -99 543.5 -104 Q518 -109 489 -109 Q355 -109 306 -15 Q163 -13 90.5 84 Q18 181 18 354 Q18 529 92 626.5 Q166 724 312 724 Q458 724 532 626.5 Q606 529 606 354 Q606 240 574.5 158 Q543 76 480 32 Q502 27 523 27 Z M312 150 Q359 150 379.5 200.5 Q400 251 400 354 Q400 458 379.5 508.5 Q359 559 312 559 Q265 559 244.5 508.5 Q224 458 224 354 Q224 251 244.5 200.5 Q265 150 312 150 Z " />
<glyph glyph-name="r" unicode="r" horiz-adv-x="587" d="M397 0 L259 295 L259 160 L299 160 L299 0 L20 0 L20 160 L65 160 L65 549 L20 549 L20 709 L338 709 Q441 709 502.5 654.5 Q564 600 564 498 Q564 429 533 383 Q502 337 448 314 L532 160 L571 160 L571 0 L397 0 Z M307 415 Q333 415 353 431 Q373 447 373 481 Q373 515 353 532 Q333 549 307 549 L259 549 L259 415 L307 415 Z " />
<glyph glyph-name="s" unicode="s" horiz-adv-x="539" d="M529 202 Q529 101 471.5 44 Q414 -13 320 -13 Q225 -13 172 37 L170 -2 L20 -2 L20 256 L183 256 Q188 211 213 179 Q238 147 279 147 Q305 147 319 159 Q333 171 333 195 Q333 215 321 229 Q309 243 282 257.5 Q255 272 198 295 Q99 336 61.5 386 Q24 436 24 511 Q24 572 48.5 619.5 Q73 667 119.5 694 Q166 721 229 721 Q315 721 366 675 L367 711 L517 711 L517 468 L357 468 Q353 515 328 540 Q303 565 269 565 Q243 565 229.5 552 Q216 539 216 520 Q216 499 235 483 Q254 467 315 444 Q398 412 444 379 Q490 346 509.5 304 Q529 262 529 202 Z " />
<glyph glyph-name="t" unicode="t" horiz-adv-x="642" d="M479 400 L467 549 L418 549 L418 160 L473 160 L473 0 L169 0 L169 160 L224 160 L224 549 L175 549 L163 400 L17 400 L17 709 L625 709 L625 400 L479 400 Z " />
<glyph glyph-name="u" unicode="u" horiz-adv-x="624" d="M562 549 L562 228 Q562 105 501.5 45.5 Q441 -14 308 -14 Q176 -14 119 44 Q62 102 62 228 L62 549 L17 549 L17 709 L291 709 L291 549 L256 549 L256 225 Q256 195 269.5 177.5 Q283 160 312 160 Q341 160 354.5 177.5 Q368 195 368 225 L368 549 L333 549 L333 709 L607 709 L607 549 L562 549 Z " />
<glyph glyph-name="v" unicode="v" horiz-adv-x="622" d="M432 0 L189 0 L46 549 L14 549 L14 709 L289 709 L289 549 L249 549 L320 215 L391 549 L353 549 L353 709 L608 709 L608 549 L577 549 L432 0 Z " />
<glyph glyph-name="w" unicode="w" horiz-adv-x="919" d="M743 0 L521 0 L457 347 L388 0 L161 0 L46 549 L14 549 L14 709 L290 709 L290 549 L242 549 L293 252 L376 709 L549 709 L635 268 L685 549 L640 549 L640 709 L905 709 L905 549 L860 549 L743 0 Z " />
<glyph glyph-name="x" unicode="x" horiz-adv-x="605" d="M559 160 L589 160 L589 0 L319 0 L319 160 L350 160 L297 265 L243 160 L273 160 L273 0 L16 0 L16 160 L44 160 L175 359 L46 549 L16 549 L16 709 L288 709 L288 549 L259 549 L308 461 L359 549 L331 549 L331 709 L589 709 L589 549 L560 549 L431 366 L559 160 Z " />
<glyph glyph-name="y" unicode="y" horiz-adv-x="580" d="M435 160 L435 0 L141 0 L141 160 L186 160 L186 288 L46 549 L14 549 L14 709 L279 709 L279 549 L254 549 L299 454 L345 549 L324 549 L324 709 L566 709 L566 549 L532 549 L390 295 L390 160 L435 160 Z " />
<glyph glyph-name="z" unicode="z" horiz-adv-x="553" d="M381 277 L533 277 L533 0 L20 0 L20 162 L302 549 L192 549 L182 442 L30 442 L30 709 L533 709 L533 547 L251 160 L370 160 L381 277 Z " />
<glyph glyph-name="agrave" unicode="&#xe0;" horiz-adv-x="622" d="M608 0 L338 0 L338 160 L379 160 L370 207 L236 207 L226 160 L264 160 L264 0 L14 0 L14 160 L45 160 L136 509 L94 509 L94 669 L224 669 L151 773 L323 773 L375 669 L530 669 L530 509 L492 509 L577 160 L608 160 L608 0 Z M304 526 L266 347 L341 347 L304 526 Z " />
<glyph glyph-name="aacute" unicode="&#xe1;" horiz-adv-x="622" d="M608 0 L338 0 L338 160 L379 160 L370 207 L236 207 L226 160 L264 160 L264 0 L14 0 L14 160 L45 160 L136 509 L94 509 L94 669 L246 669 L298 773 L470 773 L397 669 L530 669 L530 509 L492 509 L577 160 L608 160 L608 0 Z M304 526 L266 347 L341 347 L304 526 Z " />
<glyph glyph-name="acircumflex" unicode="&#xe2;" horiz-adv-x="622" d="M608 0 L338 0 L338 160 L379 160 L370 207 L236 207 L226 160 L264 160 L264 0 L14 0 L14 160 L45 160 L136 509 L94 509 L94 669 L133 669 L196 773 L428 773 L491 669 L530 669 L530 509 L492 509 L577 160 L608 160 L608 0 Z M347 669 L312 720 L277 669 L347 669 Z M304 526 L266 347 L341 347 L304 526 Z " />
<glyph glyph-name="atilde" unicode="&#xe3;" horiz-adv-x="622" d="M608 0 L338 0 L338 160 L379 160 L370 207 L236 207 L226 160 L264 160 L264 0 L14 0 L14 160 L45 160 L136 509 L94 509 L94 669 L130 669 Q134 729 164.5 763.5 Q195 798 239 798 Q269 798 288.5 790.5 Q308 783 330 770 Q345 761 355 756.5 Q365 752 377 752 Q408 752 410 792 L506 792 Q503 702 459 669 L530 669 L530 509 L492 509 L577 160 L608 160 L608 0 Z M262 697 Q234 697 228 669 L331 669 Q322 674 309 681.5 Q296 689 285 693 Q274 697 262 697 Z M304 526 L266 347 L341 347 L304 526 Z " />
<glyph glyph-name="adieresis" unicode="&#xe4;" horiz-adv-x="622" d="M608 0 L338 0 L338 160 L379 160 L370 207 L236 207 L226 160 L264 160 L264 0 L14 0 L14 160 L45 160 L136 509 L94 509 L94 669 L133 669 L133 766 L281 766 L281 669 L342 669 L342 766 L490 766 L490 669 L530 669 L530 509 L492 509 L577 160 L608 160 L608 0 Z M304 526 L266 347 L341 347 L304 526 Z " />
<glyph glyph-name="amacron" unicode="&#x101;" horiz-adv-x="622" d="M608 0 L338 0 L338 160 L379 160 L370 207 L236 207 L226 160 L264 160 L264 0 L14 0 L14 160 L45 160 L136 509 L94 509 L94 669 L183 669 L183 756 L435 756 L435 669 L530 669 L530 509 L492 509 L577 160 L608 160 L608 0 Z M304 526 L266 347 L341 347 L304 526 Z " />
<glyph glyph-name="abreve" unicode="&#x103;" horiz-adv-x="622" d="M608 0 L338 0 L338 160 L379 160 L370 207 L236 207 L226 160 L264 160 L264 0 L14 0 L14 160 L45 160 L136 509 L94 509 L94 669 L170 669 Q135 707 135 766 L255 766 Q255 736 269.5 719.5 Q284 703 310 703 Q336 703 350.5 719.5 Q365 736 365 766 L485 766 Q485 707 450 669 L530 669 L530 509 L492 509 L577 160 L608 160 L608 0 Z M304 526 L266 347 L341 347 L304 526 Z " />
<glyph glyph-name="aring" unicode="&#xe5;" horiz-adv-x="622" d="M608 0 L338 0 L338 160 L379 160 L370 207 L236 207 L226 160 L264 160 L264 0 L14 0 L14 160 L45 160 L136 509 L96 509 L96 669 L179 669 Q175 682 175 700 Q175 755 213.5 792 Q252 829 310 829 Q368 829 406.5 792 Q445 755 445 700 Q445 682 441 669 L528 669 L528 509 L492 509 L577 160 L608 160 L608 0 Z M256 700 Q256 678 271 662 Q286 646 310 646 Q334 646 349 662 Q364 678 364 700 Q364 722 349 738 Q334 754 310 754 Q286 754 271 738 Q256 722 256 700 Z M305 526 L266 347 L341 347 L305 526 Z " />
<glyph glyph-name="aogonek" unicode="&#x105;" horiz-adv-x="629" d="M524 -10 Q524 -19 531 -23.5 Q538 -28 559 -28 Q587 -28 615 -22 L615 -114 Q601 -121 573.5 -127 Q546 -133 516 -133 Q457 -133 426.5 -111 Q396 -89 396 -49 Q396 -23 410 0 L345 0 L345 160 L386 160 L377 206 L243 206 L233 160 L271 160 L271 0 L14 0 L14 160 L47 160 L149 549 L107 549 L107 709 L523 709 L523 549 L483 549 L583 160 L615 160 L615 40 Q568 26 546 15 Q524 4 524 -10 Z M271 346 L349 346 L310 537 L271 346 Z " />
<glyph glyph-name="ae" unicode="&#xe6;" horiz-adv-x="857" d="M687 442 L678 549 L567 549 L567 431 L666 431 L666 286 L567 286 L567 160 L677 160 L687 277 L839 277 L839 0 L328 0 L328 160 L373 160 L373 207 L259 207 L244 160 L264 160 L264 0 L14 0 L14 160 L54 160 L201 549 L149 549 L149 709 L839 709 L839 442 L687 442 Z M304 347 L373 347 L373 560 L304 347 Z " />
<glyph glyph-name="cacute" unicode="&#x107;" horiz-adv-x="562" d="M297 -15 Q151 -15 81 79 Q11 173 11 336 Q11 491 65.5 580.5 Q120 670 222 684 L267 773 L439 773 L363 664 Q383 650 391 642 L392 676 L542 676 L542 437 L382 437 Q371 526 305 526 Q259 526 238 478.5 Q217 431 217 336 Q217 245 238 199.5 Q259 154 306 154 Q346 154 364 185 Q382 216 386 271 L552 271 Q552 -15 297 -15 Z " />
<glyph glyph-name="ccaron" unicode="&#x10d;" horiz-adv-x="562" d="M297 -15 Q151 -15 81 79 Q11 173 11 336 Q11 472 53 557.5 Q95 643 175 672 L114 773 L255 773 L310 693 L365 773 L506 773 L448 676 L542 676 L542 437 L382 437 Q371 526 305 526 Q259 526 238 478.5 Q217 431 217 336 Q217 245 238 199.5 Q259 154 306 154 Q346 154 364 185 Q382 216 386 271 L552 271 Q552 -15 297 -15 Z " />
<glyph glyph-name="cdotaccent" unicode="&#x10b;" horiz-adv-x="562" d="M297 -15 Q151 -15 81 79 Q11 173 11 336 Q11 486 62.5 574.5 Q114 663 210 682 L210 766 L377 766 L377 654 L391 642 L392 676 L542 676 L542 437 L382 437 Q371 526 305 526 Q259 526 238 478.5 Q217 431 217 336 Q217 245 238 199.5 Q259 154 306 154 Q346 154 364 185 Q382 216 386 271 L552 271 Q552 -15 297 -15 Z " />
<glyph glyph-name="ccedilla" unicode="&#xe7;" horiz-adv-x="569" d="M371 -1 Q380 -26 380 -46 Q380 -87 349.5 -110.5 Q319 -134 261 -134 Q197 -134 145 -108 L179 -40 Q207 -51 232 -51 Q251 -51 262 -43 Q273 -35 273 -18 Q273 -10 272 -6 Q142 5 80 100.5 Q18 196 18 358 Q18 536 83 629.5 Q148 723 269 723 Q354 723 398 674 L399 711 L549 711 L549 460 L389 460 Q378 559 312 559 Q265 559 244.5 510 Q224 461 224 358 Q224 262 245 213.5 Q266 165 313 165 Q353 165 371 198.5 Q389 232 393 294 L559 294 Q559 36 371 -1 Z " />
<glyph glyph-name="dcaron" unicode="&#x10f;" horiz-adv-x="614" d="M596 335 Q596 173 521.5 86.5 Q447 0 316 0 L20 0 L20 160 L65 160 L65 509 L20 509 L20 669 L153 669 L90 773 L231 773 L286 693 L341 773 L482 773 L411 655 Q499 627 547.5 546 Q596 465 596 335 Z M390 334 Q390 432 365.5 470.5 Q341 509 291 509 L259 509 L259 160 L291 160 Q341 160 365.5 198 Q390 236 390 334 Z " />
<glyph glyph-name="egrave" unicode="&#xe8;" horiz-adv-x="551" d="M259 411 L358 411 L358 266 L259 266 L259 160 L369 160 L379 257 L531 257 L531 0 L20 0 L20 160 L65 160 L65 509 L20 509 L20 669 L202 669 L129 773 L301 773 L353 669 L531 669 L531 422 L379 422 L370 509 L259 509 L259 411 Z " />
<glyph glyph-name="eacute" unicode="&#xe9;" horiz-adv-x="551" d="M259 411 L358 411 L358 266 L259 266 L259 160 L369 160 L379 257 L531 257 L531 0 L20 0 L20 160 L65 160 L65 509 L20 509 L20 669 L215 669 L267 773 L439 773 L366 669 L531 669 L531 422 L379 422 L370 509 L259 509 L259 411 Z " />
<glyph glyph-name="ecircumflex" unicode="&#xea;" horiz-adv-x="551" d="M259 411 L358 411 L358 266 L259 266 L259 160 L369 160 L379 257 L531 257 L531 0 L20 0 L20 160 L65 160 L65 509 L20 509 L20 669 L116 669 L179 773 L411 773 L474 669 L531 669 L531 422 L379 422 L370 509 L259 509 L259 411 Z M330 669 L295 720 L260 669 L330 669 Z " />
<glyph glyph-name="ecaron" unicode="&#x11b;" horiz-adv-x="551" d="M259 411 L358 411 L358 266 L259 266 L259 160 L369 160 L379 257 L531 257 L531 0 L20 0 L20 160 L65 160 L65 509 L20 509 L20 669 L158 669 L95 773 L236 773 L291 693 L346 773 L487 773 L424 669 L531 669 L531 422 L379 422 L370 509 L259 509 L259 411 Z " />
<glyph glyph-name="edieresis" unicode="&#xeb;" horiz-adv-x="551" d="M259 411 L358 411 L358 266 L259 266 L259 160 L369 160 L379 257 L531 257 L531 0 L20 0 L20 160 L65 160 L65 509 L20 509 L20 669 L103 669 L103 766 L251 766 L251 669 L312 669 L312 766 L460 766 L460 669 L531 669 L531 422 L379 422 L370 509 L259 509 L259 411 Z " />
<glyph glyph-name="emacron" unicode="&#x113;" horiz-adv-x="551" d="M259 411 L358 411 L358 266 L259 266 L259 160 L369 160 L379 257 L531 257 L531 0 L20 0 L20 160 L65 160 L65 509 L20 509 L20 669 L160 669 L160 756 L412 756 L412 669 L531 669 L531 422 L379 422 L370 509 L259 509 L259 411 Z " />
<glyph glyph-name="edotaccent" unicode="&#x117;" horiz-adv-x="551" d="M259 411 L358 411 L358 266 L259 266 L259 160 L369 160 L379 257 L531 257 L531 0 L20 0 L20 160 L65 160 L65 509 L20 509 L20 669 L201 669 L201 766 L368 766 L368 669 L531 669 L531 422 L379 422 L370 509 L259 509 L259 411 Z " />
<glyph glyph-name="eogonek" unicode="&#x119;" horiz-adv-x="551" d="M366 431 L366 286 L259 286 L259 160 L369 160 L379 277 L531 277 L531 40 Q484 26 462 15 Q440 4 440 -10 Q440 -19 447 -23.5 Q454 -28 475 -28 Q503 -28 531 -22 L531 -114 Q517 -121 489.5 -127 Q462 -133 432 -133 Q373 -133 342.5 -111 Q312 -89 312 -49 Q312 -23 326 0 L20 0 L20 160 L65 160 L65 549 L20 549 L20 709 L531 709 L531 442 L379 442 L370 549 L259 549 L259 431 L366 431 Z " />
<glyph glyph-name="gbreve" unicode="&#x11f;" horiz-adv-x="587" d="M217 334 Q217 237 241.5 194.5 Q266 152 323 152 Q357 152 380 166 L381 237 L304 237 L304 394 L565 394 L565 0 L398 0 L398 45 Q352 -11 260 -11 Q137 -11 74 80.5 Q11 172 11 333 Q11 465 57.5 551 Q104 637 189 666 Q151 704 151 766 L271 766 Q271 736 285.5 719.5 Q300 703 326 703 Q352 703 366.5 719.5 Q381 736 381 766 L501 766 Q501 709 467 670 L565 670 L565 443 L404 443 Q396 484 375 503 Q354 522 319 522 Q272 522 244.5 477.5 Q217 433 217 334 Z " />
<glyph glyph-name="gdotaccent" unicode="&#x121;" horiz-adv-x="587" d="M217 334 Q217 237 241.5 194.5 Q266 152 323 152 Q357 152 380 166 L381 237 L304 237 L304 394 L565 394 L565 0 L398 0 L398 45 Q352 -11 260 -11 Q137 -11 74 80.5 Q11 172 11 333 Q11 479 67 568 Q123 657 226 676 L226 766 L393 766 L393 650 L413 632 L415 670 L565 670 L565 443 L404 443 Q396 484 375 503 Q354 522 319 522 Q272 522 244.5 477.5 Q217 433 217 334 Z " />
<glyph glyph-name="gcommaaccent" unicode="&#x123;" horiz-adv-x="594" d="M224 354 Q224 247 249 199.5 Q274 152 331 152 Q365 152 388 168 L388 253 L311 253 L311 413 L572 413 L572 0 L423 0 L423 -64 L365 -136 L289 -136 L337 -64 L263 -64 L263 -12 Q142 -11 80 86.5 Q18 184 18 353 Q18 470 50 553 Q82 636 142 679.5 Q202 723 284 723 Q376 723 420 672 L422 711 L572 711 L572 470 L411 470 Q403 517 381.5 538 Q360 559 324 559 Q277 559 250.5 511.5 Q224 464 224 354 Z " />
<glyph glyph-name="hbar" unicode="&#x127;" horiz-adv-x="664" d="M599 526 L644 526 L644 441 L599 441 L599 160 L644 160 L644 0 L360 0 L360 160 L405 160 L405 271 L259 271 L259 160 L304 160 L304 0 L20 0 L20 160 L65 160 L65 441 L20 441 L20 526 L65 526 L65 549 L20 549 L20 709 L304 709 L304 549 L259 549 L259 526 L405 526 L405 549 L360 549 L360 709 L644 709 L644 549 L599 549 L599 526 Z M259 441 L259 416 L405 416 L405 441 L259 441 Z " />
<glyph glyph-name="igrave" unicode="&#xec;" horiz-adv-x="324" d="M259 160 L304 160 L304 0 L20 0 L20 160 L65 160 L65 509 L20 509 L20 669 L83 669 L10 773 L182 773 L234 669 L304 669 L304 509 L259 509 L259 160 Z " />
<glyph glyph-name="iacute" unicode="&#xed;" horiz-adv-x="324" d="M304 669 L304 509 L259 509 L259 160 L304 160 L304 0 L20 0 L20 160 L65 160 L65 509 L20 509 L20 669 L90 669 L142 773 L314 773 L241 669 L304 669 Z " />
<glyph glyph-name="icircumflex" unicode="&#xee;" horiz-adv-x="324" d="M259 160 L304 160 L304 0 L20 0 L20 160 L65 160 L65 509 L20 509 L20 640 L-34 640 L46 773 L278 773 L358 640 L304 640 L304 509 L259 509 L259 160 Z M127 669 L197 669 L162 720 L127 669 Z " />
<glyph glyph-name="idieresis" unicode="&#xef;" horiz-adv-x="324" d="M304 615 L304 509 L259 509 L259 160 L304 160 L304 0 L20 0 L20 160 L65 160 L65 509 L20 509 L20 615 L-6 615 L-6 766 L142 766 L142 669 L182 669 L182 766 L330 766 L330 615 L304 615 Z " />
<glyph glyph-name="imacron" unicode="&#x12b;" horiz-adv-x="324" d="M259 160 L304 160 L304 0 L20 0 L20 160 L65 160 L65 509 L20 509 L20 669 L51 669 L51 756 L273 756 L273 669 L304 669 L304 509 L259 509 L259 160 Z " />
<glyph glyph-name="iogonek" unicode="&#x12f;" horiz-adv-x="324" d="M304 160 L304 40 Q256 28 234.5 16 Q213 4 213 -10 Q213 -19 220 -23.5 Q227 -28 248 -28 Q276 -28 304 -22 L304 -114 Q290 -121 262.5 -127 Q235 -133 205 -133 Q146 -133 115.5 -111 Q85 -89 85 -49 Q85 -23 99 0 L20 0 L20 160 L65 160 L65 549 L20 549 L20 709 L304 709 L304 549 L259 549 L259 160 L304 160 Z " />
<glyph glyph-name="dotlessi" unicode="&#x131;" horiz-adv-x="324" d="M304 160 L304 0 L20 0 L20 160 L65 160 L65 549 L20 549 L20 709 L304 709 L304 549 L259 549 L259 160 L304 160 Z " />
<glyph glyph-name="ij" unicode="&#x133;" horiz-adv-x="740" d="M304 160 L304 0 L20 0 L20 160 L65 160 L65 549 L20 549 L20 709 L304 709 L304 549 L259 549 L259 160 L304 160 Z M678 549 L678 206 Q678 97 625.5 44.5 Q573 -8 480 -8 Q430 -8 393.5 0 Q357 8 341 18 L341 165 Q373 157 407 157 Q446 157 465.5 177 Q485 197 485 245 L485 549 L434 549 L434 709 L723 709 L723 549 L678 549 Z " />
<glyph glyph-name="kcommaaccent" unicode="&#x137;" horiz-adv-x="606" d="M595 0 L408 0 L408 -64 L347 -136 L268 -136 L318 -64 L242 -64 L242 0 L20 0 L20 160 L65 160 L65 549 L20 549 L20 709 L294 709 L294 549 L259 549 L259 409 L365 549 L345 549 L345 709 L593 709 L593 549 L557 549 L429 388 L554 160 L595 160 L595 0 Z M259 302 L259 78 L370 78 L259 302 Z " />
<glyph glyph-name="lacute" unicode="&#x13a;" horiz-adv-x="517" d="M497 0 L20 0 L20 160 L65 160 L65 509 L20 509 L20 669 L89 669 L141 773 L313 773 L240 669 L304 669 L304 509 L259 509 L259 160 L335 160 L345 277 L497 277 L497 0 Z " />
<glyph glyph-name="lcaron" unicode="&#x13e;" horiz-adv-x="515" d="M20 0 L20 160 L65 160 L65 549 L20 549 L20 709 L304 709 L304 549 L259 549 L259 160 L335 160 L345 277 L497 277 L497 0 L20 0 Z M427 443 L346 443 L414 549 L343 549 L343 709 L497 709 L497 549 L427 443 Z " />
<glyph glyph-name="lcommaaccent" unicode="&#x13c;" horiz-adv-x="515" d="M339 0 L339 -64 L281 -136 L205 -136 L253 -64 L179 -64 L179 0 L20 0 L20 160 L65 160 L65 549 L20 549 L20 709 L304 709 L304 549 L259 549 L259 160 L335 160 L345 277 L497 277 L497 0 L339 0 Z " />
<glyph glyph-name="lslash" unicode="&#x142;" horiz-adv-x="515" d="M20 0 L20 160 L65 160 L65 225 L20 205 L20 348 L65 368 L65 549 L20 549 L20 709 L304 709 L304 549 L259 549 L259 447 L374 498 L374 355 L259 304 L259 160 L335 160 L345 277 L497 277 L497 0 L20 0 Z " />
<glyph glyph-name="ldot" unicode="&#x140;" horiz-adv-x="515" d="M20 0 L20 160 L65 160 L65 549 L20 549 L20 709 L304 709 L304 549 L259 549 L259 160 L335 160 L345 277 L497 277 L497 0 L20 0 Z M326 336 L326 494 L491 494 L491 336 L326 336 Z " />
<glyph glyph-name="nacute" unicode="&#x144;" horiz-adv-x="679" d="M662 549 L617 549 L617 0 L422 0 L239 408 L239 160 L284 160 L284 0 L20 0 L20 160 L65 160 L65 549 L20 549 L20 709 L280 709 L315 778 L487 778 L439 709 L662 709 L662 549 Z M398 549 L398 651 L394 645 L313 645 L443 349 L443 549 L398 549 Z " />
<glyph glyph-name="ncaron" unicode="&#x148;" horiz-adv-x="679" d="M662 549 L617 549 L617 0 L422 0 L239 408 L239 160 L284 160 L284 0 L20 0 L20 160 L65 160 L65 549 L20 549 L20 709 L189 709 L147 778 L288 778 L343 698 L398 778 L539 778 L497 709 L662 709 L662 549 Z M398 549 L398 645 L313 645 L443 349 L443 549 L398 549 Z " />
<glyph glyph-name="ntilde" unicode="&#xf1;" horiz-adv-x="679" d="M662 549 L617 549 L617 0 L422 0 L239 408 L239 160 L284 160 L284 0 L20 0 L20 160 L65 160 L65 549 L20 549 L20 709 L178 709 Q190 749 217 771 Q244 793 279 793 Q309 793 328.5 785.5 Q348 778 370 765 Q385 756 395 751.5 Q405 747 417 747 Q448 747 450 787 L546 787 Q545 740 532 709 L662 709 L662 549 Z M398 549 L398 653 Q375 660 349 674 Q333 683 323 687 Q313 691 302 691 Q296 691 293 690 L443 349 L443 549 L398 549 Z " />
<glyph glyph-name="ncommaaccent" unicode="&#x146;" horiz-adv-x="679" d="M662 549 L617 549 L617 0 L435 0 L435 -59 L377 -136 L298 -136 L348 -59 L275 -59 L275 0 L20 0 L20 160 L65 160 L65 549 L20 549 L20 709 L285 709 L443 349 L443 549 L398 549 L398 709 L662 709 L662 549 Z M239 408 L239 160 L284 160 L284 83 L385 83 L239 408 Z " />
<glyph glyph-name="ograve" unicode="&#xf2;" horiz-adv-x="610" d="M599 334 Q599 169 523.5 77 Q448 -15 305 -15 Q162 -15 86.5 77 Q11 169 11 334 Q11 473 65 561.5 Q119 650 223 675 L154 773 L326 773 L374 678 Q484 657 541.5 567.5 Q599 478 599 334 Z M393 334 Q393 426 372.5 472.5 Q352 519 305 519 Q258 519 237.5 472.5 Q217 426 217 334 Q217 243 237.5 196.5 Q258 150 305 150 Q352 150 372.5 196.5 Q393 243 393 334 Z " />
<glyph glyph-name="oacute" unicode="&#xf3;" horiz-adv-x="610" d="M599 334 Q599 169 523.5 77 Q448 -15 305 -15 Q162 -15 86.5 77 Q11 169 11 334 Q11 478 68.5 567.5 Q126 657 236 678 L284 773 L456 773 L387 675 Q491 650 545 561.5 Q599 473 599 334 Z M393 334 Q393 426 372.5 472.5 Q352 519 305 519 Q258 519 237.5 472.5 Q217 426 217 334 Q217 243 237.5 196.5 Q258 150 305 150 Q352 150 372.5 196.5 Q393 243 393 334 Z " />
<glyph glyph-name="ocircumflex" unicode="&#xf4;" horiz-adv-x="610" d="M599 334 Q599 169 523.5 77 Q448 -15 305 -15 Q162 -15 86.5 77 Q11 169 11 334 Q11 448 47 528.5 Q83 609 154 648 L104 648 L189 778 L421 778 L506 648 L456 648 Q527 609 563 528.5 Q599 448 599 334 Z M305 684 Q318 684 340 682 L305 727 L270 682 Q292 684 305 684 Z M393 334 Q393 426 372.5 472.5 Q352 519 305 519 Q258 519 237.5 472.5 Q217 426 217 334 Q217 243 237.5 196.5 Q258 150 305 150 Q352 150 372.5 196.5 Q393 243 393 334 Z " />
<glyph glyph-name="otilde" unicode="&#xf5;" horiz-adv-x="610" d="M599 334 Q599 169 523.5 77 Q448 -15 305 -15 Q162 -15 86.5 77 Q11 169 11 334 Q11 459 54.5 543.5 Q98 628 183 662 L124 662 Q125 727 155.5 764.5 Q186 802 233 802 Q263 802 282.5 795 Q302 788 325 774 Q340 765 350 760.5 Q360 756 372 756 Q402 756 404 796 L500 796 Q497 684 430 661 Q513 626 556 542 Q599 458 599 334 Z M220 674 Q257 684 305 684 L308 684 Q292 694 280 698.5 Q268 703 255 703 Q228 703 220 674 Z M393 334 Q393 426 372.5 472.5 Q352 519 305 519 Q258 519 237.5 472.5 Q217 426 217 334 Q217 243 237.5 196.5 Q258 150 305 150 Q352 150 372.5 196.5 Q393 243 393 334 Z " />
<glyph glyph-name="odieresis" unicode="&#xf6;" horiz-adv-x="610" d="M599 334 Q599 169 523.5 77 Q448 -15 305 -15 Q162 -15 86.5 77 Q11 169 11 334 Q11 436 40.5 511.5 Q70 587 127 630 L127 766 L275 766 L275 683 Q285 684 305 684 Q325 684 335 683 L335 766 L483 766 L483 630 Q540 587 569.5 511.5 Q599 436 599 334 Z M393 334 Q393 426 372.5 472.5 Q352 519 305 519 Q258 519 237.5 472.5 Q217 426 217 334 Q217 243 237.5 196.5 Q258 150 305 150 Q352 150 372.5 196.5 Q393 243 393 334 Z " />
<glyph glyph-name="omacron" unicode="&#x14d;" horiz-adv-x="610" d="M599 334 Q599 169 523.5 77 Q448 -15 305 -15 Q162 -15 86.5 77 Q11 169 11 334 Q11 460 55.5 545 Q100 630 186 663 L186 756 L424 756 L424 663 Q510 630 554.5 545 Q599 460 599 334 Z M393 334 Q393 426 372.5 472.5 Q352 519 305 519 Q258 519 237.5 472.5 Q217 426 217 334 Q217 243 237.5 196.5 Q258 150 305 150 Q352 150 372.5 196.5 Q393 243 393 334 Z " />
<glyph glyph-name="ohungarumlaut" unicode="&#x151;" horiz-adv-x="610" d="M599 334 Q599 169 523.5 77 Q448 -15 305 -15 Q162 -15 86.5 77 Q11 169 11 334 Q11 446 47 526.5 Q83 607 152 647 L201 773 L345 773 L298 684 L305 684 Q332 684 354 681 L398 773 L542 773 L465 643 Q531 601 565 522.5 Q599 444 599 334 Z M393 334 Q393 426 372.5 472.5 Q352 519 305 519 Q258 519 237.5 472.5 Q217 426 217 334 Q217 243 237.5 196.5 Q258 150 305 150 Q352 150 372.5 196.5 Q393 243 393 334 Z " />
<glyph glyph-name="oslash" unicode="&#xf8;" horiz-adv-x="624" d="M606 354 Q606 179 532 82 Q458 -15 312 -15 Q229 -15 170 17 L140 -34 L57 10 L96 77 Q18 173 18 354 Q18 529 92 626.5 Q166 724 312 724 Q393 724 454 692 L484 744 L568 699 L528 631 Q606 537 606 354 Z M226 300 L363 536 Q343 559 312 559 Q265 559 244.5 508.5 Q224 458 224 354 Q224 316 226 300 Z M400 354 Q400 392 398 409 L261 173 Q281 150 312 150 Q359 150 379.5 200.5 Q400 251 400 354 Z " />
<glyph glyph-name="oe" unicode="&#x153;" horiz-adv-x="898" d="M726 442 L717 549 L606 549 L606 431 L705 431 L705 286 L606 286 L606 160 L716 160 L726 277 L878 277 L878 0 L412 0 L412 43 Q360 -14 272 -14 Q194 -14 136.5 30 Q79 74 48.5 157 Q18 240 18 354 Q18 468 48.5 551 Q79 634 136.5 678.5 Q194 723 272 723 Q360 723 412 666 L412 709 L878 709 L878 442 L726 442 Z M400 354 Q400 459 380.5 508.5 Q361 558 312 558 Q263 558 243.5 508.5 Q224 459 224 354 Q224 250 243.5 200.5 Q263 151 312 151 Q361 151 380.5 200.5 Q400 250 400 354 Z " />
<glyph glyph-name="racute" unicode="&#x155;" horiz-adv-x="587" d="M571 0 L402 0 L259 271 L259 160 L299 160 L299 0 L20 0 L20 160 L65 160 L65 509 L20 509 L20 669 L221 669 L273 773 L445 773 L371 668 Q461 659 513.5 605 Q566 551 566 458 Q566 390 536 344.5 Q506 299 453 275 L529 160 L571 160 L571 0 Z M374 442 Q374 476 354.5 492.5 Q335 509 309 509 L259 509 L259 377 L309 377 Q335 377 354.5 392.5 Q374 408 374 442 Z " />
<glyph glyph-name="rcaron" unicode="&#x159;" horiz-adv-x="587" d="M571 0 L402 0 L259 271 L259 160 L299 160 L299 0 L20 0 L20 160 L65 160 L65 509 L20 509 L20 669 L154 669 L91 773 L232 773 L287 693 L342 773 L483 773 L415 660 Q486 642 526 590.5 Q566 539 566 458 Q566 390 536 344.5 Q506 299 453 275 L529 160 L571 160 L571 0 Z M374 442 Q374 476 354.5 492.5 Q335 509 309 509 L259 509 L259 377 L309 377 Q335 377 354.5 392.5 Q374 408 374 442 Z " />
<glyph glyph-name="rcommaaccent" unicode="&#x157;" horiz-adv-x="587" d="M571 0 L397 0 L397 -64 L339 -136 L263 -136 L311 -64 L237 -64 L237 0 L20 0 L20 160 L65 160 L65 549 L20 549 L20 709 L338 709 Q441 709 502.5 654.5 Q564 600 564 498 Q564 429 533 383 Q502 337 448 314 L532 160 L571 160 L571 0 Z M307 415 Q333 415 353 431 Q373 447 373 481 Q373 515 353 532 Q333 549 307 549 L259 549 L259 415 L307 415 Z M259 295 L259 160 L299 160 L299 78 L361 78 L259 295 Z " />
<glyph glyph-name="sacute" unicode="&#x15b;" horiz-adv-x="539" d="M529 192 Q529 95 473 41 Q417 -13 321 -13 Q225 -13 172 34 L170 -3 L20 -3 L20 243 L183 243 Q188 202 213.5 173 Q239 144 280 144 Q306 144 319.5 155 Q333 166 333 187 Q333 206 321 219 Q309 232 282.5 245 Q256 258 198 280 Q99 318 61.5 366 Q24 414 24 486 Q24 570 69.5 623 Q115 676 198 684 L243 773 L415 773 L337 661 Q354 652 366 641 L367 676 L517 676 L517 445 L357 445 Q353 488 328.5 511.5 Q304 535 269 535 Q243 535 229.5 523.5 Q216 512 216 494 Q216 474 235 459 Q254 444 315 422 Q398 392 444 360 Q490 328 509.5 288.5 Q529 249 529 192 Z " />
<glyph glyph-name="scaron" unicode="&#x161;" horiz-adv-x="539" d="M529 192 Q529 95 473 41 Q417 -13 321 -13 Q225 -13 172 34 L170 -3 L20 -3 L20 243 L183 243 Q188 202 213.5 173 Q239 144 280 144 Q306 144 319.5 155 Q333 166 333 187 Q333 206 321 219 Q309 232 282.5 245 Q256 258 198 280 Q99 318 61.5 366 Q24 414 24 486 Q24 556 56 605 Q88 654 148 674 L88 773 L229 773 L284 693 L339 773 L480 773 L422 676 L517 676 L517 445 L357 445 Q353 488 328.5 511.5 Q304 535 269 535 Q243 535 229.5 523.5 Q216 512 216 494 Q216 474 235 459 Q254 444 315 422 Q398 392 444 360 Q490 328 509.5 288.5 Q529 249 529 192 Z " />
<glyph glyph-name="scedilla" unicode="&#x15f;" horiz-adv-x="539" d="M350 -7 Q357 -25 357 -46 Q357 -87 326.5 -110.5 Q296 -134 238 -134 Q174 -134 122 -108 L156 -40 Q184 -51 209 -51 Q228 -51 239 -43 Q250 -35 250 -18 Q250 -11 248 1 Q203 14 172 42 L170 -2 L20 -2 L20 261 L183 261 Q188 216 213 184 Q238 152 279 152 Q333 152 333 200 Q333 220 321 234 Q309 248 282 262.5 Q255 277 198 300 Q130 328 92.5 358.5 Q55 389 39.5 425 Q24 461 24 511 Q24 607 77 664 Q130 721 226 721 Q315 721 366 675 L367 711 L517 711 L517 468 L357 468 Q353 515 328 540 Q303 565 269 565 Q243 565 229.5 552 Q216 539 216 520 Q216 499 235 483 Q254 467 315 444 Q398 412 444 380 Q490 348 509.5 307.5 Q529 267 529 207 Q529 114 481 58 Q433 2 350 -7 Z " />
<glyph glyph-name="scommaaccent" unicode="&#x219;" horiz-adv-x="539" d="M349 -11 L349 -64 L291 -136 L215 -136 L263 -64 L189 -64 L189 23 Q171 38 172 37 L170 -2 L20 -2 L20 256 L183 256 Q188 211 213 179 Q238 147 279 147 Q305 147 319 159 Q333 171 333 195 Q333 215 321 229 Q309 243 282 257.5 Q255 272 198 295 Q99 336 61.5 386 Q24 436 24 511 Q24 572 48.5 619.5 Q73 667 119.5 694 Q166 721 229 721 Q315 721 366 675 L367 711 L517 711 L517 468 L357 468 Q353 515 328 540 Q303 565 269 565 Q243 565 229.5 552 Q216 539 216 520 Q216 499 235 483 Q254 467 315 444 Q398 412 444 379 Q490 346 509.5 304 Q529 262 529 202 Q529 109 480 53 Q431 -3 349 -11 Z " />
<glyph glyph-name="germandbls" unicode="&#xdf;" horiz-adv-x="1078" d="M529 202 Q529 101 471.5 44 Q414 -13 320 -13 Q225 -13 172 37 L170 -2 L20 -2 L20 256 L183 256 Q188 211 213 179 Q238 147 279 147 Q305 147 319 159 Q333 171 333 195 Q333 215 321 229 Q309 243 282 257.5 Q255 272 198 295 Q99 336 61.5 386 Q24 436 24 511 Q24 572 48.5 619.5 Q73 667 119.5 694 Q166 721 229 721 Q315 721 366 675 L367 711 L517 711 L517 468 L357 468 Q353 515 328 540 Q303 565 269 565 Q243 565 229.5 552 Q216 539 216 520 Q216 499 235 483 Q254 467 315 444 Q398 412 444 379 Q490 346 509.5 304 Q529 262 529 202 Z M1068 202 Q1068 101 1010.5 44 Q953 -13 859 -13 Q764 -13 711 37 L709 -2 L559 -2 L559 256 L722 256 Q727 211 752 179 Q777 147 818 147 Q844 147 858 159 Q872 171 872 195 Q872 215 860 229 Q848 243 821 257.5 Q794 272 737 295 Q638 336 600.5 386 Q563 436 563 511 Q563 572 587.5 619.5 Q612 667 658.5 694 Q705 721 768 721 Q854 721 905 675 L906 711 L1056 711 L1056 468 L896 468 Q892 515 867 540 Q842 565 808 565 Q782 565 768.5 552 Q755 539 755 520 Q755 499 774 483 Q793 467 854 444 Q937 412 983 379 Q1029 346 1048.5 304 Q1068 262 1068 202 Z " />
<glyph glyph-name="tcaron" unicode="&#x165;" horiz-adv-x="642" d="M625 360 L479 360 L467 509 L418 509 L418 160 L473 160 L473 0 L169 0 L169 160 L224 160 L224 509 L175 509 L163 360 L17 360 L17 669 L186 669 L123 773 L264 773 L319 693 L374 773 L515 773 L452 669 L625 669 L625 360 Z " />
<glyph glyph-name="uni021B" unicode="&#x21b;" horiz-adv-x="642" d="M625 400 L479 400 L467 549 L418 549 L418 160 L473 160 L473 0 L403 0 L403 -64 L345 -136 L269 -136 L317 -64 L243 -64 L243 0 L169 0 L169 160 L224 160 L224 549 L175 549 L163 400 L17 400 L17 709 L625 709 L625 400 Z " />
<glyph glyph-name="tbar" unicode="&#x167;" horiz-adv-x="642" d="M505 364 L505 231 L418 231 L418 160 L473 160 L473 0 L169 0 L169 160 L224 160 L224 231 L132 231 L132 364 L224 364 L224 549 L175 549 L163 400 L17 400 L17 709 L625 709 L625 400 L479 400 L467 549 L418 549 L418 364 L505 364 Z " />
<glyph glyph-name="ugrave" unicode="&#xf9;" horiz-adv-x="615" d="M598 509 L553 509 L553 215 Q553 104 494.5 45 Q436 -14 306 -14 Q177 -14 119.5 44 Q62 102 62 215 L62 509 L17 509 L17 669 L225 669 L152 773 L324 773 L376 669 L598 669 L598 509 Z M329 509 L329 640 L291 640 L291 509 L256 509 L256 225 Q256 197 269 179.5 Q282 162 310 162 Q338 162 351 179.5 Q364 197 364 225 L364 509 L329 509 Z " />
<glyph glyph-name="uacute" unicode="&#xfa;" horiz-adv-x="615" d="M598 509 L553 509 L553 215 Q553 104 494.5 45 Q436 -14 306 -14 Q177 -14 119.5 44 Q62 102 62 215 L62 509 L17 509 L17 669 L227 669 L279 773 L451 773 L378 669 L598 669 L598 509 Z M329 509 L329 640 L291 640 L291 509 L256 509 L256 225 Q256 197 269 179.5 Q282 162 310 162 Q338 162 351 179.5 Q364 197 364 225 L364 509 L329 509 Z " />
<glyph glyph-name="ucircumflex" unicode="&#xfb;" horiz-adv-x="615" d="M598 509 L553 509 L553 215 Q553 104 494.5 45 Q436 -14 306 -14 Q177 -14 119.5 44 Q62 102 62 215 L62 509 L17 509 L17 669 L130 669 L193 773 L425 773 L488 669 L598 669 L598 509 Z M329 509 L329 669 L344 669 L309 720 L274 669 L291 669 L291 509 L256 509 L256 225 Q256 197 269 179.5 Q282 162 310 162 Q338 162 351 179.5 Q364 197 364 225 L364 509 L329 509 Z " />
<glyph glyph-name="udieresis" unicode="&#xfc;" horiz-adv-x="615" d="M598 509 L553 509 L553 215 Q553 104 494.5 45 Q436 -14 306 -14 Q177 -14 119.5 44 Q62 102 62 215 L62 509 L17 509 L17 669 L122 669 L122 766 L270 766 L270 669 L293 669 L293 509 L256 509 L256 225 Q256 197 269 179.5 Q282 162 310 162 Q338 162 351 179.5 Q364 197 364 225 L364 509 L327 509 L327 669 L349 669 L349 766 L497 766 L497 669 L598 669 L598 509 Z " />
<glyph glyph-name="umacron" unicode="&#x16b;" horiz-adv-x="615" d="M598 509 L553 509 L553 215 Q553 104 494.5 45 Q436 -14 306 -14 Q177 -14 119.5 44 Q62 102 62 215 L62 509 L17 509 L17 669 L191 669 L191 756 L423 756 L423 669 L598 669 L598 509 Z M329 509 L329 640 L291 640 L291 509 L256 509 L256 225 Q256 197 269 179.5 Q282 162 310 162 Q338 162 351 179.5 Q364 197 364 225 L364 509 L329 509 Z " />
<glyph glyph-name="uring" unicode="&#x16f;" horiz-adv-x="615" d="M598 509 L553 509 L553 215 Q553 104 494.5 45 Q436 -14 306 -14 Q177 -14 119.5 44 Q62 102 62 215 L62 509 L17 509 L17 669 L178 669 Q175 681 175 695 Q175 750 213.5 787 Q252 824 310 824 Q368 824 406.5 787 Q445 750 445 695 Q445 681 442 669 L598 669 L598 509 Z M256 695 Q256 673 271 657 Q286 641 310 641 Q334 641 349 657 Q364 673 364 695 Q364 717 349 733 Q334 749 310 749 Q286 749 271 733 Q256 717 256 695 Z M329 509 L329 567 Q323 566 310 566 Q297 566 291 567 L291 509 L256 509 L256 225 Q256 197 269 179.5 Q282 162 310 162 Q338 162 351 179.5 Q364 197 364 225 L364 509 L329 509 Z " />
<glyph glyph-name="uhungarumlaut" unicode="&#x171;" horiz-adv-x="615" d="M598 509 L553 509 L553 215 Q553 104 494.5 45 Q436 -14 306 -14 Q177 -14 119.5 44 Q62 102 62 215 L62 509 L17 509 L17 669 L162 669 L203 773 L347 773 L291 668 L291 509 L256 509 L256 225 Q256 197 269 179.5 Q282 162 310 162 Q338 162 351 179.5 Q364 197 364 225 L364 509 L329 509 L329 669 L351 669 L400 773 L544 773 L483 669 L598 669 L598 509 Z " />
<glyph glyph-name="uogonek" unicode="&#x173;" horiz-adv-x="619" d="M556 549 L556 232 Q556 163 539 122 Q522 81 483 52 L453 31 Q432 16 423.5 8 Q415 0 415 -9 Q415 -26 454 -26 Q478 -26 506 -20 L506 -112 Q491 -119 465 -125 Q439 -131 407 -131 Q348 -131 317.5 -110 Q287 -89 287 -52 Q287 -30 293 -13 Q180 -5 121.5 54 Q63 113 63 215 L63 549 L18 549 L18 709 L292 709 L292 549 L257 549 L257 225 Q257 197 270.5 179.5 Q284 162 312 162 Q340 162 353.5 179.5 Q367 197 367 225 L367 549 L332 549 L332 709 L601 709 L601 549 L556 549 Z " />
<glyph glyph-name="wgrave" unicode="&#x1e81;" horiz-adv-x="919" d="M905 509 L859 509 L743 0 L526 0 L457 345 L383 0 L161 0 L47 509 L14 509 L14 669 L290 669 L290 509 L242 509 L293 221 L376 657 L295 773 L467 773 L519 669 L547 669 L634 231 L685 509 L640 509 L640 669 L905 669 L905 509 Z " />
<glyph glyph-name="wacute" unicode="&#x1e83;" horiz-adv-x="919" d="M905 509 L859 509 L743 0 L526 0 L457 345 L383 0 L161 0 L47 509 L14 509 L14 669 L290 669 L290 509 L242 509 L293 221 L378 669 L406 669 L458 773 L630 773 L549 658 L634 231 L685 509 L640 509 L640 669 L905 669 L905 509 Z " />
<glyph glyph-name="wcircumflex" unicode="&#x175;" horiz-adv-x="919" d="M905 509 L859 509 L743 0 L526 0 L457 345 L383 0 L161 0 L47 509 L14 509 L14 669 L282 669 L348 773 L580 773 L646 669 L905 669 L905 509 Z M464 720 L426 669 L503 669 L464 720 Z M372 640 L290 640 L290 509 L242 509 L293 221 L372 640 Z M640 509 L640 640 L553 640 L634 231 L685 509 L640 509 Z " />
<glyph glyph-name="wdieresis" unicode="&#x1e85;" horiz-adv-x="919" d="M905 509 L859 509 L743 0 L526 0 L457 345 L383 0 L161 0 L47 509 L14 509 L14 669 L282 669 L282 766 L430 766 L430 669 L499 669 L499 766 L647 766 L647 669 L905 669 L905 509 Z M368 615 L300 615 L300 509 L242 509 L293 221 L368 615 Z M630 509 L630 615 L558 615 L634 231 L685 509 L630 509 Z " />
<glyph glyph-name="ygrave" unicode="&#x1ef3;" horiz-adv-x="580" d="M566 509 L532 509 L390 255 L390 160 L435 160 L435 0 L141 0 L141 160 L186 160 L186 248 L46 509 L14 509 L14 669 L215 669 L142 773 L314 773 L366 669 L566 669 L566 509 Z M322 509 L322 640 L281 640 L281 509 L254 509 L299 414 L345 509 L322 509 Z " />
<glyph glyph-name="yacute" unicode="&#xfd;" horiz-adv-x="580" d="M566 509 L532 509 L390 255 L390 160 L435 160 L435 0 L141 0 L141 160 L186 160 L186 248 L46 509 L14 509 L14 669 L224 669 L276 773 L448 773 L375 669 L566 669 L566 509 Z M322 509 L322 640 L281 640 L281 509 L254 509 L299 414 L345 509 L322 509 Z " />
<glyph glyph-name="ycircumflex" unicode="&#x177;" horiz-adv-x="580" d="M566 509 L532 509 L390 255 L390 160 L435 160 L435 0 L141 0 L141 160 L186 160 L186 248 L46 509 L14 509 L14 669 L119 669 L185 773 L417 773 L484 669 L566 669 L566 509 Z M322 509 L322 669 L340 669 L301 720 L263 669 L281 669 L281 509 L254 509 L299 414 L345 509 L322 509 Z " />
<glyph glyph-name="ydieresis" unicode="&#xff;" horiz-adv-x="580" d="M566 509 L532 509 L390 255 L390 160 L435 160 L435 0 L141 0 L141 160 L186 160 L186 248 L46 509 L14 509 L14 669 L122 669 L122 766 L270 766 L270 669 L281 669 L281 509 L254 509 L299 414 L345 509 L322 509 L322 669 L333 669 L333 766 L481 766 L481 669 L566 669 L566 509 Z " />
<glyph glyph-name="zacute" unicode="&#x17a;" horiz-adv-x="546" d="M249 160 L363 160 L374 277 L526 277 L526 0 L20 0 L20 160 L298 509 L192 509 L182 402 L30 402 L30 669 L216 669 L268 773 L440 773 L367 669 L526 669 L526 509 L249 160 Z " />
<glyph glyph-name="zcaron" unicode="&#x17e;" horiz-adv-x="546" d="M249 160 L363 160 L374 277 L526 277 L526 0 L20 0 L20 160 L298 509 L192 509 L182 402 L30 402 L30 669 L153 669 L90 773 L231 773 L286 693 L341 773 L482 773 L419 669 L526 669 L526 509 L249 160 Z " />
<glyph glyph-name="zdotaccent" unicode="&#x17c;" horiz-adv-x="546" d="M249 160 L363 160 L374 277 L526 277 L526 0 L20 0 L20 160 L298 509 L192 509 L182 402 L30 402 L30 669 L196 669 L196 766 L363 766 L363 669 L526 669 L526 509 L249 160 Z " />
<glyph glyph-name="eng" unicode="&#x14b;" horiz-adv-x="679" d="M617 549 L617 58 Q617 -41 563 -89 Q509 -137 402 -137 Q352 -137 314 -127 L314 -8 Q328 -11 347 -11 Q409 -11 409 25 Q409 38 405 49.5 Q401 61 387 91 L239 408 L239 160 L284 160 L284 0 L20 0 L20 160 L65 160 L65 549 L20 549 L20 709 L285 709 L443 349 L443 549 L398 549 L398 709 L662 709 L662 549 L617 549 Z " />
<glyph glyph-name="eth" unicode="&#xf0;" horiz-adv-x="623" d="M605 355 Q605 246 570.5 166 Q536 86 473 43 Q410 0 325 0 L20 0 L20 160 L65 160 L65 285 L20 285 L20 435 L65 435 L65 549 L20 549 L20 709 L325 709 Q410 709 473.5 666.5 Q537 624 571 544 Q605 464 605 355 Z M399 354 Q399 549 300 549 L259 549 L259 435 L340 435 L340 285 L259 285 L259 160 L300 160 Q399 160 399 354 Z " />
<glyph glyph-name="thorn" unicode="&#xfe;" horiz-adv-x="584" d="M566 413 Q566 350 538.5 302 Q511 254 461 227.5 Q411 201 345 201 L259 201 L259 160 L299 160 L299 0 L20 0 L20 160 L65 160 L65 549 L20 549 L20 709 L259 709 L259 625 L345 625 Q411 625 461 598.5 Q511 572 538.5 524 Q566 476 566 413 Z M374 413 Q374 439 356.5 452 Q339 465 314 465 L259 465 L259 361 L314 361 Q339 361 356.5 374 Q374 387 374 413 Z " />
<glyph glyph-name="fi" unicode="&#xfb01;" horiz-adv-x="856" d="M364 442 L355 549 L259 549 L259 407 L420 407 L420 262 L259 262 L259 160 L304 160 L304 0 L20 0 L20 160 L65 160 L65 549 L20 549 L20 709 L516 709 L516 442 L364 442 Z M836 160 L836 0 L552 0 L552 160 L597 160 L597 549 L552 549 L552 709 L836 709 L836 549 L791 549 L791 160 L836 160 Z " />
<glyph glyph-name="fl" unicode="&#xfb02;" horiz-adv-x="1047" d="M364 442 L355 549 L259 549 L259 407 L420 407 L420 262 L259 262 L259 160 L304 160 L304 0 L20 0 L20 160 L65 160 L65 549 L20 549 L20 709 L516 709 L516 442 L364 442 Z M552 0 L552 160 L597 160 L597 549 L552 549 L552 709 L836 709 L836 549 L791 549 L791 160 L867 160 L877 277 L1029 277 L1029 0 L552 0 Z " />
<glyph glyph-name="ampersand" unicode="&#x26;" horiz-adv-x="621" d="M605 0 L437 0 L417 25 Q346 -16 259 -16 Q137 -16 74.5 38 Q12 92 12 190 Q12 259 41.5 303.5 Q71 348 132 383 Q102 425 87.5 460 Q73 495 73 541 Q73 582 93.5 624 Q114 666 162.5 694.5 Q211 723 289 723 Q395 723 449.5 672 Q504 621 504 537 Q504 474 469 428 Q434 382 371 355 L435 275 Q445 309 448 354 L583 354 Q583 309 571.5 258 Q560 207 537 160 L605 160 L605 0 Z M251 541 Q251 520 261 501 Q271 482 293 454 Q347 480 347 533 Q347 559 333 573.5 Q319 588 296 588 Q275 588 263 575 Q251 562 251 541 Z M325 141 L215 279 Q190 253 190 216 Q190 181 213 157.5 Q236 134 279 134 Q305 134 325 141 Z " />
<glyph glyph-name="grave" unicode="&#x60;" horiz-adv-x="342" d="M289 640 L143 640 L50 773 L222 773 L289 640 Z " />
<glyph glyph-name="acute" unicode="&#xb4;" horiz-adv-x="342" d="M53 640 L120 773 L292 773 L199 640 L53 640 Z " />
<glyph glyph-name="circumflex" unicode="&#x2c6;" horiz-adv-x="512" d="M201 640 L60 640 L140 773 L372 773 L452 640 L311 640 L256 720 L201 640 Z " />
<glyph glyph-name="caron" unicode="&#x2c7;" horiz-adv-x="512" d="M140 640 L60 773 L201 773 L256 693 L311 773 L452 773 L372 640 L140 640 Z " />
<glyph glyph-name="tilde" unicode="&#x2dc;" horiz-adv-x="476" d="M250 770 Q265 761 275 756.5 Q285 752 297 752 Q328 752 330 792 L426 792 Q424 721 397 686.5 Q370 652 324 652 Q294 652 273 659 Q252 666 229 679 Q213 688 203 692 Q193 696 182 696 Q165 696 156 684.5 Q147 673 146 658 L50 658 Q51 723 81.5 760.5 Q112 798 159 798 Q189 798 208.5 790.5 Q228 783 250 770 Z " />
<glyph glyph-name="dieresis" unicode="&#xa8;" horiz-adv-x="447" d="M45 615 L45 766 L193 766 L193 615 L45 615 Z M254 615 L254 766 L402 766 L402 615 L254 615 Z " />
<glyph glyph-name="breve" unicode="&#x2d8;" horiz-adv-x="460" d="M230 619 Q152 619 103.5 656.5 Q55 694 55 766 L175 766 Q175 736 189.5 719.5 Q204 703 230 703 Q256 703 270.5 719.5 Q285 736 285 766 L405 766 Q405 694 356 656.5 Q307 619 230 619 Z " />
<glyph glyph-name="ring" unicode="&#x2da;" horiz-adv-x="370" d="M320 695 Q320 640 281.5 603 Q243 566 185 566 Q127 566 88.5 603 Q50 640 50 695 Q50 750 88.5 787 Q127 824 185 824 Q243 824 281.5 787 Q320 750 320 695 Z M131 695 Q131 673 146 657 Q161 641 185 641 Q209 641 224 657 Q239 673 239 695 Q239 717 224 733 Q209 749 185 749 Q161 749 146 733 Q131 717 131 695 Z " />
<glyph glyph-name="hungarumlaut" unicode="&#x2dd;" horiz-adv-x="497" d="M50 630 L106 773 L250 773 L174 630 L50 630 Z M235 630 L303 773 L447 773 L363 630 L235 630 Z " />
<glyph glyph-name="dotaccent" unicode="&#x2d9;" horiz-adv-x="270" d="M41 625 L41 766 L208 766 L208 625 L41 625 Z " />
<glyph glyph-name="cedilla" unicode="&#xb8;" horiz-adv-x="334" d="M291 -46 Q291 -87 260.5 -110.5 Q230 -134 172 -134 Q108 -134 56 -108 L90 -40 Q118 -51 143 -51 Q162 -51 173 -43 Q184 -35 184 -18 Q184 -1 179 9 L277 9 Q282 0 286.5 -15 Q291 -30 291 -46 Z " />
<glyph glyph-name="ogonek" unicode="&#x2db;" horiz-adv-x="320" d="M179 -10 Q179 -19 186 -23.5 Q193 -28 214 -28 Q242 -28 270 -22 L270 -114 Q256 -121 228.5 -127 Q201 -133 171 -133 Q112 -133 81.5 -111 Q51 -89 51 -49 Q51 1 98.5 34.5 Q146 68 231 82 L270 40 Q223 26 201 15 Q179 4 179 -10 Z " />
<glyph glyph-name="comma" unicode="&#x2c;" horiz-adv-x="276" d="M147 -106 L50 -106 L121 0 L35 0 L35 197 L241 197 L241 0 L147 -106 Z " />
<glyph glyph-name="semicolon" unicode="&#x3b;" horiz-adv-x="276" d="M147 -106 L50 -106 L121 0 L35 0 L35 197 L241 197 L241 0 L147 -106 Z M35 352 L35 549 L241 549 L241 352 L35 352 Z " />
<glyph glyph-name="colon" unicode="&#x3a;" horiz-adv-x="276" d="M35 0 L35 197 L241 197 L241 0 L35 0 Z M35 352 L35 549 L241 549 L241 352 L35 352 Z " />
<glyph glyph-name="period" unicode="&#x2e;" horiz-adv-x="276" d="M35 0 L35 197 L241 197 L241 0 L35 0 Z " />
<glyph glyph-name="ellipsis" unicode="&#x2026;" horiz-adv-x="836" d="M35 0 L35 197 L241 197 L241 0 L35 0 Z M315 0 L315 197 L521 197 L521 0 L315 0 Z M595 0 L595 197 L801 197 L801 0 L595 0 Z " />
<glyph glyph-name="hyphen" unicode="&#x2d;" horiz-adv-x="380" d="M30 218 L30 392 L350 392 L350 218 L30 218 Z " />
<glyph glyph-name="exclam" unicode="&#x21;" horiz-adv-x="274" d="M201 248 L73 248 L30 496 L30 709 L244 709 L244 496 L201 248 Z M34 0 L34 197 L240 197 L240 0 L34 0 Z " />
<glyph glyph-name="exclamdown" unicode="&#xa1;" horiz-adv-x="274" d="M240 709 L240 512 L34 512 L34 709 L240 709 Z M73 461 L201 461 L244 213 L244 0 L30 0 L30 213 L73 461 Z " />
<glyph glyph-name="question" unicode="&#x3f;" horiz-adv-x="474" d="M473 535 Q473 480 449.5 439 Q426 398 364 342 Q335 316 321 293.5 Q307 271 305 248 L142 248 Q142 284 147 311.5 Q152 339 171.5 371 Q191 403 232 437 Q263 463 274.5 480 Q286 497 286 518 Q286 538 273.5 550.5 Q261 563 238 563 Q206 563 190.5 542 Q175 521 169 477 L9 477 Q5 602 67.5 663 Q130 724 249 724 Q357 724 415 673 Q473 622 473 535 Z M122 0 L122 197 L328 197 L328 0 L122 0 Z " />
<glyph glyph-name="questiondown" unicode="&#xbf;" horiz-adv-x="474" d="M356 709 L356 512 L150 512 L150 709 L356 709 Z M5 174 Q5 229 28.5 270 Q52 311 114 367 Q143 393 157 415.5 Q171 438 173 461 L336 461 Q336 425 331 397.5 Q326 370 306.5 338 Q287 306 246 272 Q215 246 203.5 229 Q192 212 192 191 Q192 172 205 159 Q218 146 240 146 Q272 146 287.5 167 Q303 188 309 232 L469 232 Q473 107 410.5 46 Q348 -15 229 -15 Q121 -15 63 36 Q5 87 5 174 Z " />
<glyph glyph-name="quoteleft" unicode="&#x2018;" horiz-adv-x="226" d="M20 421 L20 608 L105 709 L192 709 L128 608 L206 608 L206 421 L20 421 Z " />
<glyph glyph-name="quoteright" unicode="&#x2019;" horiz-adv-x="226" d="M121 421 L34 421 L98 522 L20 522 L20 709 L206 709 L206 522 L121 421 Z " />
<glyph glyph-name="quotedblleft" unicode="&#x201c;" horiz-adv-x="452" d="M246 421 L246 608 L331 709 L418 709 L354 608 L432 608 L432 421 L246 421 Z M20 421 L20 608 L105 709 L192 709 L128 608 L206 608 L206 421 L20 421 Z " />
<glyph glyph-name="quotedblright" unicode="&#x201d;" horiz-adv-x="453" d="M348 421 L261 421 L325 522 L247 522 L247 709 L433 709 L433 522 L348 421 Z M121 421 L34 421 L98 522 L20 522 L20 709 L206 709 L206 522 L121 421 Z " />
<glyph glyph-name="quotesinglbase" unicode="&#x201a;" horiz-adv-x="226" d="M121 -100 L34 -100 L98 1 L20 1 L20 188 L206 188 L206 1 L121 -100 Z " />
<glyph glyph-name="quotedblbase" unicode="&#x201e;" horiz-adv-x="460" d="M355 -100 L268 -100 L332 1 L254 1 L254 188 L440 188 L440 1 L355 -100 Z M121 -100 L34 -100 L98 1 L20 1 L20 188 L206 188 L206 1 L121 -100 Z " />
<glyph glyph-name="guilsinglleft" unicode="&#x2039;" horiz-adv-x="410" d="M386 38 L208 38 L25 292 L208 547 L386 547 L204 292 L386 38 Z " />
<glyph glyph-name="guilsinglright" unicode="&#x203a;" horiz-adv-x="410" d="M386 292 L203 38 L25 38 L207 292 L25 547 L203 547 L386 292 Z " />
<glyph glyph-name="guillemotleft" unicode="&#xab;" horiz-adv-x="680" d="M386 38 L208 38 L25 292 L208 547 L386 547 L204 292 L386 38 Z M656 38 L478 38 L295 292 L478 547 L656 547 L474 292 L656 38 Z " />
<glyph glyph-name="guillemotright" unicode="&#xbb;" horiz-adv-x="680" d="M386 292 L203 38 L25 38 L207 292 L25 547 L203 547 L386 292 Z M656 292 L473 38 L295 38 L477 292 L295 547 L473 547 L656 292 Z " />
<glyph glyph-name="slash" unicode="&#x2f;" horiz-adv-x="387" d="M10 0 L207 709 L377 709 L180 0 L10 0 Z " />
<glyph glyph-name="bar" unicode="&#x7c;" horiz-adv-x="377" d="M100 -136 L100 821 L277 821 L277 -136 L100 -136 Z " />
<glyph glyph-name="endash" unicode="&#x2013;" horiz-adv-x="732" d="M30 218 L30 392 L702 392 L702 218 L30 218 Z " />
<glyph glyph-name="emdash" unicode="&#x2014;" horiz-adv-x="1020" d="M30 218 L30 392 L990 392 L990 218 L30 218 Z " />
<glyph glyph-name="bullet" unicode="&#x2022;" horiz-adv-x="420" d="M376 339 Q376 294 354 256 Q332 218 294 195.5 Q256 173 211 173 Q166 173 128 195.5 Q90 218 67.5 256 Q45 294 45 339 Q45 384 67.5 422 Q90 460 128 482 Q166 504 211 504 Q256 504 294 482 Q332 460 354 422 Q376 384 376 339 Z " />
<glyph glyph-name="periodcentered" unicode="&#xb7;" horiz-adv-x="276" d="M35 254 L35 451 L241 451 L241 254 L35 254 Z " />
<glyph glyph-name="parenleft" unicode="&#x28;" horiz-adv-x="315" d="M199 347 Q199 246 222.5 150.5 Q246 55 305 -44 L158 -44 Q10 116 10 347 Q10 578 158 738 L305 738 Q246 638 222.5 543 Q199 448 199 347 Z " />
<glyph glyph-name="parenright" unicode="&#x29;" horiz-adv-x="315" d="M305 347 Q305 116 157 -44 L10 -44 Q69 55 92.5 150.5 Q116 246 116 347 Q116 448 92.5 543 Q69 638 10 738 L157 738 Q305 578 305 347 Z " />
<glyph glyph-name="bracketleft" unicode="&#x5b;" horiz-adv-x="311" d="M214 95 L291 95 L291 -43 L30 -43 L30 738 L291 738 L291 600 L214 600 L214 95 Z " />
<glyph glyph-name="bracketright" unicode="&#x5d;" horiz-adv-x="311" d="M281 -43 L20 -43 L20 95 L97 95 L97 600 L20 600 L20 738 L281 738 L281 -43 Z " />
<glyph glyph-name="braceleft" unicode="&#x7b;" horiz-adv-x="338" d="M304 600 Q281 600 270.5 593 Q260 586 257.5 572.5 Q255 559 255 532 L255 476 Q255 415 232.5 389.5 Q210 364 157 350 L157 348 Q193 338 213.5 325 Q234 312 244.5 287.5 Q255 263 255 221 L255 168 Q255 139 257.5 124.5 Q260 110 270.5 102.5 Q281 95 304 95 L318 95 L318 -43 L271 -43 Q175 -43 123 -3.5 Q71 36 71 140 L71 173 Q71 222 65.5 241 Q60 260 47.5 264 Q35 268 0 268 L0 429 Q34 429 47 433 Q60 437 65.5 456 Q71 475 71 524 L71 561 Q71 660 123.5 699 Q176 738 271 738 L318 738 L318 600 L304 600 Z " />
<glyph glyph-name="braceright" unicode="&#x7d;" horiz-adv-x="338" d="M267 561 L267 524 Q267 475 272.5 456 Q278 437 291 433 Q304 429 338 429 L338 268 Q303 268 290.5 264 Q278 260 272.5 241 Q267 222 267 173 L267 140 Q267 36 215 -3.5 Q163 -43 67 -43 L20 -43 L20 95 L34 95 Q57 95 67.5 102.5 Q78 110 80.5 124.5 Q83 139 83 168 L83 221 Q83 263 93.5 287.5 Q104 312 124.5 325 Q145 338 181 348 L181 350 Q128 364 105.5 389.5 Q83 415 83 476 L83 532 Q83 559 80.5 572.5 Q78 586 67.5 593 Q57 600 34 600 L20 600 L20 738 L67 738 Q162 738 214.5 699 Q267 660 267 561 Z " />
<glyph glyph-name="asterisk" unicode="&#x2a;" horiz-adv-x="456" d="M394 416 L292 342 L227 455 L162 343 L61 416 L148 513 L20 540 L58 660 L180 605 L166 738 L290 738 L276 604 L397 658 L436 540 L306 513 L394 416 Z " />
<glyph glyph-name="dagger" unicode="&#x2020;" horiz-adv-x="470" d="M320 381 L320 -100 L150 -100 L150 381 L20 381 L20 532 L150 532 L150 709 L320 709 L320 532 L450 532 L450 381 L320 381 Z " />
<glyph glyph-name="daggerdbl" unicode="&#x2021;" horiz-adv-x="470" d="M450 280 L450 129 L320 129 L320 -100 L150 -100 L150 129 L20 129 L20 280 L150 280 L150 381 L20 381 L20 532 L150 532 L150 709 L320 709 L320 532 L450 532 L450 381 L320 381 L320 280 L450 280 Z " />
<glyph glyph-name="section" unicode="&#xa7;" horiz-adv-x="564" d="M484 127 Q505 91 505 37 Q505 -41 449 -92.5 Q393 -144 282 -144 Q173 -144 114 -88.5 Q55 -33 60 65 L205 65 Q211 27 231.5 8.5 Q252 -10 282 -10 Q303 -10 314.5 -0.5 Q326 9 326 24 Q326 42 311.5 55 Q297 68 250 89 Q157 131 108.5 161 Q60 191 35 228 Q10 265 10 319 Q10 404 80 452 Q59 488 59 542 Q59 620 115 671.5 Q171 723 282 723 Q391 723 450 667.5 Q509 612 504 514 L359 514 Q353 552 332.5 570.5 Q312 589 282 589 Q261 589 249.5 579.5 Q238 570 238 555 Q238 537 252.5 524 Q267 511 314 490 Q407 448 455.5 418 Q504 388 529 351 Q554 314 554 260 Q554 175 484 127 Z M252 280 Q286 265 320 247 Q377 217 401 203 Q404 209 404 218 Q404 245 383.5 260.5 Q363 276 312 299 Q278 314 244 332 Q187 362 163 376 Q160 370 160 361 Q160 334 180.5 318.5 Q201 303 252 280 Z " />
<glyph glyph-name="paragraph" unicode="&#xb6;" horiz-adv-x="688" d="M294 -127 L294 237 L276 237 Q197 237 138.5 266.5 Q80 296 49 350 Q18 404 18 475 Q18 583 87 646 Q156 709 276 709 L450 709 L450 -127 L294 -127 Z M512 -127 L512 709 L668 709 L668 -127 L512 -127 Z " />
<glyph glyph-name="asciicircum" unicode="&#x5e;" horiz-adv-x="580" d="M290 537 L169 270 L6 270 L211 709 L368 709 L574 270 L411 270 L290 537 Z " />
<glyph glyph-name="asciitilde" unicode="&#x7e;" horiz-adv-x="580" d="M299 381 Q322 368 335 363 Q348 358 365 358 Q391 358 405.5 372.5 Q420 387 422 412 L555 412 Q555 318 516 264 Q477 210 409 210 Q373 210 346 219 Q319 228 285 245 Q263 256 249 261.5 Q235 267 219 267 Q194 267 178 251.5 Q162 236 158 212 L25 212 Q25 305 68 360 Q111 415 182 415 Q220 415 245 406 Q270 397 299 381 Z " />
<glyph glyph-name="brokenbar" unicode="&#xa6;" horiz-adv-x="377" d="M100 444 L100 821 L277 821 L277 444 L100 444 Z M100 -136 L100 241 L277 241 L277 -136 L100 -136 Z " />
<glyph glyph-name="backslash" unicode="&#x5c;" horiz-adv-x="387" d="M377.001 0 L180.013 709 L10.023 709 L207.011 0 L377.001 0 Z " />
<glyph glyph-name="underscore" unicode="&#x5f;" horiz-adv-x="580" d="M-5 -135 L-5 -65 L585 -65 L585 -135 L-5 -135 Z " />
<glyph glyph-name="quotesingle" unicode="&#x27;" horiz-adv-x="219" d="M36 414 L25 709 L194 709 L183 414 L36 414 Z " />
<glyph glyph-name="quotedbl" unicode="&#x22;" horiz-adv-x="424" d="M36 414 L25 709 L194 709 L183 414 L36 414 Z M241 414 L230 709 L399 709 L388 414 L241 414 Z " />
<glyph glyph-name="at" unicode="&#x40;" horiz-adv-x="867" d="M855 369 Q855 288 830 226.5 Q805 165 758.5 131.5 Q712 98 650 98 Q595 98 566 120 Q537 142 526 175 Q481 100 389 100 Q315 100 264.5 148 Q214 196 214 294 Q214 366 238 423 Q262 480 305.5 512.5 Q349 545 405 545 Q477 545 514 493 L520 539 L649 539 L623 291 Q621 263 621 255 Q621 226 629.5 214 Q638 202 657 202 Q686 202 707 243 Q728 284 728 371 Q728 506 650.5 574 Q573 642 439 642 Q354 642 287 601.5 Q220 561 182.5 487 Q145 413 145 317 Q145 222 182 152.5 Q219 83 290 46 Q361 9 459 9 Q563 9 648 57 L703 -36 Q656 -69 590.5 -84.5 Q525 -100 461 -100 Q316 -100 215.5 -49 Q115 2 63.5 95.5 Q12 189 12 316 Q12 442 66 541.5 Q120 641 217.5 697 Q315 753 440 753 Q566 753 659.5 706.5 Q753 660 804 573 Q855 486 855 369 Z M359 296 Q359 257 372.5 237 Q386 217 411 217 Q452 217 473 263.5 Q494 310 494 361 Q494 431 440 431 Q408 431 383.5 397 Q359 363 359 296 Z " />
<glyph glyph-name="copyright" unicode="&#xa9;" horiz-adv-x="769" d="M751 356 Q751 253 703 169.5 Q655 86 571 38 Q487 -10 385 -10 Q282 -10 198 38 Q114 86 66 169.5 Q18 253 18 356 Q18 459 66.5 543 Q115 627 198.5 675 Q282 723 385 723 Q487 723 571 675 Q655 627 703 543 Q751 459 751 356 Z M107 356 Q107 276 142.5 211 Q178 146 241.5 108.5 Q305 71 385 71 Q465 71 528 108.5 Q591 146 626.5 211 Q662 276 662 356 Q662 436 626.5 501 Q591 566 528 603.5 Q465 641 385 641 Q305 641 241.5 603.5 Q178 566 142.5 501 Q107 436 107 356 Z M568 472 L470 417 Q454 443 433.5 452.5 Q413 462 388 462 Q348 462 323.5 435 Q299 408 299 358 Q299 309 324.5 282 Q350 255 388 255 Q416 255 435.5 266 Q455 277 473 307 L571 253 Q541 193 498.5 165.5 Q456 138 390 138 Q329 138 281.5 167 Q234 196 207.5 246 Q181 296 181 358 Q181 420 207.5 470.5 Q234 521 281.5 550 Q329 579 390 579 Q514 579 568 472 Z " />
<glyph glyph-name="registered" unicode="&#xae;" horiz-adv-x="769" d="M751 356 Q751 253 703 169.5 Q655 86 571 38 Q487 -10 385 -10 Q282 -10 198 38 Q114 86 66 169.5 Q18 253 18 356 Q18 459 66.5 543 Q115 627 198.5 675 Q282 723 385 723 Q487 723 571 675 Q655 627 703 543 Q751 459 751 356 Z M662 356 Q662 436 626.5 501 Q591 566 528 603.5 Q465 641 385 641 Q305 641 241.5 603.5 Q178 566 142.5 501 Q107 436 107 356 Q107 276 142.5 211 Q178 146 241.5 108.5 Q305 71 385 71 Q465 71 528 108.5 Q591 146 626.5 211 Q662 276 662 356 Z M468 313 L566 156 L451 156 L367 294 L333 294 L333 156 L229 156 L229 568 L409 568 Q473 568 511.5 532 Q550 496 550 437 Q550 396 527.5 361 Q505 326 468 313 Z M444 435 Q444 462 429 472.5 Q414 483 382 483 L333 483 L333 381 L382 381 Q444 381 444 435 Z " />
<glyph glyph-name="trademark" unicode="&#x2122;" horiz-adv-x="974" d="M323 503 L315 602 L282 602 L282 393 L319 393 L319 286 L116 286 L116 393 L153 393 L153 602 L121 602 L112 503 L15 503 L15 709 L420 709 L420 503 L323 503 Z M959 393 L959 286 L783 286 L783 393 L810 393 L810 573 L731 286 L655 286 L580 574 L580 393 L606 393 L606 286 L444 286 L444 393 L470 393 L470 602 L444 602 L444 709 L660 709 L702 524 L748 709 L959 709 L959 602 L932 602 L932 393 L959 393 Z " />
<glyph glyph-name="currency" unicode="&#xa4;" horiz-adv-x="580" d="M168 550 Q221 576 292 576 Q359 576 414 551 L484 622 L572 535 L506 469 Q540 412 540 340 Q540 268 506 211 L575 142 L487 55 L413 129 Q355 104 292 104 Q224 104 165 131 L92 58 L5 145 L75 215 Q44 269 44 340 Q44 413 76 466 L4 538 L92 625 L168 550 Z M211 340 Q211 299 234.5 276 Q258 253 292 253 Q326 253 349.5 276 Q373 299 373 340 Q373 381 349.5 404 Q326 427 292 427 Q258 427 234.5 404 Q211 381 211 340 Z " />
<glyph glyph-name="Euro" unicode="&#x20ac;" horiz-adv-x="580" d="M349 -14 Q232 -14 164 52 Q96 118 76 243 L27 243 L27 341 L68 341 L68 354 L68 378 L27 378 L27 476 L78 476 Q100 595 167.5 659 Q235 723 348 723 Q457 723 515 665.5 Q573 608 571 513 L421 513 Q416 534 400 549.5 Q384 565 354 565 Q322 565 303 543.5 Q284 522 275 476 L435 476 L435 378 L267 378 L267 354 L267 341 L435 341 L435 243 L273 243 Q281 191 300.5 167.5 Q320 144 356 144 Q407 144 418 197 L571 197 Q573 103 516 44.5 Q459 -14 349 -14 Z " />
<glyph glyph-name="dollar" unicode="&#x24;" horiz-adv-x="580" d="M363 -6 L363 -83 L233 -83 L233 -8 Q132 7 78.5 73 Q25 139 28 260 L184 260 Q188 207 215 178.5 Q242 150 286 150 Q316 150 332.5 164 Q349 178 349 203 Q349 226 328.5 243 Q308 260 259 280 L192 308 Q112 341 78.5 389 Q45 437 45 510 Q45 589 94 646.5 Q143 704 233 717 L233 787 L363 787 L363 713 Q448 694 492 632.5 Q536 571 533 470 L381 470 Q374 510 350 534 Q326 558 289 558 Q262 558 248.5 545 Q235 532 235 514 Q235 496 251.5 481.5 Q268 467 314 447 L359 428 Q458 386 501.5 337 Q545 288 545 209 Q545 120 497 64.5 Q449 9 363 -6 Z " />
<glyph glyph-name="cent" unicode="&#xa2;" horiz-adv-x="580" d="M385 -1 L385 -80 L255 -80 L255 -4 Q153 14 95.5 94.5 Q38 175 38 305 Q38 443 96 522 Q154 601 255 618 L255 689 L385 689 L385 614 Q469 595 510.5 535.5 Q552 476 552 392 L401 392 Q395 424 375 444.5 Q355 465 322 465 Q230 465 230 303 Q230 163 316 163 Q357 163 376.5 187.5 Q396 212 401 258 L555 258 Q555 151 511.5 84.5 Q468 18 385 -1 Z " />
<glyph glyph-name="sterling" unicode="&#xa3;" horiz-adv-x="580" d="M278 489 Q278 468 284 426 L447 426 L447 286 L294 286 Q287 210 230 160 L405 160 L412 253 L558 253 L558 0 L39 0 L39 160 Q73 170 91.5 200.5 Q110 231 110 280 L110 286 L39 286 L39 426 L94 426 Q87 472 87 515 Q87 569 110 616.5 Q133 664 185.5 694 Q238 724 322 724 Q444 724 503.5 661.5 Q563 599 559 481 L407 481 Q396 560 337 560 Q308 560 293 541 Q278 522 278 489 Z " />
<glyph glyph-name="yen" unicode="&#xa5;" horiz-adv-x="580" d="M466 449 L540 449 L540 351 L408 351 L386 314 L540 314 L540 216 L385 216 L385 160 L430 160 L430 0 L146 0 L146 160 L191 160 L191 216 L39 216 L39 314 L178 314 L158 351 L39 351 L39 449 L106 449 L52 549 L19 549 L19 709 L271 709 L271 549 L246 549 L295 443 L343 549 L322 549 L322 709 L561 709 L561 549 L525 549 L466 449 Z " />
<glyph glyph-name="uni20A8" unicode="&#x20a8;" horiz-adv-x="580" d="M470 562 L538 562 L538 464 L482 464 Q478 392 435 344.5 Q392 297 324 280 L431 160 L485 160 L485 0 L331 0 L63 331 L63 402 L191 402 Q229 402 254.5 418.5 Q280 435 291 464 L63 464 L63 562 L286 562 Q262 611 191 611 L63 611 L63 709 L538 709 L538 611 L439 611 Q459 589 470 562 Z " />
<glyph glyph-name="uni20BA" unicode="&#x20ba;" horiz-adv-x="580" d="M220 0 L108 0 L108 244 L39 213 L39 317 L108 348 L108 394 L39 363 L39 467 L108 498 L108 709 L302 709 L302 587 L428 644 L428 540 L302 483 L302 437 L428 494 L428 390 L302 333 L302 153 Q353 153 378 193.5 Q403 234 409 313 L566 313 Q566 195 528.5 126.5 Q491 58 415.5 29 Q340 0 220 0 Z " />
<glyph glyph-name="uni20BD" unicode="&#x20bd;" horiz-adv-x="580" d="M298 300 L442 300 L442 202 L298 202 L298 160 L338 160 L338 0 L59 0 L59 160 L104 160 L104 202 L30 202 L30 300 L104 300 L104 337 L31 337 L31 445 L104 445 L104 559 L59 559 L59 709 L376 709 Q430 709 474.5 686 Q519 663 545.5 620 Q572 577 572 519 Q572 434 518 385.5 Q464 337 378 337 L298 337 L298 300 Z M339 445 Q361 445 378.5 459.5 Q396 474 396 504 Q396 534 379 546.5 Q362 559 339 559 L298 559 L298 445 L339 445 Z " />
<glyph glyph-name="ordfeminine" unicode="&#xaa;" horiz-adv-x="473" d="M258 203 L258 317 L288 317 L281 351 L185 351 L179 317 L206 317 L206 203 L12 203 L12 317 L36 317 L108 595 L78 595 L78 709 L396 709 L396 595 L368 595 L438 317 L461 317 L461 203 L258 203 Z M263 451 L236 581 L231 581 L204 451 L263 451 Z " />
<glyph glyph-name="ordmasculine" unicode="&#xba;" horiz-adv-x="464" d="M452 461 Q452 337 395.5 267.5 Q339 198 232 198 Q125 198 68.5 267.5 Q12 337 12 461 Q12 585 68.5 654.5 Q125 724 232 724 Q339 724 395.5 654.5 Q452 585 452 461 Z M169 461 Q169 394 184 361 Q199 328 232 328 Q265 328 280 361 Q295 394 295 461 Q295 528 280 561 Q265 594 232 594 Q199 594 184 561 Q169 528 169 461 Z " />
<glyph glyph-name="numbersign" unicode="&#x23;" horiz-adv-x="580" d="M438 298 L536 298 L536 192 L418 192 L383 0 L269 0 L304 192 L215 192 L180 0 L67 0 L102 192 L24 192 L24 298 L122 298 L144 417 L44 417 L44 523 L164 523 L198 709 L311 709 L277 523 L366 523 L400 709 L513 709 L479 523 L556 523 L556 417 L459 417 L438 298 Z M257 417 L235 298 L324 298 L346 417 L257 417 Z " />
<glyph glyph-name="uni2116" unicode="&#x2116;" horiz-adv-x="1040" d="M649 533 Q649 616 699.5 667 Q750 718 835 718 Q920 718 971 667 Q1022 616 1022 533 Q1022 450 971 398.5 Q920 347 835 347 Q750 347 699.5 398.5 Q649 450 649 533 Z M622 709 L622 549 L577 549 L577 0 L402 0 L239 395 L239 160 L284 160 L284 0 L20 0 L20 160 L65 160 L65 549 L20 549 L20 709 L265 709 L403 366 L403 549 L358 549 L358 709 L622 709 Z M782 533 Q782 499 797.5 480.5 Q813 462 835 462 Q857 462 872.5 480.5 Q888 499 888 533 Q888 565 872.5 584 Q857 603 835 603 Q813 603 797.5 584 Q782 565 782 533 Z M1008 320 L1008 196 L663 196 L663 320 L1008 320 Z " />
<glyph glyph-name="zero" unicode="0" horiz-adv-x="580" d="M562 354 Q562 169 494.5 77 Q427 -15 290 -15 Q153 -15 85.5 77 Q18 169 18 354 Q18 724 290 724 Q562 724 562 354 Z M224 354 Q224 276 230 232 Q236 188 250 169 Q264 150 290 150 Q316 150 330 169 Q344 188 350 232 Q356 276 356 354 Q356 433 350 477 Q344 521 330 540 Q316 559 290 559 Q264 559 250 540 Q236 521 230 477 Q224 433 224 354 Z " />
<glyph glyph-name="one" unicode="1" horiz-adv-x="409" d="M400 160 L400 0 L31 0 L31 160 L121 160 L121 498 L31 455 L31 624 L179 709 L315 709 L315 160 L400 160 Z " />
<glyph glyph-name="two" unicode="2" horiz-adv-x="557" d="M537 253 L537 0 L14 0 L14 72 Q14 156 39.5 212.5 Q65 269 109.5 307.5 Q154 346 229 390 Q276 417 299.5 436 Q323 455 331 470.5 Q339 486 339 506 Q339 529 322.5 543.5 Q306 558 277 558 Q236 558 214.5 530 Q193 502 185 446 L27 446 Q23 582 91.5 653 Q160 724 291 724 Q372 724 427.5 695.5 Q483 667 510 619 Q537 571 537 512 Q537 455 517 413 Q497 371 458 337.5 Q419 304 354 268 Q275 224 248 204 Q221 184 214 160 L384 160 L391 253 L537 253 Z " />
<glyph glyph-name="three" unicode="3" horiz-adv-x="560" d="M553 208 Q553 144 523.5 93.5 Q494 43 435.5 14.5 Q377 -14 292 -14 Q162 -14 89 53 Q16 120 20 266 L178 266 Q181 209 206.5 177.5 Q232 146 278 146 Q314 146 333.5 166.5 Q353 187 353 220 Q353 266 317.5 285 Q282 304 220 304 L220 427 Q286 427 315.5 447 Q345 467 345 505 Q345 533 327 549 Q309 565 278 565 Q200 565 187 467 L36 467 Q32 595 103.5 659 Q175 723 296 723 Q373 723 427 698.5 Q481 674 508.5 630.5 Q536 587 536 532 Q536 414 433 375 Q553 336 553 208 Z " />
<glyph glyph-name="four" unicode="4" horiz-adv-x="580" d="M492 160 L533 160 L533 0 L252 0 L252 160 L306 160 L306 204 L26 204 L26 376 L216 709 L492 709 L492 353 L561 353 L561 204 L492 204 L492 160 Z M306 565 L192 353 L306 353 L306 565 Z " />
<glyph glyph-name="five" unicode="5" horiz-adv-x="560" d="M545 221 Q545 159 517 105.5 Q489 52 430 18.5 Q371 -15 283 -15 Q160 -15 87.5 44.5 Q15 104 19 236 L178 236 Q188 141 269 141 Q305 141 326.5 166.5 Q348 192 348 234 Q348 272 327 296 Q306 320 268 320 Q225 320 200 287 L39 308 L80 709 L527 709 L527 478 L381 478 L375 549 L228 549 L214 424 Q258 452 324 452 Q427 452 486 389.5 Q545 327 545 221 Z " />
<glyph glyph-name="six" unicode="6" horiz-adv-x="580" d="M566 237 Q566 162 534.5 105 Q503 48 445.5 16.5 Q388 -15 312 -15 Q172 -15 98 69.5 Q24 154 24 323 Q24 515 98.5 619 Q173 723 321 723 Q383 723 436.5 699 Q490 675 522.5 621.5 Q555 568 553 485 L397 485 Q390 520 373 539 Q356 558 322 558 Q281 558 256.5 522 Q232 486 224 404 Q273 455 360 455 Q421 455 467.5 428 Q514 401 540 351.5 Q566 302 566 237 Z M367 234 Q367 275 347 297.5 Q327 320 290 320 Q250 320 220 296 Q222 222 240 182.5 Q258 143 299 143 Q332 143 349.5 169 Q367 195 367 234 Z " />
<glyph glyph-name="seven" unicode="7" horiz-adv-x="540" d="M536 549 Q457 463 414.5 391.5 Q372 320 352.5 229 Q333 138 333 0 L117 0 Q117 156 170.5 288.5 Q224 421 336 549 L167 549 L161 466 L15 466 L15 709 L536 709 L536 549 Z " />
<glyph glyph-name="eight" unicode="8" horiz-adv-x="580" d="M566 194 Q566 102 497.5 43.5 Q429 -15 291 -15 Q157 -15 84.5 39 Q12 93 12 184 Q12 307 135 359 Q82 397 60.5 436 Q39 475 39 526 Q39 583 69.5 628 Q100 673 157.5 698.5 Q215 724 293 724 Q367 724 424.5 701 Q482 678 513.5 635.5 Q545 593 545 535 Q545 427 446 379 Q504 344 535 301 Q566 258 566 194 Z M232 531 Q232 507 253.5 488 Q275 469 322 444 Q347 460 359.5 478 Q372 496 372 521 Q372 552 351 568.5 Q330 585 298 585 Q269 585 250.5 570.5 Q232 556 232 531 Z M368 191 Q368 222 337.5 244 Q307 266 243 297 Q195 262 195 208 Q195 174 220.5 153 Q246 132 287 132 Q327 132 347.5 147.5 Q368 163 368 191 Z " />
<glyph glyph-name="nine" unicode="9" horiz-adv-x="580" d="M556 386 Q556 193 483 89.5 Q410 -14 263 -14 Q201 -14 147 9 Q93 32 59.5 83.5 Q26 135 28 216 L184 216 Q199 151 260 151 Q306 151 328 184.5 Q350 218 357 302 Q307 254 220 254 Q159 254 112.5 281 Q66 308 40 357.5 Q14 407 14 472 Q14 548 45 605 Q76 662 133.5 693 Q191 724 269 724 Q408 724 482 639.5 Q556 555 556 386 Z M290 389 Q330 389 360 413 Q359 486 341.5 526 Q324 566 281 566 Q248 566 230.5 540 Q213 514 213 475 Q213 434 233 411.5 Q253 389 290 389 Z " />
<glyph glyph-name="fraction" unicode="&#x2044;" horiz-adv-x="86" d="M-210 0 L162 709 L296 709 L-76 0 L-210 0 Z " />
<glyph glyph-name="onequarter" unicode="&#xbc;" horiz-adv-x="831" d="M287 387 L287 284 L30 284 L30 387 L87 387 L87 584 L30 554 L30 662 L118 709 L231 709 L231 387 L287 387 Z M157 0 L529 709 L663 709 L291 0 L157 0 Z M762 92 L789 92 L789 0 L590 0 L590 92 L631 92 L631 113 L453 113 L453 232 L589 425 L762 425 L762 205 L801 205 L801 113 L762 113 L762 92 Z M631 316 L555 205 L631 205 L631 316 Z " />
<glyph glyph-name="onehalf" unicode="&#xbd;" horiz-adv-x="872" d="M287 387 L287 284 L30 284 L30 387 L87 387 L87 584 L30 554 L30 662 L118 709 L231 709 L231 387 L287 387 Z M157 0 L529 709 L663 709 L291 0 L157 0 Z M842 150 L842 0 L498 0 L498 26 Q498 79 512 114 Q526 149 552.5 173.5 Q579 198 627 227 L664 248 Q693 264 704 274 Q715 284 715 300 Q715 314 706 322.5 Q697 331 679 331 Q654 331 639.5 311 Q625 291 622 261 L507 261 Q505 349 551.5 392 Q598 435 680 435 Q764 435 803 399 Q842 363 842 307 Q842 268 826.5 242.5 Q811 217 787.5 200.5 Q764 184 721 160 Q700 150 696 147 Q652 122 635 105 L740 105 L744 150 L842 150 Z " />
<glyph glyph-name="threequarters" unicode="&#xbe;" horiz-adv-x="883" d="M369 411 Q369 352 326.5 313.5 Q284 275 206 275 Q18 275 28 442 L144 442 Q146 379 198 379 Q220 379 231 389.5 Q242 400 242 416 Q242 437 225.5 448 Q209 459 169 459 L169 546 Q207 547 221 556.5 Q235 566 235 585 Q235 599 225 608.5 Q215 618 196 618 Q151 618 145 568 L33 568 Q34 639 77 679 Q120 719 197 719 Q278 719 318.5 685 Q359 651 359 598 Q359 532 301 508 Q369 480 369 411 Z M209 0 L581 709 L715 709 L343 0 L209 0 Z M814 92 L841 92 L841 0 L642 0 L642 92 L683 92 L683 113 L505 113 L505 232 L641 425 L814 425 L814 205 L853 205 L853 113 L814 113 L814 92 Z M683 316 L607 205 L683 205 L683 316 Z " />
<glyph glyph-name="percent" unicode="&#x25;" horiz-adv-x="903" d="M396 510 Q396 417 347 360 Q298 303 213 303 Q128 303 79 360 Q30 417 30 510 Q30 603 79 661 Q128 719 213 719 Q298 719 347 661 Q396 603 396 510 Z M199 0 L571 709 L705 709 L333 0 L199 0 Z M163 510 Q163 407 213 407 Q263 407 263 510 Q263 614 213 614 Q163 614 163 510 Z M873 197 Q873 104 824 47 Q775 -10 690 -10 Q605 -10 556 47 Q507 104 507 197 Q507 290 556 348 Q605 406 690 406 Q775 406 824 348 Q873 290 873 197 Z M640 197 Q640 94 690 94 Q740 94 740 197 Q740 301 690 301 Q640 301 640 197 Z " />
<glyph glyph-name="perthousand" unicode="&#x2030;" horiz-adv-x="1294" d="M396 510 Q396 417 347 360 Q298 303 213 303 Q128 303 79 360 Q30 417 30 510 Q30 603 79 661 Q128 719 213 719 Q298 719 347 661 Q396 603 396 510 Z M199 0 L571 709 L705 709 L333 0 L199 0 Z M163 510 Q163 407 213 407 Q263 407 263 510 Q263 614 213 614 Q163 614 163 510 Z M873 197 Q873 104 824 47 Q775 -10 690 -10 Q605 -10 556 47 Q507 104 507 197 Q507 290 556 348 Q605 406 690 406 Q775 406 824 348 Q873 290 873 197 Z M1264 197 Q1264 104 1215 47 Q1166 -10 1081 -10 Q996 -10 947 47 Q898 104 898 197 Q898 290 947 348 Q996 406 1081 406 Q1166 406 1215 348 Q1264 290 1264 197 Z M640 197 Q640 94 690 94 Q740 94 740 197 Q740 301 690 301 Q640 301 640 197 Z M1031 197 Q1031 94 1081 94 Q1131 94 1131 197 Q1131 301 1081 301 Q1031 301 1031 197 Z " />
<glyph glyph-name="plus" unicode="&#x2b;" horiz-adv-x="580" d="M373 220 L373 39 L207 39 L207 220 L30 220 L30 378 L207 378 L207 559 L373 559 L373 378 L550 378 L550 220 L373 220 Z " />
<glyph glyph-name="minus" unicode="&#x2212;" horiz-adv-x="580" d="M30 220 L30 378 L550 378 L550 220 L30 220 Z " />
<glyph glyph-name="plusminus" unicode="&#xb1;" horiz-adv-x="580" d="M550 340 L373 340 L373 199 L207 199 L207 340 L30 340 L30 498 L207 498 L207 639 L373 639 L373 498 L550 498 L550 340 Z M550 158 L550 0 L30 0 L30 158 L550 158 Z " />
<glyph glyph-name="multiply" unicode="&#xd7;" horiz-adv-x="580" d="M560 141 L448 29 L290 187 L132 29 L20 141 L178 299 L20 457 L132 569 L290 411 L448 569 L560 457 L402 299 L560 141 Z " />
<glyph glyph-name="divide" unicode="&#xf7;" horiz-adv-x="580" d="M30 228 L30 386 L550 386 L550 228 L30 228 Z M182 0 L182 197 L388 197 L388 0 L182 0 Z M182 416 L182 613 L388 613 L388 416 L182 416 Z " />
<glyph glyph-name="equal" unicode="&#x3d;" horiz-adv-x="580" d="M30 111 L30 269 L550 269 L550 111 L30 111 Z M30 330 L30 488 L550 488 L550 330 L30 330 Z " />
<glyph glyph-name="notequal" unicode="&#x2260;" horiz-adv-x="580" d="M365 268 L550 268 L550 110 L311 110 L277 12 L107 12 L141 110 L30 110 L30 268 L195 268 L216 330 L30 330 L30 488 L270 488 L304 587 L474 587 L440 488 L550 488 L550 330 L386 330 L365 268 Z " />
<glyph glyph-name="approxequal" unicode="&#x2248;" horiz-adv-x="580" d="M293 473 Q326 458 346.5 450.5 Q367 443 390 443 Q417 443 438 454 Q459 465 489 498 L565 397 Q511 342 476.5 323.5 Q442 305 397 305 Q373 305 349.5 313 Q326 321 295 336 Q260 352 238 359.5 Q216 367 191 367 Q161 367 140.5 355 Q120 343 90 313 L15 415 Q62 463 100 484.5 Q138 506 182 506 Q210 506 234 498 Q258 490 293 473 Z M293 253 Q324 239 345.5 231.5 Q367 224 390 224 Q418 224 439 234.5 Q460 245 489 279 L565 178 Q511 123 476.5 104.5 Q442 86 397 86 Q373 86 350.5 94 Q328 102 295 118 Q262 134 239 142 Q216 150 191 150 Q162 150 141.5 137 Q121 124 90 93 L15 195 Q63 243 100.5 264 Q138 285 182 285 Q210 285 235 277 Q260 269 293 253 Z " />
<glyph glyph-name="less" unicode="&#x3c;" horiz-adv-x="580" d="M550.002 50 L550.002 208 L235.021 299 L550.002 390 L550.002 548 L30.0336 378 L30.0336 220 L550.002 50 Z " />
<glyph glyph-name="greater" unicode="&#x3e;" horiz-adv-x="580" d="M30 50 L30 208 L345 299 L30 390 L30 548 L550 378 L550 220 L30 50 Z " />
<glyph glyph-name="lessequal" unicode="&#x2264;" horiz-adv-x="580" d="M550.002 170 L550.002 328 L235.021 419 L550.002 510 L550.002 668 L30.0336 498 L30.0336 340 L550.002 170 Z M550.002 2 L550.002 160 L30.0336 160 L30.0336 2 L550.002 2 Z " />
<glyph glyph-name="greaterequal" unicode="&#x2265;" horiz-adv-x="580" d="M30 170 L30 328 L345 419 L30 510 L30 668 L550 498 L550 340 L30 170 Z M30 2 L30 160 L550 160 L550 2 L30 2 Z " />
<glyph glyph-name="logicalnot" unicode="&#xac;" horiz-adv-x="580" d="M384 39 L384 220 L30 220 L30 378 L550 378 L550 39 L384 39 Z " />
<glyph glyph-name="mu" unicode="&#xb5;" horiz-adv-x="598" d="M363 0 L363 55 Q327 -11 258 -11 L251 -11 L251 -40 L290 -40 L290 -200 L20 -200 L20 -40 L59 -40 L59 388 L20 388 L20 548 L251 548 L251 204 Q251 151 298 151 Q328 151 347 173 L347 388 L308 388 L308 548 L539 548 L539 131 L578 131 L578 0 L363 0 Z " />
<glyph glyph-name="pi" unicode="&#x3c0;" horiz-adv-x="560" d="M530 163 L540 163 L540 0 Q502 -10 459 -10 Q405 -10 372.5 4 Q340 18 324.5 51.5 Q309 85 309 144 L309 388 L251 388 L251 160 L285 160 L285 0 L20 0 L20 160 L59 160 L59 388 L20 388 L20 548 L540 548 L540 388 L501 388 L501 191 Q501 175 507 169 Q513 163 530 163 Z " />
<glyph glyph-name="degree" unicode="&#xb0;" horiz-adv-x="374" d="M187 772 Q235 772 274.5 749.5 Q314 727 336.5 689 Q359 651 359 606 Q359 561 336.5 523 Q314 485 274.5 462.5 Q235 440 187 440 Q139 440 99.5 462.5 Q60 485 37.5 523 Q15 561 15 606 Q15 651 37.5 689 Q60 727 99.5 749.5 Q139 772 187 772 Z M187 667 Q160 667 143.5 649.5 Q127 632 127 606 Q127 580 143.5 562.5 Q160 545 187 545 Q213 545 229 562.5 Q245 580 245 606 Q245 632 229 649.5 Q213 667 187 667 Z " />
<glyph glyph-name="infinity" unicode="&#x221e;" horiz-adv-x="861" d="M798 290 Q798 233 771 189.5 Q744 146 699 122 Q654 98 601 98 Q565 98 519 121.5 Q473 145 432 185 Q390 137 345 117.5 Q300 98 261 98 Q208 98 162.5 122 Q117 146 90 189.5 Q63 233 63 290 Q63 347 89.5 391 Q116 435 159.5 459.5 Q203 484 253 484 Q303 484 350.5 459.5 Q398 435 437 392 Q474 440 519.5 462 Q565 484 608 484 Q658 484 701.5 459.5 Q745 435 771.5 391 Q798 347 798 290 Z M351 280 Q320 317 300 330.5 Q280 344 258 344 Q243 344 226 329.5 Q209 315 209 289 Q209 263 226 249 Q243 235 263 235 Q284 235 307 246 Q330 257 351 280 Z M652 289 Q652 315 635 329.5 Q618 344 603 344 Q578 344 558 332.5 Q538 321 515 291 Q539 259 558.5 246 Q578 233 603 233 Q620 233 636 248 Q652 263 652 289 Z " />
<glyph glyph-name="partialdiff" unicode="&#x2202;" horiz-adv-x="570" d="M560 274 Q560 141 512 63.5 Q464 -14 373 -14 Q324 -14 287 9.5 Q250 33 230 75 L230 0 L20 0 L20 160 L59 160 L59 549 L20 549 L20 709 L245 709 L245 490 Q266 526 297.5 544 Q329 562 373 562 Q462 562 511 484.5 Q560 407 560 274 Z M362 274 Q362 339 342 369 Q322 399 290 399 Q266 399 245 387 L245 161 Q266 149 290 149 Q322 149 342 179 Q362 209 362 274 Z " />
<glyph glyph-name="integral" unicode="&#x222b;" horiz-adv-x="570" d="M560 274 Q560 141 512 63.5 Q464 -14 373 -14 Q324 -14 287 9.5 Q250 33 230 75 L230 0 L20 0 L20 160 L59 160 L59 549 L20 549 L20 709 L245 709 L245 490 Q266 526 297.5 544 Q329 562 373 562 Q462 562 511 484.5 Q560 407 560 274 Z M362 274 Q362 339 342 369 Q322 399 290 399 Q266 399 245 387 L245 161 Q266 149 290 149 Q322 149 342 179 Q362 209 362 274 Z " />
<glyph glyph-name="radical" unicode="&#x221a;" horiz-adv-x="661" d="M35 363 L35 560 L241 560 L241 363 L35 363 Z M283 193 L283 367 L631 367 L631 193 L283 193 Z M35 0 L35 197 L241 197 L241 0 L35 0 Z " />
<glyph glyph-name="summation" unicode="&#x2211;" horiz-adv-x="561" d="M408 311 L227 60 L381 60 L390 167 L543 167 L543 -100 L20 -100 L20 60 L201 311 L20 549 L20 709 L543 709 L543 442 L390 442 L381 549 L230 549 L408 311 Z " />
<glyph glyph-name="product" unicode="&#x220f;" horiz-adv-x="654" d="M634 60 L634 -100 L350 -100 L350 60 L395 60 L395 549 L259 549 L259 60 L304 60 L304 -100 L20 -100 L20 60 L65 60 L65 549 L20 549 L20 709 L634 709 L634 549 L589 549 L589 60 L634 60 Z " />
<glyph glyph-name="lozenge" unicode="&#x25ca;" horiz-adv-x="508" d="M200 41 L20 344 L200 648 L308 648 L488 344 L308 41 L200 41 Z M177 344 L254 214 L331 344 L254 475 L177 344 Z " />
<glyph glyph-name="uni0410" unicode="&#x410;" horiz-adv-x="629" d="M345 0 L345 160 L386 160 L377 206 L243 206 L233 160 L271 160 L271 0 L14 0 L14 160 L47 160 L149 549 L107 549 L107 709 L523 709 L523 549 L483 549 L583 160 L615 160 L615 0 L345 0 Z M271 346 L349 346 L310 537 L271 346 Z " />
<glyph glyph-name="uni0411" unicode="&#x411;" horiz-adv-x="577" d="M561 217 Q561 152 532.5 102.5 Q504 53 452.5 26.5 Q401 0 335 0 L20 0 L20 160 L65 160 L65 549 L20 549 L20 709 L512 709 L512 462 L360 462 L351 549 L259 549 L259 434 L335 434 Q401 434 452.5 407.5 Q504 381 532.5 331.5 Q561 282 561 217 Z M369 217 Q369 246 349.5 260 Q330 274 304 274 L259 274 L259 160 L304 160 Q330 160 349.5 174 Q369 188 369 217 Z " />
<glyph glyph-name="uni0412" unicode="&#x412;" horiz-adv-x="574" d="M568 212 Q568 108 510 54 Q452 0 336 0 L20 0 L20 160 L65 160 L65 549 L20 549 L20 709 L323 709 Q428 709 486.5 662 Q545 615 545 529 Q545 423 454 381 Q509 360 538.5 317 Q568 274 568 212 Z M292 435 Q324 435 342 448 Q360 461 360 494 Q360 549 292 549 L259 549 L259 435 L292 435 Z M373 233 Q373 304 293 304 L259 304 L259 160 L293 160 Q331 160 352 178 Q373 196 373 233 Z " />
<glyph glyph-name="uni0413" unicode="&#x413;" horiz-adv-x="524" d="M361 400 L349 549 L259 549 L259 160 L309 160 L309 0 L20 0 L20 160 L65 160 L65 549 L20 549 L20 709 L507 709 L507 400 L361 400 Z " />
<glyph glyph-name="uni0414" unicode="&#x414;" horiz-adv-x="644" d="M624 -90 L472 -90 L463 0 L177 0 L168 -90 L16 -90 L16 160 L25 160 Q49 160 65.5 171 Q82 182 93.5 215.5 Q105 249 112.5 311 Q120 373 125 475 L129 549 L81 549 L81 709 L614 709 L614 549 L569 549 L569 160 L624 160 L624 -90 Z M304 549 L300 470 Q297 408 292 359.5 Q287 311 281 273.5 Q275 236 267.5 208 Q260 180 251 160 L375 160 L375 549 L304 549 Z " />
<glyph glyph-name="uni0415" unicode="&#x415;" horiz-adv-x="551" d="M379 442 L370 549 L259 549 L259 431 L366 431 L366 286 L259 286 L259 160 L369 160 L379 277 L531 277 L531 0 L20 0 L20 160 L65 160 L65 549 L20 549 L20 709 L531 709 L531 442 L379 442 Z " />
<glyph glyph-name="uni0416" unicode="&#x416;" horiz-adv-x="878" d="M681 0 L536 295 L536 160 L571 160 L571 0 L307 0 L307 160 L342 160 L342 295 L197 0 L16 0 L16 160 L57 160 L178 380 L56 549 L18 549 L18 709 L266 709 L266 549 L243 549 L342 414 L342 549 L307 549 L307 709 L571 709 L571 549 L536 549 L536 414 L635 549 L612 549 L612 709 L860 709 L860 549 L822 549 L700 380 L821 160 L862 160 L862 0 L681 0 Z " />
<glyph glyph-name="uni0417" unicode="&#x417;" horiz-adv-x="558" d="M550 212 Q550 147 521.5 96.5 Q493 46 436 16.5 Q379 -13 296 -13 Q11 -13 11 248 L173 248 Q177 203 201.5 175 Q226 147 271 147 Q309 147 328 165.5 Q347 184 347 218 Q347 295 222 295 L189 295 L189 436 L222 436 Q279 436 307 452.5 Q335 469 335 504 Q335 533 317 548.5 Q299 564 267 564 Q234 564 209.5 542.5 Q185 521 178 475 L28 475 L28 711 L178 711 L178 674 Q226 722 317 722 Q413 722 472 670.5 Q531 619 531 531 Q531 475 506 437.5 Q481 400 437 379 Q550 335 550 212 Z " />
<glyph glyph-name="uni0418" unicode="&#x418;" horiz-adv-x="680" d="M615 160 L660 160 L660 0 L386 0 L386 160 L431 160 L431 395 L259 0 L20 0 L20 160 L65 160 L65 549 L20 549 L20 709 L294 709 L294 549 L249 549 L249 314 L421 709 L660 709 L660 549 L615 549 L615 160 Z " />
<glyph glyph-name="uni0419" unicode="&#x419;" horiz-adv-x="680" d="M615 160 L660 160 L660 0 L386 0 L386 160 L431 160 L431 395 L259 0 L20 0 L20 160 L65 160 L65 549 L20 549 L20 709 L184 709 Q172 736 172 772 L290 772 Q290 741 305 725 Q320 709 347 709 Q374 709 389 725 Q404 741 404 772 L522 772 Q522 735 509 709 L660 709 L660 549 L615 549 L615 160 Z M347 625 Q311 625 294 632 L294 549 L249 549 L249 313 L385 627 Q359 625 347 625 Z " />
<glyph glyph-name="uni041A" unicode="&#x41a;" horiz-adv-x="611" d="M414 0 L259 302 L259 160 L294 160 L294 0 L20 0 L20 160 L65 160 L65 549 L20 549 L20 709 L294 709 L294 549 L259 549 L259 409 L365 549 L345 549 L345 709 L593 709 L593 549 L557 549 L429 388 L554 160 L595 160 L595 0 L414 0 Z " />
<glyph glyph-name="uni041B" unicode="&#x41b;" horiz-adv-x="636" d="M616 160 L616 0 L332 0 L332 160 L377 160 L377 549 L304 549 L301 482 Q293 332 284.5 236 Q276 140 256 85 Q236 30 199 9.5 Q162 -11 97 -11 Q70 -11 48.5 -7 Q27 -3 16 1 L16 167 Q23 166 26.5 166 Q30 166 32 166 Q57 166 73 178 Q89 190 98 224.5 Q107 259 113 321 Q119 383 126 487 L130 549 L81 549 L81 709 L616 709 L616 549 L571 549 L571 160 L616 160 Z " />
<glyph glyph-name="uni041C" unicode="&#x41c;" horiz-adv-x="813" d="M793 160 L793 0 L529 0 L529 160 L569 160 L569 505 L451 0 L337 0 L224 507 L224 160 L264 160 L264 0 L20 0 L20 160 L60 160 L60 549 L20 549 L20 709 L346 709 L409 391 L477 709 L793 709 L793 549 L753 549 L753 160 L793 160 Z " />
<glyph glyph-name="uni041D" unicode="&#x41d;" horiz-adv-x="664" d="M644 160 L644 0 L360 0 L360 160 L405 160 L405 291 L259 291 L259 160 L304 160 L304 0 L20 0 L20 160 L65 160 L65 549 L20 549 L20 709 L304 709 L304 549 L259 549 L259 436 L405 436 L405 549 L360 549 L360 709 L644 709 L644 549 L599 549 L599 160 L644 160 Z " />
<glyph glyph-name="uni041E" unicode="&#x41e;" horiz-adv-x="624" d="M606 354 Q606 179 532 82 Q458 -15 312 -15 Q166 -15 92 82 Q18 179 18 354 Q18 529 92 626.5 Q166 724 312 724 Q458 724 532 626.5 Q606 529 606 354 Z M224 354 Q224 251 244.5 200.5 Q265 150 312 150 Q359 150 379.5 200.5 Q400 251 400 354 Q400 458 379.5 508.5 Q359 559 312 559 Q265 559 244.5 508.5 Q224 458 224 354 Z " />
<glyph glyph-name="uni041F" unicode="&#x41f;" horiz-adv-x="642" d="M622 160 L622 0 L343 0 L343 160 L383 160 L383 549 L259 549 L259 160 L299 160 L299 0 L20 0 L20 160 L65 160 L65 549 L20 549 L20 709 L622 709 L622 549 L577 549 L577 160 L622 160 Z " />
<glyph glyph-name="uni0420" unicode="&#x420;" horiz-adv-x="571" d="M566 482 Q566 414 537.5 362.5 Q509 311 457.5 283 Q406 255 340 255 L259 255 L259 160 L309 160 L309 0 L20 0 L20 160 L65 160 L65 549 L20 549 L20 709 L340 709 Q406 709 457.5 681 Q509 653 537.5 601.5 Q566 550 566 482 Z M374 482 Q374 516 354.5 532.5 Q335 549 309 549 L259 549 L259 415 L309 415 Q335 415 354.5 431.5 Q374 448 374 482 Z " />
<glyph glyph-name="uni0421" unicode="&#x421;" horiz-adv-x="569" d="M304 -15 Q158 -15 88 82 Q18 179 18 354 Q18 533 83.5 628 Q149 723 269 723 Q354 723 398 674 L399 711 L549 711 L549 460 L389 460 Q378 559 312 559 Q266 559 245 508.5 Q224 458 224 354 Q224 255 245 206 Q266 157 313 157 Q353 157 371 190.5 Q389 224 393 286 L559 286 Q559 -15 304 -15 Z " />
<glyph glyph-name="uni0422" unicode="&#x422;" horiz-adv-x="642" d="M479 400 L467 549 L418 549 L418 160 L473 160 L473 0 L169 0 L169 160 L224 160 L224 549 L175 549 L163 400 L17 400 L17 709 L625 709 L625 400 L479 400 Z " />
<glyph glyph-name="uni0423" unicode="&#x423;" horiz-adv-x="579" d="M367 140 Q328 50 283 21.5 Q238 -7 173 -7 Q104 -7 62 14 L62 167 Q89 158 130 158 Q160 158 177 165.5 Q194 173 207 190 L44 549 L16 549 L16 709 L275 709 L275 549 L247 549 L295 420 L342 549 L320 549 L320 709 L563 709 L563 549 L534 549 L367 140 Z " />
<glyph glyph-name="uni0424" unicode="&#x424;" horiz-adv-x="694" d="M444 137 L444 101 L489 101 L489 -29 L205 -29 L205 101 L250 101 L250 137 Q131 154 74.5 212.5 Q18 271 18 355 Q18 439 74.5 498 Q131 557 250 574 L250 609 L205 609 L205 739 L489 739 L489 609 L444 609 L444 574 Q563 557 619.5 498 Q676 439 676 355 Q676 271 619.5 212.5 Q563 154 444 137 Z M255 288 L255 423 Q219 416 202.5 398 Q186 380 186 355 Q186 330 202.5 312.5 Q219 295 255 288 Z M439 423 L439 288 Q475 295 491.5 312.5 Q508 330 508 355 Q508 380 491.5 397.5 Q475 415 439 423 Z " />
<glyph glyph-name="uni0425" unicode="&#x425;" horiz-adv-x="605" d="M559 160 L589 160 L589 0 L319 0 L319 160 L350 160 L297 265 L243 160 L273 160 L273 0 L16 0 L16 160 L44 160 L175 359 L46 549 L16 549 L16 709 L288 709 L288 549 L259 549 L308 461 L359 549 L331 549 L331 709 L589 709 L589 549 L560 549 L431 366 L559 160 Z " />
<glyph glyph-name="uni0426" unicode="&#x426;" horiz-adv-x="659" d="M487 -90 L478 0 L20 0 L20 160 L65 160 L65 549 L20 549 L20 709 L299 709 L299 549 L259 549 L259 160 L390 160 L390 549 L350 549 L350 709 L629 709 L629 549 L584 549 L584 160 L639 160 L639 -90 L487 -90 Z " />
<glyph glyph-name="uni0427" unicode="&#x427;" horiz-adv-x="647" d="M627 160 L627 0 L338 0 L338 160 L388 160 L388 266 Q333 227 252 226 Q161 226 110 274.5 Q59 323 59 416 L59 549 L17 549 L17 709 L298 709 L298 549 L253 549 L253 462 Q251 383 322 385 Q361 385 388 401 L388 549 L343 549 L343 709 L627 709 L627 549 L582 549 L582 160 L627 160 Z " />
<glyph glyph-name="uni0428" unicode="&#x428;" horiz-adv-x="954" d="M934 160 L934 0 L20 0 L20 160 L65 160 L65 549 L20 549 L20 709 L299 709 L299 549 L259 549 L259 160 L380 160 L380 549 L340 549 L340 709 L614 709 L614 549 L574 549 L574 160 L695 160 L695 549 L655 549 L655 709 L934 709 L934 549 L889 549 L889 160 L934 160 Z " />
<glyph glyph-name="uni0429" unicode="&#x429;" horiz-adv-x="964" d="M944 -90 L792 -90 L783 0 L20 0 L20 160 L65 160 L65 549 L20 549 L20 709 L299 709 L299 549 L259 549 L259 160 L380 160 L380 549 L340 549 L340 709 L614 709 L614 549 L574 549 L574 160 L695 160 L695 549 L655 549 L655 709 L934 709 L934 549 L889 549 L889 160 L944 160 L944 -90 Z " />
<glyph glyph-name="uni042A" unicode="&#x42a;" horiz-adv-x="746" d="M730 217 Q730 152 701.5 102.5 Q673 53 621.5 26.5 Q570 0 504 0 L179 0 L179 160 L224 160 L224 549 L178 549 L169 459 L17 459 L17 709 L468 709 L468 549 L418 549 L418 434 L504 434 Q570 434 621.5 407.5 Q673 381 701.5 331.5 Q730 282 730 217 Z M538 217 Q538 246 518.5 260 Q499 274 473 274 L418 274 L418 160 L473 160 Q499 160 518.5 174 Q538 188 538 217 Z " />
<glyph glyph-name="uni042B" unicode="&#x42b;" horiz-adv-x="891" d="M571 222 Q571 154 542.5 104 Q514 54 462.5 27 Q411 0 345 0 L20 0 L20 160 L65 160 L65 549 L20 549 L20 709 L309 709 L309 549 L259 549 L259 444 L345 444 Q411 444 462.5 417 Q514 390 542.5 340 Q571 290 571 222 Z M379 222 Q379 254 359.5 269 Q340 284 314 284 L259 284 L259 160 L314 160 Q340 160 359.5 175 Q379 190 379 222 Z M871 160 L871 0 L587 0 L587 160 L632 160 L632 549 L587 549 L587 709 L871 709 L871 549 L826 549 L826 160 L871 160 Z " />
<glyph glyph-name="uni042C" unicode="&#x42c;" horiz-adv-x="587" d="M571 222 Q571 154 542.5 104 Q514 54 462.5 27 Q411 0 345 0 L20 0 L20 160 L65 160 L65 549 L20 549 L20 709 L309 709 L309 549 L259 549 L259 444 L345 444 Q411 444 462.5 417 Q514 390 542.5 340 Q571 290 571 222 Z M379 222 Q379 254 359.5 269 Q340 284 314 284 L259 284 L259 160 L314 160 Q340 160 359.5 175 Q379 190 379 222 Z " />
<glyph glyph-name="uni042D" unicode="&#x42d;" horiz-adv-x="569" d="M551 366 Q551 180 480.5 82.5 Q410 -15 265 -15 Q10 -15 10 270 L176 270 Q177 220 195 188.5 Q213 157 256 157 Q293 157 313.5 188.5 Q334 220 341 283 L208 283 L208 428 L343 428 Q338 495 319 527 Q300 559 262 559 Q226 559 205 533 Q184 507 180 452 L20 452 L20 711 L170 711 L172 673 Q215 723 302 723 Q427 723 489 630.5 Q551 538 551 366 Z " />
<glyph glyph-name="uni042E" unicode="&#x42e;" horiz-adv-x="870" d="M852 354 Q852 -14 578 -14 Q328 -14 306 291 L259 291 L259 160 L304 160 L304 0 L20 0 L20 160 L65 160 L65 549 L20 549 L20 709 L304 709 L304 549 L259 549 L259 436 L308 436 Q335 723 578 723 Q852 723 852 354 Z M646 354 Q646 462 632 510 Q618 558 578 558 Q538 558 524 510 Q510 462 510 354 Q510 247 524 199 Q538 151 578 151 Q618 151 632 199 Q646 247 646 354 Z " />
<glyph glyph-name="uni042F" unicode="&#x42f;" horiz-adv-x="587" d="M190.024 0 L328.016 295 L328.016 160 L288.018 160 L288.018 0 L567.001 0 L567.001 160 L522.004 160 L522.004 549 L567.001 549 L567.001 709 L249.021 709 Q146.027 709 84.5307 654.5 Q23.0344 600 23.0344 498 Q23.0344 429 54.0325 383 Q85.0306 337 139.027 314 L55.0325 160 L16.0349 160 L16.0349 0 L190.024 0 Z M280.019 415 Q254.02 415 234.022 431 Q214.023 447 214.023 481 Q214.023 515 234.022 532 Q254.02 549 280.019 549 L328.016 549 L328.016 415 L280.019 415 Z " />
<glyph glyph-name="uni0490" unicode="&#x490;" horiz-adv-x="493" d="M259 549 L259 160 L309 160 L309 0 L20 0 L20 160 L65 160 L65 549 L20 549 L20 709 L316 709 L325 799 L477 799 L477 549 L259 549 Z " />
<glyph glyph-name="uni0406" unicode="&#x406;" horiz-adv-x="324" d="M304 160 L304 0 L20 0 L20 160 L65 160 L65 549 L20 549 L20 709 L304 709 L304 549 L259 549 L259 160 L304 160 Z " />
<glyph glyph-name="uni0456" unicode="&#x456;" horiz-adv-x="324" d="M304 160 L304 0 L20 0 L20 160 L65 160 L65 549 L20 549 L20 709 L304 709 L304 549 L259 549 L259 160 L304 160 Z " />
<glyph glyph-name="uni0491" unicode="&#x491;" horiz-adv-x="493" d="M259 549 L259 160 L309 160 L309 0 L20 0 L20 160 L65 160 L65 549 L20 549 L20 709 L316 709 L325 799 L477 799 L477 549 L259 549 Z " />
<glyph glyph-name="uni0401" unicode="&#x401;" horiz-adv-x="551" d="M259 411 L358 411 L358 266 L259 266 L259 160 L369 160 L379 257 L531 257 L531 0 L20 0 L20 160 L65 160 L65 509 L20 509 L20 669 L103 669 L103 766 L251 766 L251 669 L312 669 L312 766 L460 766 L460 669 L531 669 L531 422 L379 422 L370 509 L259 509 L259 411 Z " />
<glyph glyph-name="uni0451" unicode="&#x451;" horiz-adv-x="551" d="M259 411 L358 411 L358 266 L259 266 L259 160 L369 160 L379 257 L531 257 L531 0 L20 0 L20 160 L65 160 L65 509 L20 509 L20 669 L103 669 L103 766 L251 766 L251 669 L312 669 L312 766 L460 766 L460 669 L531 669 L531 422 L379 422 L370 509 L259 509 L259 411 Z " />
<glyph glyph-name="uni044F" unicode="&#x44f;" horiz-adv-x="587" d="M190.024 0 L328.016 295 L328.016 160 L288.018 160 L288.018 0 L567.001 0 L567.001 160 L522.004 160 L522.004 549 L567.001 549 L567.001 709 L249.021 709 Q146.027 709 84.5307 654.5 Q23.0344 600 23.0344 498 Q23.0344 429 54.0325 383 Q85.0306 337 139.027 314 L55.0325 160 L16.0349 160 L16.0349 0 L190.024 0 Z M280.019 415 Q254.02 415 234.022 431 Q214.023 447 214.023 481 Q214.023 515 234.022 532 Q254.02 549 280.019 549 L328.016 549 L328.016 415 L280.019 415 Z " />
<glyph glyph-name="uni0430" unicode="&#x430;" horiz-adv-x="629" d="M345 0 L345 160 L386 160 L377 206 L243 206 L233 160 L271 160 L271 0 L14 0 L14 160 L47 160 L149 549 L107 549 L107 709 L523 709 L523 549 L483 549 L583 160 L615 160 L615 0 L345 0 Z M271 346 L349 346 L310 537 L271 346 Z " />
<glyph glyph-name="uni0431" unicode="&#x431;" horiz-adv-x="577" d="M561 217 Q561 152 532.5 102.5 Q504 53 452.5 26.5 Q401 0 335 0 L20 0 L20 160 L65 160 L65 549 L20 549 L20 709 L512 709 L512 462 L360 462 L351 549 L259 549 L259 434 L335 434 Q401 434 452.5 407.5 Q504 381 532.5 331.5 Q561 282 561 217 Z M369 217 Q369 246 349.5 260 Q330 274 304 274 L259 274 L259 160 L304 160 Q330 160 349.5 174 Q369 188 369 217 Z " />
<glyph glyph-name="uni0432" unicode="&#x432;" horiz-adv-x="574" d="M568 212 Q568 108 510 54 Q452 0 336 0 L20 0 L20 160 L65 160 L65 549 L20 549 L20 709 L323 709 Q428 709 486.5 662 Q545 615 545 529 Q545 423 454 381 Q509 360 538.5 317 Q568 274 568 212 Z M292 435 Q324 435 342 448 Q360 461 360 494 Q360 549 292 549 L259 549 L259 435 L292 435 Z M373 233 Q373 304 293 304 L259 304 L259 160 L293 160 Q331 160 352 178 Q373 196 373 233 Z " />
<glyph glyph-name="uni0433" unicode="&#x433;" horiz-adv-x="524" d="M361 400 L349 549 L259 549 L259 160 L309 160 L309 0 L20 0 L20 160 L65 160 L65 549 L20 549 L20 709 L507 709 L507 400 L361 400 Z " />
<glyph glyph-name="uni0434" unicode="&#x434;" horiz-adv-x="644" d="M624 -90 L472 -90 L463 0 L177 0 L168 -90 L16 -90 L16 160 L25 160 Q49 160 65.5 171 Q82 182 93.5 215.5 Q105 249 112.5 311 Q120 373 125 475 L129 549 L81 549 L81 709 L614 709 L614 549 L569 549 L569 160 L624 160 L624 -90 Z M304 549 L300 470 Q297 408 292 359.5 Q287 311 281 273.5 Q275 236 267.5 208 Q260 180 251 160 L375 160 L375 549 L304 549 Z " />
<glyph glyph-name="uni0435" unicode="&#x435;" horiz-adv-x="551" d="M379 442 L370 549 L259 549 L259 431 L366 431 L366 286 L259 286 L259 160 L369 160 L379 277 L531 277 L531 0 L20 0 L20 160 L65 160 L65 549 L20 549 L20 709 L531 709 L531 442 L379 442 Z " />
<glyph glyph-name="uni0436" unicode="&#x436;" horiz-adv-x="878" d="M681 0 L536 295 L536 160 L571 160 L571 0 L307 0 L307 160 L342 160 L342 295 L197 0 L16 0 L16 160 L57 160 L178 380 L56 549 L18 549 L18 709 L266 709 L266 549 L243 549 L342 414 L342 549 L307 549 L307 709 L571 709 L571 549 L536 549 L536 414 L635 549 L612 549 L612 709 L860 709 L860 549 L822 549 L700 380 L821 160 L862 160 L862 0 L681 0 Z " />
<glyph glyph-name="uni0437" unicode="&#x437;" horiz-adv-x="558" d="M550 212 Q550 147 521.5 96.5 Q493 46 436 16.5 Q379 -13 296 -13 Q11 -13 11 248 L173 248 Q177 203 201.5 175 Q226 147 271 147 Q309 147 328 165.5 Q347 184 347 218 Q347 295 222 295 L189 295 L189 436 L222 436 Q279 436 307 452.5 Q335 469 335 504 Q335 533 317 548.5 Q299 564 267 564 Q234 564 209.5 542.5 Q185 521 178 475 L28 475 L28 711 L178 711 L178 674 Q226 722 317 722 Q413 722 472 670.5 Q531 619 531 531 Q531 475 506 437.5 Q481 400 437 379 Q550 335 550 212 Z " />
<glyph glyph-name="uni0438" unicode="&#x438;" horiz-adv-x="680" d="M615 160 L660 160 L660 0 L386 0 L386 160 L431 160 L431 395 L259 0 L20 0 L20 160 L65 160 L65 549 L20 549 L20 709 L294 709 L294 549 L249 549 L249 314 L421 709 L660 709 L660 549 L615 549 L615 160 Z " />
<glyph glyph-name="uni0439" unicode="&#x439;" horiz-adv-x="680" d="M615 160 L660 160 L660 0 L386 0 L386 160 L431 160 L431 395 L259 0 L20 0 L20 160 L65 160 L65 549 L20 549 L20 709 L184 709 Q172 736 172 772 L290 772 Q290 741 305 725 Q320 709 347 709 Q374 709 389 725 Q404 741 404 772 L522 772 Q522 735 509 709 L660 709 L660 549 L615 549 L615 160 Z M347 625 Q311 625 294 632 L294 549 L249 549 L249 313 L385 627 Q359 625 347 625 Z " />
<glyph glyph-name="uni043A" unicode="&#x43a;" horiz-adv-x="611" d="M414 0 L259 302 L259 160 L294 160 L294 0 L20 0 L20 160 L65 160 L65 549 L20 549 L20 709 L294 709 L294 549 L259 549 L259 409 L365 549 L345 549 L345 709 L593 709 L593 549 L557 549 L429 388 L554 160 L595 160 L595 0 L414 0 Z " />
<glyph glyph-name="uni043B" unicode="&#x43b;" horiz-adv-x="636" d="M616 160 L616 0 L332 0 L332 160 L377 160 L377 549 L304 549 L301 482 Q293 332 284.5 236 Q276 140 256 85 Q236 30 199 9.5 Q162 -11 97 -11 Q70 -11 48.5 -7 Q27 -3 16 1 L16 167 Q23 166 26.5 166 Q30 166 32 166 Q57 166 73 178 Q89 190 98 224.5 Q107 259 113 321 Q119 383 126 487 L130 549 L81 549 L81 709 L616 709 L616 549 L571 549 L571 160 L616 160 Z " />
<glyph glyph-name="uni043C" unicode="&#x43c;" horiz-adv-x="813" d="M793 160 L793 0 L529 0 L529 160 L569 160 L569 505 L451 0 L337 0 L224 507 L224 160 L264 160 L264 0 L20 0 L20 160 L60 160 L60 549 L20 549 L20 709 L346 709 L409 391 L477 709 L793 709 L793 549 L753 549 L753 160 L793 160 Z " />
<glyph glyph-name="uni043D" unicode="&#x43d;" horiz-adv-x="664" d="M644 160 L644 0 L360 0 L360 160 L405 160 L405 291 L259 291 L259 160 L304 160 L304 0 L20 0 L20 160 L65 160 L65 549 L20 549 L20 709 L304 709 L304 549 L259 549 L259 436 L405 436 L405 549 L360 549 L360 709 L644 709 L644 549 L599 549 L599 160 L644 160 Z " />
<glyph glyph-name="uni043E" unicode="&#x43e;" horiz-adv-x="624" d="M606 354 Q606 179 532 82 Q458 -15 312 -15 Q166 -15 92 82 Q18 179 18 354 Q18 529 92 626.5 Q166 724 312 724 Q458 724 532 626.5 Q606 529 606 354 Z M224 354 Q224 251 244.5 200.5 Q265 150 312 150 Q359 150 379.5 200.5 Q400 251 400 354 Q400 458 379.5 508.5 Q359 559 312 559 Q265 559 244.5 508.5 Q224 458 224 354 Z " />
<glyph glyph-name="uni043F" unicode="&#x43f;" horiz-adv-x="642" d="M622 160 L622 0 L343 0 L343 160 L383 160 L383 549 L259 549 L259 160 L299 160 L299 0 L20 0 L20 160 L65 160 L65 549 L20 549 L20 709 L622 709 L622 549 L577 549 L577 160 L622 160 Z " />
<glyph glyph-name="uni0440" unicode="&#x440;" horiz-adv-x="571" d="M566 482 Q566 414 537.5 362.5 Q509 311 457.5 283 Q406 255 340 255 L259 255 L259 160 L309 160 L309 0 L20 0 L20 160 L65 160 L65 549 L20 549 L20 709 L340 709 Q406 709 457.5 681 Q509 653 537.5 601.5 Q566 550 566 482 Z M374 482 Q374 516 354.5 532.5 Q335 549 309 549 L259 549 L259 415 L309 415 Q335 415 354.5 431.5 Q374 448 374 482 Z " />
<glyph glyph-name="uni0441" unicode="&#x441;" horiz-adv-x="569" d="M304 -15 Q158 -15 88 82 Q18 179 18 354 Q18 533 83.5 628 Q149 723 269 723 Q354 723 398 674 L399 711 L549 711 L549 460 L389 460 Q378 559 312 559 Q266 559 245 508.5 Q224 458 224 354 Q224 255 245 206 Q266 157 313 157 Q353 157 371 190.5 Q389 224 393 286 L559 286 Q559 -15 304 -15 Z " />
<glyph glyph-name="uni0442" unicode="&#x442;" horiz-adv-x="642" d="M479 400 L467 549 L418 549 L418 160 L473 160 L473 0 L169 0 L169 160 L224 160 L224 549 L175 549 L163 400 L17 400 L17 709 L625 709 L625 400 L479 400 Z " />
<glyph glyph-name="uni0443" unicode="&#x443;" horiz-adv-x="579" d="M367 140 Q328 50 283 21.5 Q238 -7 173 -7 Q104 -7 62 14 L62 167 Q89 158 130 158 Q160 158 177 165.5 Q194 173 207 190 L44 549 L16 549 L16 709 L275 709 L275 549 L247 549 L295 420 L342 549 L320 549 L320 709 L563 709 L563 549 L534 549 L367 140 Z " />
<glyph glyph-name="uni0444" unicode="&#x444;" horiz-adv-x="694" d="M444 137 L444 101 L489 101 L489 -29 L205 -29 L205 101 L250 101 L250 137 Q131 154 74.5 212.5 Q18 271 18 355 Q18 439 74.5 498 Q131 557 250 574 L250 609 L205 609 L205 739 L489 739 L489 609 L444 609 L444 574 Q563 557 619.5 498 Q676 439 676 355 Q676 271 619.5 212.5 Q563 154 444 137 Z M255 288 L255 423 Q219 416 202.5 398 Q186 380 186 355 Q186 330 202.5 312.5 Q219 295 255 288 Z M439 423 L439 288 Q475 295 491.5 312.5 Q508 330 508 355 Q508 380 491.5 397.5 Q475 415 439 423 Z " />
<glyph glyph-name="uni0445" unicode="&#x445;" horiz-adv-x="605" d="M559 160 L589 160 L589 0 L319 0 L319 160 L350 160 L297 265 L243 160 L273 160 L273 0 L16 0 L16 160 L44 160 L175 359 L46 549 L16 549 L16 709 L288 709 L288 549 L259 549 L308 461 L359 549 L331 549 L331 709 L589 709 L589 549 L560 549 L431 366 L559 160 Z " />
<glyph glyph-name="uni0446" unicode="&#x446;" horiz-adv-x="659" d="M487 -90 L478 0 L20 0 L20 160 L65 160 L65 549 L20 549 L20 709 L299 709 L299 549 L259 549 L259 160 L390 160 L390 549 L350 549 L350 709 L629 709 L629 549 L584 549 L584 160 L639 160 L639 -90 L487 -90 Z " />
<glyph glyph-name="uni0447" unicode="&#x447;" horiz-adv-x="647" d="M627 160 L627 0 L338 0 L338 160 L388 160 L388 266 Q333 227 252 226 Q161 226 110 274.5 Q59 323 59 416 L59 549 L17 549 L17 709 L298 709 L298 549 L253 549 L253 462 Q251 383 322 385 Q361 385 388 401 L388 549 L343 549 L343 709 L627 709 L627 549 L582 549 L582 160 L627 160 Z " />
<glyph glyph-name="uni0448" unicode="&#x448;" horiz-adv-x="954" d="M934 160 L934 0 L20 0 L20 160 L65 160 L65 549 L20 549 L20 709 L299 709 L299 549 L259 549 L259 160 L380 160 L380 549 L340 549 L340 709 L614 709 L614 549 L574 549 L574 160 L695 160 L695 549 L655 549 L655 709 L934 709 L934 549 L889 549 L889 160 L934 160 Z " />
<glyph glyph-name="uni0449" unicode="&#x449;" horiz-adv-x="964" d="M944 -90 L792 -90 L783 0 L20 0 L20 160 L65 160 L65 549 L20 549 L20 709 L299 709 L299 549 L259 549 L259 160 L380 160 L380 549 L340 549 L340 709 L614 709 L614 549 L574 549 L574 160 L695 160 L695 549 L655 549 L655 709 L934 709 L934 549 L889 549 L889 160 L944 160 L944 -90 Z " />
<glyph glyph-name="uni044A" unicode="&#x44a;" horiz-adv-x="746" d="M730 217 Q730 152 701.5 102.5 Q673 53 621.5 26.5 Q570 0 504 0 L179 0 L179 160 L224 160 L224 549 L178 549 L169 459 L17 459 L17 709 L468 709 L468 549 L418 549 L418 434 L504 434 Q570 434 621.5 407.5 Q673 381 701.5 331.5 Q730 282 730 217 Z M538 217 Q538 246 518.5 260 Q499 274 473 274 L418 274 L418 160 L473 160 Q499 160 518.5 174 Q538 188 538 217 Z " />
<glyph glyph-name="uni044B" unicode="&#x44b;" horiz-adv-x="891" d="M571 222 Q571 154 542.5 104 Q514 54 462.5 27 Q411 0 345 0 L20 0 L20 160 L65 160 L65 549 L20 549 L20 709 L309 709 L309 549 L259 549 L259 444 L345 444 Q411 444 462.5 417 Q514 390 542.5 340 Q571 290 571 222 Z M379 222 Q379 254 359.5 269 Q340 284 314 284 L259 284 L259 160 L314 160 Q340 160 359.5 175 Q379 190 379 222 Z M871 160 L871 0 L587 0 L587 160 L632 160 L632 549 L587 549 L587 709 L871 709 L871 549 L826 549 L826 160 L871 160 Z " />
<glyph glyph-name="uni044C" unicode="&#x44c;" horiz-adv-x="587" d="M571 222 Q571 154 542.5 104 Q514 54 462.5 27 Q411 0 345 0 L20 0 L20 160 L65 160 L65 549 L20 549 L20 709 L309 709 L309 549 L259 549 L259 444 L345 444 Q411 444 462.5 417 Q514 390 542.5 340 Q571 290 571 222 Z M379 222 Q379 254 359.5 269 Q340 284 314 284 L259 284 L259 160 L314 160 Q340 160 359.5 175 Q379 190 379 222 Z " />
<glyph glyph-name="uni044D" unicode="&#x44d;" horiz-adv-x="569" d="M551 366 Q551 180 480.5 82.5 Q410 -15 265 -15 Q10 -15 10 270 L176 270 Q177 220 195 188.5 Q213 157 256 157 Q293 157 313.5 188.5 Q334 220 341 283 L208 283 L208 428 L343 428 Q338 495 319 527 Q300 559 262 559 Q226 559 205 533 Q184 507 180 452 L20 452 L20 711 L170 711 L172 673 Q215 723 302 723 Q427 723 489 630.5 Q551 538 551 366 Z " />
<glyph glyph-name="uni044E" unicode="&#x44e;" horiz-adv-x="870" d="M852 354 Q852 -14 578 -14 Q328 -14 306 291 L259 291 L259 160 L304 160 L304 0 L20 0 L20 160 L65 160 L65 549 L20 549 L20 709 L304 709 L304 549 L259 549 L259 436 L308 436 Q335 723 578 723 Q852 723 852 354 Z M646 354 Q646 462 632 510 Q618 558 578 558 Q538 558 524 510 Q510 462 510 354 Q510 247 524 199 Q538 151 578 151 Q618 151 632 199 Q646 247 646 354 Z " />
<glyph glyph-name="Idot" unicode="&#x130;" horiz-adv-x="324" d="M259 160 L304 160 L304 0 L20 0 L20 160 L65 160 L65 509 L20 509 L20 669 L78 669 L78 766 L245 766 L245 669 L304 669 L304 509 L259 509 L259 160 Z " />
<glyph glyph-name="Tcedilla" unicode="&#x162;" horiz-adv-x="642" d="M479 400 L467 549 L418 549 L418 160 L473 160 L473 0 L376 0 Q386 -22 386 -46 Q386 -87 355.5 -110.5 Q325 -134 267 -134 Q203 -134 151 -108 L185 -40 Q213 -51 238 -51 Q257 -51 268 -43 Q279 -35 279 -18 Q279 -10 277 0 L169 0 L169 160 L224 160 L224 549 L175 549 L163 400 L17 400 L17 709 L625 709 L625 400 L479 400 Z " />
<glyph glyph-name="dslash" unicode="&#x111;" horiz-adv-x="623" d="M605 355 Q605 246 570.5 166 Q536 86 473 43 Q410 0 325 0 L20 0 L20 160 L65 160 L65 285 L20 285 L20 435 L65 435 L65 549 L20 549 L20 709 L325 709 Q410 709 473.5 666.5 Q537 624 571 544 Q605 464 605 355 Z M399 354 Q399 549 300 549 L259 549 L259 435 L340 435 L340 285 L259 285 L259 160 L300 160 Q399 160 399 354 Z " />
<glyph glyph-name="tcedilla" unicode="&#x163;" horiz-adv-x="642" d="M479 400 L467 549 L418 549 L418 160 L473 160 L473 0 L376 0 Q386 -22 386 -46 Q386 -87 355.5 -110.5 Q325 -134 267 -134 Q203 -134 151 -108 L185 -40 Q213 -51 238 -51 Q257 -51 268 -43 Q279 -35 279 -18 Q279 -10 277 0 L169 0 L169 160 L224 160 L224 549 L175 549 L163 400 L17 400 L17 709 L625 709 L625 400 L479 400 Z " />
<glyph glyph-name="uni0492" unicode="&#x492;" horiz-adv-x="539" d="M376 400 L364 549 L274 549 L274 404 L350 404 L350 254 L274 254 L274 160 L324 160 L324 0 L35 0 L35 160 L80 160 L80 254 L15 254 L15 404 L80 404 L80 549 L35 549 L35 709 L522 709 L522 400 L376 400 Z " />
<glyph glyph-name="uni049A" unicode="&#x49a;" horiz-adv-x="617" d="M453 -90 L444 0 L414 0 L259 302 L259 160 L294 160 L294 0 L20 0 L20 160 L65 160 L65 549 L20 549 L20 709 L294 709 L294 549 L259 549 L259 409 L365 549 L345 549 L345 709 L593 709 L593 549 L557 549 L429 388 L554 160 L605 160 L605 -90 L453 -90 Z " />
<glyph glyph-name="uni04A2" unicode="&#x4a2;" horiz-adv-x="670" d="M502 -90 L493 0 L360 0 L360 160 L405 160 L405 291 L259 291 L259 160 L304 160 L304 0 L20 0 L20 160 L65 160 L65 549 L20 549 L20 709 L304 709 L304 549 L259 549 L259 436 L405 436 L405 549 L360 549 L360 709 L644 709 L644 549 L599 549 L599 160 L654 160 L654 -90 L502 -90 Z " />
<glyph glyph-name="uni04AE" unicode="&#x4ae;" horiz-adv-x="580" d="M435 160 L435 0 L141 0 L141 160 L186 160 L186 288 L46 549 L14 549 L14 709 L279 709 L279 549 L254 549 L299 454 L345 549 L324 549 L324 709 L566 709 L566 549 L532 549 L390 295 L390 160 L435 160 Z " />
<glyph glyph-name="uni04B0" unicode="&#x4b0;" horiz-adv-x="580" d="M532 549 L419 346 L479 346 L479 196 L390 196 L390 160 L435 160 L435 0 L141 0 L141 160 L186 160 L186 196 L97 196 L97 346 L155 346 L46 549 L14 549 L14 709 L279 709 L279 549 L254 549 L299 454 L345 549 L324 549 L324 709 L566 709 L566 549 L532 549 Z " />
<glyph glyph-name="uni04BA" unicode="&#x4ba;" horiz-adv-x="647" d="M20 549 L20 709 L309 709 L309 549 L259 549 L259 440 Q312 490 395 490 Q483 490 535.5 438 Q588 386 588 293 L588 160 L630 160 L630 0 L349 0 L349 160 L394 160 L394 247 Q394 330 325 330 Q286 330 259 308 L259 160 L304 160 L304 0 L20 0 L20 160 L65 160 L65 549 L20 549 Z " />
<glyph glyph-name="uni04D8" unicode="&#x4d8;" horiz-adv-x="593" d="M575 354 Q575 187 506 87 Q437 -13 289 -13 Q161 -13 89.5 68.5 Q18 150 18 327 Q18 364 21 391 L368 391 Q366 475 345.5 516.5 Q325 558 282 558 Q212 558 195 468 L31 468 Q31 580 95.5 651.5 Q160 723 292 723 Q432 723 503.5 628 Q575 533 575 354 Z M364 265 L204 265 Q207 210 226 178.5 Q245 147 287 147 Q323 147 341 176 Q359 205 364 265 Z " />
<glyph glyph-name="uni04E8" unicode="&#x4e8;" horiz-adv-x="624" d="M606 354 Q606 179 532 82 Q458 -15 312 -15 Q166 -15 92 82 Q18 179 18 354 Q18 529 92 626.5 Q166 724 312 724 Q458 724 532 626.5 Q606 529 606 354 Z M227 432 L397 432 Q390 496 369.5 527.5 Q349 559 312 559 Q275 559 254.5 527.5 Q234 496 227 432 Z M398 291 L226 291 Q231 220 251.5 185 Q272 150 312 150 Q352 150 372.5 185 Q393 220 398 291 Z " />
<glyph glyph-name="uni0493" unicode="&#x493;" horiz-adv-x="539" d="M376 400 L364 549 L274 549 L274 404 L350 404 L350 254 L274 254 L274 160 L324 160 L324 0 L35 0 L35 160 L80 160 L80 254 L15 254 L15 404 L80 404 L80 549 L35 549 L35 709 L522 709 L522 400 L376 400 Z " />
<glyph glyph-name="uni049B" unicode="&#x49b;" horiz-adv-x="617" d="M453 -90 L444 0 L414 0 L259 302 L259 160 L294 160 L294 0 L20 0 L20 160 L65 160 L65 549 L20 549 L20 709 L294 709 L294 549 L259 549 L259 409 L365 549 L345 549 L345 709 L593 709 L593 549 L557 549 L429 388 L554 160 L605 160 L605 -90 L453 -90 Z " />
<glyph glyph-name="uni04A3" unicode="&#x4a3;" horiz-adv-x="670" d="M502 -90 L493 0 L360 0 L360 160 L405 160 L405 291 L259 291 L259 160 L304 160 L304 0 L20 0 L20 160 L65 160 L65 549 L20 549 L20 709 L304 709 L304 549 L259 549 L259 436 L405 436 L405 549 L360 549 L360 709 L644 709 L644 549 L599 549 L599 160 L654 160 L654 -90 L502 -90 Z " />
<glyph glyph-name="uni04AF" unicode="&#x4af;" horiz-adv-x="580" d="M435 160 L435 0 L141 0 L141 160 L186 160 L186 288 L46 549 L14 549 L14 709 L279 709 L279 549 L254 549 L299 454 L345 549 L324 549 L324 709 L566 709 L566 549 L532 549 L390 295 L390 160 L435 160 Z " />
<glyph glyph-name="uni04B1" unicode="&#x4b1;" horiz-adv-x="580" d="M532 549 L419 346 L479 346 L479 196 L390 196 L390 160 L435 160 L435 0 L141 0 L141 160 L186 160 L186 196 L97 196 L97 346 L155 346 L46 549 L14 549 L14 709 L279 709 L279 549 L254 549 L299 454 L345 549 L324 549 L324 709 L566 709 L566 549 L532 549 Z " />
<glyph glyph-name="uni04BB" unicode="&#x4bb;" horiz-adv-x="647" d="M20 549 L20 709 L309 709 L309 549 L259 549 L259 440 Q312 490 395 490 Q483 490 535.5 438 Q588 386 588 293 L588 160 L630 160 L630 0 L349 0 L349 160 L394 160 L394 247 Q394 330 325 330 Q286 330 259 308 L259 160 L304 160 L304 0 L20 0 L20 160 L65 160 L65 549 L20 549 Z " />
<glyph glyph-name="uni04D9" unicode="&#x4d9;" horiz-adv-x="593" d="M575 354 Q575 187 506 87 Q437 -13 289 -13 Q161 -13 89.5 68.5 Q18 150 18 327 Q18 364 21 391 L368 391 Q366 475 345.5 516.5 Q325 558 282 558 Q212 558 195 468 L31 468 Q31 580 95.5 651.5 Q160 723 292 723 Q432 723 503.5 628 Q575 533 575 354 Z M364 265 L204 265 Q207 210 226 178.5 Q245 147 287 147 Q323 147 341 176 Q359 205 364 265 Z " />
<glyph glyph-name="uni04E9" unicode="&#x4e9;" horiz-adv-x="624" d="M606 354 Q606 179 532 82 Q458 -15 312 -15 Q166 -15 92 82 Q18 179 18 354 Q18 529 92 626.5 Q166 724 312 724 Q458 724 532 626.5 Q606 529 606 354 Z M227 432 L397 432 Q390 496 369.5 527.5 Q349 559 312 559 Q275 559 254.5 527.5 Q234 496 227 432 Z M398 291 L226 291 Q231 220 251.5 185 Q272 150 312 150 Q352 150 372.5 185 Q393 220 398 291 Z " />
<glyph glyph-name="twoinferior" unicode="&#x2082;" horiz-adv-x="399" d="M369 150 L369 0 L25 0 L25 26 Q25 79 39 114 Q53 149 79.5 173.5 Q106 198 154 227 L191 248 Q220 264 231 274 Q242 284 242 300 Q242 314 233 322.5 Q224 331 206 331 Q181 331 166.5 311 Q152 291 149 261 L34 261 Q32 349 78.5 392 Q125 435 207 435 Q291 435 330 399 Q369 363 369 307 Q369 268 353.5 242.5 Q338 217 314.5 200.5 Q291 184 248 160 Q227 150 223 147 Q179 122 162 105 L267 105 L271 150 L369 150 Z " />
<glyph glyph-name="fourinferior" unicode="&#x2084;" horiz-adv-x="408" d="M339 92 L366 92 L366 0 L167 0 L167 92 L208 92 L208 113 L30 113 L30 232 L166 425 L339 425 L339 205 L378 205 L378 113 L339 113 L339 92 Z M208 316 L132 205 L208 205 L208 316 Z " />
<glyph glyph-name="onesuperior" unicode="&#xb9;" horiz-adv-x="317" d="M287 387 L287 284 L30 284 L30 387 L87 387 L87 584 L30 554 L30 662 L118 709 L231 709 L231 387 L287 387 Z " />
<glyph glyph-name="twosuperior" unicode="&#xb2;" horiz-adv-x="399" d="M369 434 L369 284 L25 284 L25 310 Q25 363 39 398 Q53 433 79.5 457.5 Q106 482 154 511 L191 532 Q220 548 231 558 Q242 568 242 584 Q242 598 233 606.5 Q224 615 206 615 Q181 615 166.5 595 Q152 575 149 545 L34 545 Q32 633 78.5 676 Q125 719 207 719 Q291 719 330 683 Q369 647 369 591 Q369 552 353.5 526.5 Q338 501 314.5 484.5 Q291 468 248 444 Q227 434 223 431 Q179 406 162 389 L267 389 L271 434 L369 434 Z " />
<glyph glyph-name="threesuperior" unicode="&#xb3;" horiz-adv-x="399" d="M377 411 Q377 352 334.5 313.5 Q292 275 214 275 Q26 275 36 442 L152 442 Q154 379 206 379 Q228 379 239 389.5 Q250 400 250 416 Q250 437 233.5 448 Q217 459 177 459 L177 546 Q215 547 229 556.5 Q243 566 243 585 Q243 599 233 608.5 Q223 618 204 618 Q159 618 153 568 L41 568 Q42 639 85 679 Q128 719 205 719 Q286 719 326.5 685 Q367 651 367 598 Q367 532 309 508 Q377 480 377 411 Z " />
<glyph glyph-name="uni20B8" unicode="&#x20b8;" horiz-adv-x="580" d="M15 610 L15 709 L565 709 L565 610 L15 610 Z M439 351 L431 449 L377 449 L377 160 L432 160 L432 0 L148 0 L148 160 L203 160 L203 449 L149 449 L141 351 L15 351 L15 566 L565 566 L565 351 L439 351 Z " />
<glyph glyph-name="overscore" unicode="&#xaf;" horiz-adv-x="349" d="M291 640 L59 640 L59 756 L291 756 L291 640 Z " />
<glyph glyph-name="uni0326" unicode="&#x326;" d="M165 -136 L89 -136 L137 -64 L63 -64 L63 78 L223 78 L223 -64 L165 -136 Z " />
<glyph glyph-name="nonmarkingreturn" unicode="&#xd;" horiz-adv-x="200" d="" />
<glyph glyph-name="uni00A0" unicode="&#xa0;" horiz-adv-x="200" d="" />
</font>
</svg>
