<?xml version="1.0" standalone="no"?>
<!DOCTYPE svg PUBLIC "-//W3C//DTD SVG 1.1//EN" "http://www.w3.org/Graphics/SVG/1.1/DTD/svg11.dtd" >
<svg xmlns="http://www.w3.org/2000/svg">
<metadata>Generated by IcoMoon</metadata>
<defs>
<font id="icomoon" horiz-adv-x="1024">
<font-face units-per-em="1024" ascent="960" descent="-64" />
<missing-glyph horiz-adv-x="1024" />
<glyph unicode="&#x20;" horiz-adv-x="512" d="" />
<glyph unicode="&#xe900;" glyph-name="arrow-down" horiz-adv-x="1536" d="M0 724.882l228 235.118 540-556.858 540 556.858 228-235.118-768-788.882-228 228.931z" />
<glyph unicode="&#xe901;" glyph-name="arrow-up" horiz-adv-x="1536" d="M0 171.118l228-235.118 540 556.858 540-556.858 228 235.118-768 788.882-228-228.931z" />
<glyph unicode="&#xe902;" glyph-name="right-arrow" d="M550.4 736l224-224h-774.4v-128h774.4l-224-224 89.6-89.6 384 377.6-384 377.6z" />
<glyph unicode="&#xe903;" glyph-name="zoom" d="M711.225 326.543h-45.17l-15.701 15.588c55.467 64.683 89.202 148.537 89.202 240.412 0 204.231-165.547 369.778-369.778 369.778s-369.778-165.547-369.778-369.778c0-204.231 165.547-369.778 369.778-369.778 91.876 0 175.673 33.678 240.356 89.088l15.701-15.588v-45.056l284.331-283.932 84.821 84.821-283.762 284.444zM369.778 326.543c-141.426 0-256 114.574-256 256 0 141.369 114.574 256 256 256 141.369 0 256-114.631 256-256 0-141.426-114.631-256-256-256v0z" />
<glyph unicode="&#xe904;" glyph-name="check" d="M994.006 645.616l-540.203-540.165c-40.003-40.010-104.893-40.010-144.934 0l-278.857 278.877c-40.018 40.010-40.018 104.909 0 144.926 40.025 40.025 104.911 40.025 144.919 0.015l206.426-206.429 467.707 467.71c40.025 40.025 104.916 39.995 144.926 0 40.010-40.018 40.010-104.893 0.015-144.934z" />
<glyph unicode="&#xe905;" glyph-name="thumbs" d="M913.323 552.192c-51.627 2.176-122.453 11.861-169.685 31.744 34.517 140.075 53.461 376.064-93.696 376.064-79.403 0-100.309-71.168-120.875-142.037-66.048-227.669-168.363-290.816-273.067-315.776v31.147h-256v-512h256v38.571c101.461-9.728 175.744-36.864 263.211-74.496 53.632-23.083 130.261-49.408 227.669-49.408 108.288 0 183.253 42.539 213.717 157.269 21.333 80.085 63.403 309.333 63.403 352 0 70.315-49.835 104.363-110.677 106.923zM170.667 106.667h-85.333v341.333h85.333v-341.333zM848.896 344.875s8.576-0.427 45.611 1.152c46.165 1.963 44.843-62.677 0.171-66.688l-75.136-4.224c-31.317-4.011-27.989-51.328 6.016-50.005 0 0 29.269 0.725 48.768 1.749 45.568 2.389 43.349-60.971 1.707-66.176-18.091-2.261-74.453-4.907-74.453-4.907-34.603-3.072-30.123-52.693 4.651-48.683l32.896 1.323c35.072 3.157 42.795-35.2-12.459-70.869-66.859-37.589-199.893-5.589-273.749 26.197-95.531 41.173-189.355 82.517-296.917 85.589v256c139.264 31.957 269.995 96.171 355.029 388.821 38.315 131.925 71.637 82.389 71.637-24.491 0-88.363-20.907-161.536-39.296-236.075 45.269-23.168 143.829-59.819 261.12-66.389 45.013-2.517 43.691-62.080-2.176-67.584l-59.477-7.125s-25.941-47.403 6.059-47.616z" />
<glyph unicode="&#xe906;" glyph-name="payment" horiz-adv-x="1355" d="M686.908 723.058c-64.941-10.866-96.113-70.144-69.515-132.437 28.122-65.707 108.48-107.804 174.72-91.193 58.673 14.62 85.779 71.225 60.367 130.56-26.598 62.293-100.744 103.936-165.572 93.070zM770.711 552.505l5.873-13.028-12.367-2.56-5.478 12.459c-12.762-2.332-27.219-1.991-40.602 1.536l-3.671 22.016c11.012-1.707 24.734-3.3 35.181-1.138l7.059 2.332c12.48 6.201 8.584 22.016-9.939 25.771-13.835 3.072-50.428 0.796-64.094 31.403-7.68 17.294-1.976 35.328 20.104 43.577l-6.099 13.596 12.254 2.56 5.873-13.028c8.979 1.479 19.482 2.048 31.793 0.967l4.913-21.788c-9.6 1.195-19.934 2.332-28.913 0.455l-3.388-0.91c-17.449-4.665-11.859-21.333 3.614-25.372 25.581-5.973 56.132-7.908 68.216-34.816 9.769-21.902-1.581-36.864-20.329-44.032zM1353.035 492.373l-212.668 467.627c-348.875-227.783-734.513 18.091-1013.704-253.383l212.612-467.627c299.181 255.545 706.955 13.54 1013.76 253.383zM1194.748 597.732c-21.176-29.639-36.875-63.545-46.249-99.044-202.899-62.236-445.609 11.435-678.664-70.599-37.666 20.139-84.875 32.768-123.614 31.63l-64.094 141.483c24.395 29.867 43.595 75.378 51.84 119.125 191.944 69.746 432.113-8.818 688.828 79.701 29.421-19.684 63.812-33.963 97.694-41.017l74.259-161.28zM1355.294 276.764c-387.219-224.199-700.179 81.010-1101.176-340.764l-254.118 567.182 79.172 83.228 214.984-478.208-0.113-0.398c420.424 318.293 632.188 66.901 1022.626 259.584 16.602-36.864 31.906-75.776 38.626-90.624z" />
<glyph unicode="&#xe907;" glyph-name="sim" horiz-adv-x="735" d="M439.795 205.128v269.128h-216.615c-29.002 0-52.513-23.511-52.513-52.513v-85.333h150.974v-256h118.154v124.718zM590.769 205.128v91.897h-111.59v-91.897h111.59zM590.769 165.744h-111.59v-85.333h59.077c29.002 0 52.513 23.511 52.513 52.513v32.821zM590.769 336.41v85.333c0 29.002-23.511 52.513-52.513 52.513h-59.077v-137.846h111.59zM170.667 205.128h111.59v91.897h-111.59v-91.897zM170.667 165.744v-32.821c0-29.002 23.511-52.513 52.513-52.513h59.077v85.333h-111.59zM78.769 960h337.137c19.595 0 38.487-7.304 52.986-20.485l240.504-218.64c16.421-14.929 25.783-36.092 25.783-58.285v-647.822c0-43.503-35.266-78.769-78.769-78.769h-577.641c-43.503 0-78.769 35.266-78.769 78.769v866.462c0 43.503 35.266 78.769 78.769 78.769zM91.897 920.615c-29.002 0-52.513-23.511-52.513-52.513v-840.205c0-29.002 23.511-52.513 52.513-52.513h551.385c29.002 0 52.513 23.511 52.513 52.513v627.64c0 14.492-5.989 28.34-16.549 38.265l-226.167 212.565c-9.738 9.153-22.6 14.248-35.964 14.248h-325.218zM210.051 513.641h341.333c43.503 0 78.769-35.266 78.769-78.769v-315.077c0-43.503-35.266-78.769-78.769-78.769h-341.333c-43.503 0-78.769 35.266-78.769 78.769v315.077c0 43.503 35.266 78.769 78.769 78.769z" />
<glyph unicode="&#xe908;" glyph-name="user" d="M888.456 187.904c-146.736 33.877-283.316 63.573-217.181 188.501 201.393 380.245 53.378 583.595-159.237 583.595-216.839 0-361.143-211.157-159.237-583.595 68.141-125.653-73.602-155.349-217.181-188.501-131.119-30.293-136.026-95.403-135.599-209.237l0.171-42.667h1023.608l0.171 41.344c0.512 114.688-3.925 180.139-135.514 210.56z" />
<glyph unicode="&#xe909;" glyph-name="phone" d="M591.667 372.5c138.333 138.333 188.333 225.833 150 262.5l-10 10c-25 26.667-42.5 47.5-52.5 62.5-8.333 15-10 38.333-5 70 6.667 30 27.5 67.5 62.5 112.5 18.333 20 34.167 36.666 47.5 50 15 11.667 30 18.333 45 20h40c10 0 21.667-5 35-15 15-11.667 25.833-20 32.5-25 5-3.333 15.834-13.333 32.5-30 16.667-18.333 25.833-28.334 27.5-30 40-40 37.5-122.5-7.5-247.5-46.667-125-134.167-250-262.5-375-126.667-128.333-252.5-215.833-377.5-262.5-123.333-48.333-205.833-51.667-247.5-10-1.667 1.667-10.833 10.833-27.5 27.5-18.333 16.667-29.167 27.5-32.5 32.5s-10.833 15-22.5 30c-13.333 16.667-19.167 30-17.5 40s2.5 23.333 2.5 40c1.667 15 8.333 29.167 20 42.5 11.667 15 27.5 30.833 47.5 47.5 36.667 30 66.667 50 90 60 23.333 11.667 46.667 13.333 70 5 21.667-10 36.667-18.333 45-25 6.667-5 23.333-20.833 50-47.5 36.667-36.667 125 15 265 155v0z" />
<glyph unicode="&#xe90a;" glyph-name="gift" d="M970.105 421.053v-431.158c0-29.765-24.129-53.895-53.895-53.895h-808.421c-29.765 0-53.895 24.129-53.895 53.895v431.158c-29.765 0-53.895 24.129-53.895 53.895v161.684c0 29.765 24.129 53.895 53.895 53.895h916.211c29.765 0 53.895-24.129 53.895-53.895v-161.684c0-29.765-24.129-53.895-53.895-53.895zM53.895 636.632v-161.684h431.158v161.684h-431.158zM107.789 421.053v-431.158h377.263v431.158h-377.263zM538.947 421.053v-431.158h377.263v431.158h-377.263zM538.947 636.632v-161.684h431.158v161.684h-431.158zM377.263 636.632c-89.296 0-161.684 72.388-161.684 161.684s72.388 161.684 161.684 161.684c89.296 0 161.684-72.388 161.684-161.684 0-28.603 0-82.497 0-161.684-76.862 0-130.756 0-161.684 0zM377.263 690.526c20.619 0 56.548 0 107.789 0 0 52.791 0 88.721 0 107.789 0 59.53-48.259 107.789-107.789 107.789s-107.789-48.259-107.789-107.789c0-59.53 48.259-107.789 107.789-107.789zM646.737 636.632c89.296 0 161.684 72.388 161.684 161.684s-72.388 161.684-161.684 161.684c-89.296 0-161.684-72.388-161.684-161.684 0-28.603 0-82.497 0-161.684 76.862 0 130.756 0 161.684 0zM646.737 690.526c-20.619 0-56.548 0-107.789 0 0 52.791 0 88.721 0 107.789 0 59.53 48.259 107.789 107.789 107.789s107.789-48.259 107.789-107.789c0-59.53-48.259-107.789-107.789-107.789z" />
<glyph unicode="&#xe90b;" glyph-name="eye" horiz-adv-x="1755" d="M878.811 813.714c347.502 0 589.751-220.306 695.15-339.090-102.473-134.363-344.722-392.338-695.15-392.338-323.291 0-580.023 258.633-693.248 395.483 109.202 120.466 352.329 335.945 693.248 335.945zM878.811 960c-553.618 0-878.811-479.159-878.811-479.159s353.646-544.841 878.811-544.841c565.614 0 876.617 544.841 876.617 544.841s-313.856 479.159-876.617 479.159zM877.714 740.571c-161.646 0-292.571-130.999-292.571-292.571s130.926-292.571 292.571-292.571c161.573 0 292.571 130.999 292.571 292.571s-130.999 292.571-292.571 292.571zM877.422 448.073c-41.253-41.253-108.178-41.253-149.504 0s-41.326 108.251 0 149.504c41.253 41.253 108.178 41.253 149.504 0s41.326-108.178 0-149.504z" />
<glyph unicode="&#xe90c;" glyph-name="email" d="M757.867 331.962c0-44.856 12.747-62.745 46.080-62.745 74.293 0 121.6 94.785 121.6 252.422 0 240.941-175.36 356.285-394.293 356.285-225.227 0-430.080-151.229-430.080-437.026 0-272.981 179.2-421.647 454.4-421.647 93.44 0 156.16 10.253 252.107 42.293l20.587-85.814c-94.72-30.812-195.947-39.73-273.973-39.73-360.96 0-554.293 198.648-554.293 504.951 0 308.866 224.053 519.049 532.533 519.049 321.28 0 491.467-192.24 491.467-428.055 0-199.93-62.667-352.441-259.787-352.441-89.653 0-148.48 35.885-156.16 115.398-23.040-88.431-84.48-115.398-167.733-115.398-111.36 0-204.8 85.921-204.8 258.884 0 174.298 81.973 281.952 229.173 281.952 78.080 0 126.72-30.758 148.373-79.459l37.173 67.925h107.52v-376.844h0.107zM600.48 501.133c0 70.435-52.533 99.965-96.053 99.965-47.36 0-99.787-38.395-99.787-151.229 0-89.712 39.68-139.695 99.787-139.695 42.24 0 96.053 26.914 96.053 101.247v89.712z" />
<glyph unicode="&#xe90d;" glyph-name="delivery" horiz-adv-x="1347" d="M280.702 106.667h-56.14c-30.989 0-56.14 25.486-56.14 56.889v113.778h673.684v512h262.007c62.709 0 89.825-32.768 108.688-62.976 33.347-53.476 86.232-138.354 118.4-192.171 10.554-17.749 16.168-38.116 16.168-58.88v-254.862c0-63.772-40.87-113.778-112.281-113.778h-56.14c0-94.208-75.453-170.667-168.421-170.667s-168.421 76.459-168.421 170.667h-224.561c0-94.208-75.453-170.667-168.421-170.667s-168.421 76.459-168.421 170.667zM449.123 174.933c-37.165 0-67.368-30.606-67.368-68.267s30.204-68.267 67.368-68.267c37.165 0 67.368 30.606 67.368 68.267s-30.204 68.267-67.368 68.267zM1010.526 174.933c-37.165 0-67.368-30.606-67.368-68.267s30.204-68.267 67.368-68.267c37.165 0 67.368 30.606 67.368 68.267s-30.204 68.267-67.368 68.267zM449.123 675.556h-449.123v113.778h449.123v56.889h-280.702v56.889c0 31.403 25.151 56.889 56.14 56.889h505.263c30.989 0 56.14-25.486 56.14-56.889v-568.889h-617.544v170.667h-112.281v113.778h392.982v56.889zM954.386 675.556v-170.667h264.702l-80.112 141.995c-9.993 17.749-28.575 28.672-48.73 28.672h-135.86z" />
<glyph unicode="&#xe90e;" glyph-name="address" horiz-adv-x="1638" d="M0 45.893v804.215c0 6.66 0.981 14.153 2.944 22.478l677.146-574.439c38.274-32.468 84.889-48.702 139.846-48.702 53.976 0 100.1 16.234 138.373 48.702l677.146 574.439c1.963-7.493 2.944-14.985 2.944-22.478v-804.215c0-30.803-12.758-56.611-38.274-77.424s-55.938-31.636-91.267-32.468h-1379.318c-35.329 0-65.752 10.823-91.267 32.468s-38.274 47.454-38.274 77.424v0zM92.74 955.005c12.758 3.33 25.025 4.995 36.801 4.995h1379.318c11.776 0 24.044-1.665 36.801-4.995l-681.563-578.185c-12.758-9.99-27.969-14.985-45.634-14.985s-32.385 4.995-44.162 14.985l-681.563 578.185z" />
<glyph unicode="&#xe90f;" glyph-name="tooltip" d="M512-64c-282.77 0-512 229.23-512 512s229.23 512 512 512c282.77 0 512-229.23 512-512s-229.23-512-512-512zM440.396 201.481h164.523v66.901h-35.499v300.373h-129.024v-66.901h35.499v-233.472h-35.499v-66.901zM467.703 622.687h101.717v82.603h-101.717v-82.603z" />
<glyph unicode="&#xe910;" glyph-name="printer" horiz-adv-x="1138" d="M1080.889 257.829v0zM1080.889 257.829v0zM0 257.829v0zM1137.778 257.829v0zM753.778 272.457h-369.778c-15.644 0-28.444-13.166-28.444-29.257s12.8-29.257 28.444-29.257h369.778c15.644 0 28.444 13.166 28.444 29.257s-12.8 29.257-28.444 29.257v0zM753.778 126.171h-369.778c-15.644 0-28.444-13.166-28.444-29.257s12.8-29.257 28.444-29.257h369.778c15.644 0 28.444 13.166 28.444 29.257s-12.8 29.257-28.444 29.257v0zM753.778 272.457h-369.778c-15.644 0-28.444-13.166-28.444-29.257s12.8-29.257 28.444-29.257h369.778c15.644 0 28.444 13.166 28.444 29.257s-12.8 29.257-28.444 29.257v0zM753.778 126.171h-369.778c-15.644 0-28.444-13.166-28.444-29.257s12.8-29.257 28.444-29.257h369.778c15.644 0 28.444 13.166 28.444 29.257s-12.8 29.257-28.444 29.257v0zM753.778 126.171h-369.778c-15.644 0-28.444-13.166-28.444-29.257s12.8-29.257 28.444-29.257h369.778c15.644 0 28.444 13.166 28.444 29.257s-12.8 29.257-28.444 29.257v0zM753.778 272.457h-369.778c-15.644 0-28.444-13.166-28.444-29.257s12.8-29.257 28.444-29.257h369.778c15.644 0 28.444 13.166 28.444 29.257s-12.8 29.257-28.444 29.257v0zM384 213.943h369.778c15.644 0 28.444 13.166 28.444 29.257s-12.8 29.257-28.444 29.257h-369.778c-15.644 0-28.444-13.166-28.444-29.257s12.8-29.257 28.444-29.257v0zM753.778 126.171h-369.778c-15.644 0-28.444-13.166-28.444-29.257s12.8-29.257 28.444-29.257h369.778c15.644 0 28.444 13.166 28.444 29.257s-12.8 29.257-28.444 29.257v0zM1024 725.943h-99.556v204.8c0 16.091-12.8 29.257-28.444 29.257h-654.222c-15.644 0-28.444-13.166-28.444-29.257v-204.8h-99.556c-62.578 0-113.778-52.663-113.778-117.029v-351.086c0-64.366 51.2-117.029 113.778-117.029h99.556v-175.543c0-16.091 12.8-29.257 28.444-29.257h654.222c15.644 0 28.444 13.166 28.444 29.257v175.543h99.556c62.578 0 113.778 52.663 113.778 117.029v351.086c0 64.366-51.2 117.029-113.778 117.029v0zM270.222 901.486h597.333v-175.543h-597.333v175.543zM867.556-5.486h-597.333v351.086h597.333v-351.086zM1080.889 257.829c0-32.183-25.6-58.514-56.889-58.514h-99.556v175.543c0 16.091-12.8 29.257-28.444 29.257h-654.222c-15.644 0-28.444-13.166-28.444-29.257v-175.543h-99.556c-31.289 0-56.889 26.331-56.889 58.514v351.086c0 32.183 25.6 58.514 56.889 58.514h910.222c31.289 0 56.889-26.331 56.889-58.514v-351.086zM384 213.943h369.778c15.644 0 28.444 13.166 28.444 29.257s-12.8 29.257-28.444 29.257h-369.778c-15.644 0-28.444-13.166-28.444-29.257s12.8-29.257 28.444-29.257v0zM384 67.657h369.778c15.644 0 28.444 13.166 28.444 29.257s-12.8 29.257-28.444 29.257h-369.778c-15.644 0-28.444-13.166-28.444-29.257s12.8-29.257 28.444-29.257v0zM753.778 126.171h-369.778c-15.644 0-28.444-13.166-28.444-29.257s12.8-29.257 28.444-29.257h369.778c15.644 0 28.444 13.166 28.444 29.257s-12.8 29.257-28.444 29.257v0zM753.778 272.457h-369.778c-15.644 0-28.444-13.166-28.444-29.257s12.8-29.257 28.444-29.257h369.778c15.644 0 28.444 13.166 28.444 29.257s-12.8 29.257-28.444 29.257v0zM753.778 272.457h-369.778c-15.644 0-28.444-13.166-28.444-29.257s12.8-29.257 28.444-29.257h369.778c15.644 0 28.444 13.166 28.444 29.257s-12.8 29.257-28.444 29.257v0zM753.778 126.171h-369.778c-15.644 0-28.444-13.166-28.444-29.257s12.8-29.257 28.444-29.257h369.778c15.644 0 28.444 13.166 28.444 29.257s-12.8 29.257-28.444 29.257v0z" />
<glyph unicode="&#xe911;" glyph-name="lock" horiz-adv-x="745" d="M620.606 533.333v170.667c0 141.355-111.171 256-248.242 256s-248.242-114.645-248.242-256v-170.667h-124.121v-597.333h744.727v597.333h-124.121zM206.869 533.333v170.667c0 94.123 74.224 170.667 165.495 170.667s165.495-76.544 165.495-170.667v-170.667h-330.99z" />
<glyph unicode="&#xe912;" glyph-name="fingerprint" horiz-adv-x="761" d="M693.392 230.528c14.848-4.821 22.251-21.248 16.287-35.541-5.711-13.611-20.94-20.565-34.985-15.957-110.707 36.48-184.314 88.491-223.571 157.568-7.488 13.141-2.877 29.867 10.28 37.333s29.908 2.859 37.354-10.283c32.573-57.216 96.662-101.205 194.636-133.12zM330.009 256.597c-35.915-20.949-96.070-56.107-221.118-93.269-17.344-5.163-25.255-25.216-16.16-40.789 5.246-9.771 17.852-15.872 30.331-12.16 114.345 33.835 177.799 66.432 217.522 89.045 39.469 22.443 43.149 22.827 80.545-4.693 36.211-26.709 97.72-65.579 207.031-105.685 12.522-4.565 25.847 1.067 31.6 10.624 9.687 14.933 3.004 35.029-13.706 41.173-130.42 47.957-187.233 93.269-215.491 115.84-36.634 29.227-48.902 30.080-100.554-0.085zM318.884 125.696c-26.989-13.995-67.685-35.072-137.527-59.435-9.095-3.157-15.864-10.752-17.979-20.139-4.569-20.267 14.51-39.040 33.419-32.512 74.961 25.899 118.575 48.555 147.299 63.445 21.913 11.392 35.323 13.696 60.451 0.043 31.812-17.237 81.983-44.459 151.995-72.747 19.798-8.021 39.976 9.643 36.211 30.464-1.692 9.429-8.080 17.28-16.963 20.907-66.754 27.093-114.683 53.077-145.141 69.589-47.929 25.984-53.513 30.592-111.764 0.384zM289.525-12.971c-9.645-4.523-15.61-14.379-15.144-25.003 0.719-16.512 15.567-26.027 29.316-26.027 3.85 0 7.657 0.768 10.999 2.347 71.915 33.792 46.956 35.84 128.051-0.213 3.215-1.451 6.811-2.133 10.576-2.133 13.537 0 28.639 9.045 29.527 25.728 0.592 10.923-5.669 21.035-15.652 25.472-105.588 46.72-77.288 46.763-177.672-0.171zM389.107 593.152c5.88 13.952-0.719 30.037-14.637 35.883-13.96 5.845-29.993-0.683-35.873-14.635-44.757-106.581-157.832-188.757-306.823-224.981-14.171-3.456-23.309-17.237-20.94-31.616 2.538-15.403 17.64-25.515 32.996-21.803 146.749 35.541 286.983 118.315 345.277 257.152zM416.477 416.683c34.773 39.765 62.439 83.84 82.237 131.029 19.882 47.403 16.456 95.189-9.645 134.528-27.328 41.131-76.78 66.688-129.066 66.688-29.527 0-57.955-8.192-82.237-23.68-26.524-16.981-47.464-42.453-60.578-73.643-27.37-65.152-99.158-117.547-196.878-145.536-12.183-3.499-20.517-14.72-20.305-27.435 0.296-17.749 17.344-30.336 34.392-25.472 114.218 32.683 199.416 96.555 233.301 177.195 18.783 44.8 55.925 63.744 92.305 63.744 60.409 0 118.871-52.224 88.202-125.227-64.681-154.112-216.168-253.312-387.368-296.875-7.53-1.92-13.96-6.912-17.64-13.781s-4.4-14.976-1.861-22.315c4.526-13.227 18.444-20.693 31.939-17.28 83.929 21.291 161.555 54.613 227.251 97.877 44.333 29.227 83.337 62.891 115.952 100.181zM170.316 681.216c12.395 21.376 24.155 41.557 44.376 60.331 47.802 44.416 112.61 65.835 177.842 58.837 61.466-6.613 115.656-37.632 148.653-85.035 45.687-65.664 34.223-130.859 23.14-193.877-9.518-53.888-19.29-109.611 11.126-158.379 22.971-36.821 66.458-64.768 134.396-85.589 14.341-4.395 29.57 4.181 33.208 18.731 3.68 14.72-4.78 29.696-19.29 34.219-52.709 16.299-86.298 36.693-101.823 61.611-19.332 30.976-12.056 72.149-3.68 119.893 11.803 67.029 26.439 150.443-32.108 234.667-42.049 60.459-110.453 99.883-187.741 108.203-80.968 8.747-161.513-17.92-220.948-73.173-26.228-24.277-41.245-50.091-54.486-72.875-20.855-35.84-38.453-65.963-97.804-85.547-9.391-3.115-16.837-11.136-18.402-23.040-2.538-19.627 16.329-35.285 35.196-29.099 79.487 26.197 104.234 68.736 128.347 110.123zM83.172 753.323l16.371 24.405c65.527 94.592 181.31 140.971 309.785 124.117 122.086-16.043 222.344-85.931 255.383-178.048 29.274-81.664 17.725-147.584 8.418-200.576-8.038-45.739-14.975-85.291 9.307-116.992 9.857-12.885 23.901-22.827 43.191-30.293 16.075-6.229 33.673 4.48 35.619 21.547 1.481 12.885-5.796 25.173-17.767 30.165-8.249 3.413-14.129 7.381-17.598 11.904-9.687 12.587-4.907 39.808 1.142 74.197 9.857 56.235 23.394 133.248-10.787 228.565-47.802 133.248-200.77 217.685-357.629 217.685-104.319 0-205.592-37.632-277.211-117.163-18.063-20.395-29.189-35.115-39.976-60.117-7.065-16.299-4.315-28.075 7.53-36.181 11.633-7.979 26.524-4.907 34.223 6.784z" />
<glyph unicode="&#xe913;" glyph-name="blank" horiz-adv-x="1536" d="M768 192h-192v64h192v-64zM788.288 512l55.232 64h-267.52v-192h164.16l12.352 61.376 0.896 2.624h-113.408v64h148.288zM1071.424 249.344l-192.96 171.328-0.448-0.576-30.016-228.096 223.424 57.344zM1112.96 297.984l423.040 496-192 166.016-423.68-490.944 192.64-171.072zM448 448h-192v-64h192v64zM1216 64h-1088v640h825.984l110.464 128h-1064.448v-896h1344v436.864l-128-149.568v-159.296zM448 576h-192v-64h192v64zM256 192h192v64h-192v-64z" />
<glyph unicode="&#xe914;" glyph-name="info" d="M455.111 305.778h113.778v-113.778h-113.778v113.778zM455.111 704h113.778v-312.889h-113.778v312.889zM511.744 960c-282.88 0-511.744-229.12-511.744-512s228.864-512 511.744-512 512.256 229.12 512.256 512-229.376 512-512.256 512zM512 21.333c-235.719 0-426.667 190.919-426.667 426.667 0 235.719 190.948 426.667 426.667 426.667 235.748 0 426.667-190.948 426.667-426.667 0-235.748-190.919-426.667-426.667-426.667z" />
<glyph unicode="&#xe915;" glyph-name="shape" horiz-adv-x="1097" d="M1084.946 448l-118.967 135.552 16.567 179.456-176.018 39.973-92.16 155.063-165.797-71.186-165.797 71.186-92.16-155.063-176.018-39.497 16.567-179.438-118.967-136.046 118.967-135.552-16.567-179.931 176.018-39.991 92.16-155.063 165.797 71.68 165.797-71.186 92.16 155.063 176.018 39.973-16.567 179.456 118.967 135.552zM597.339 204.197h-97.536v97.518h97.536v-97.518zM597.339 399.232h-97.536v292.571h97.536v-292.571z" />
</font>
</defs>
</svg>
